<?xml version="1.0" encoding="UTF-8"?>
<svg version="1.1" xmlns="http://www.w3.org/2000/svg" width="1536" height="744">
<path d="M0 0 C506.88 0 1013.76 0 1536 0 C1536 245.52 1536 491.04 1536 744 C1029.12 744 522.24 744 0 744 C0 498.48 0 252.96 0 0 Z " fill="#FDFDFD" transform="translate(0,0)"/>
<path d="M0 0 C1.18698203 -0.00256327 2.37396406 -0.00512655 3.59691525 -0.0077675 C6.87402936 -0.01184063 10.15078364 -0.0025183 13.42785525 0.01256669 C16.96830623 0.02556284 20.50874146 0.02113507 24.04920959 0.01885986 C30.17746928 0.01728938 36.30563289 0.02667495 42.43386841 0.04357338 C51.29417283 0.06798946 60.15443096 0.07577131 69.01476538 0.07953735 C83.39121755 0.08609775 97.76761856 0.10604773 112.14404297 0.13444519 C126.10660548 0.16199643 140.06915407 0.1832248 154.03173828 0.19596863 C155.32344818 0.19715088 155.32344818 0.19715088 156.64125323 0.19835702 C160.96148466 0.20227223 165.28171619 0.20606333 169.60194778 0.20979273 C205.42347006 0.24087581 241.24493416 0.29370039 277.06640625 0.36076355 C271.9947898 15.97600366 260.53315684 30.33829277 246.06640625 38.36076355 C236.31990084 43.08559231 228.15570473 44.50721885 217.43041992 44.51847839 C215.84145149 44.52609947 215.84145149 44.52609947 214.22038269 44.53387451 C211.92545071 44.54455378 209.63050848 44.55318348 207.33556175 44.55999374 C203.69902037 44.57181599 200.06259596 44.59127728 196.42610168 44.6131134 C186.08838813 44.67461954 175.75068756 44.72875736 165.4128418 44.76213074 C159.08401203 44.78310947 152.75539756 44.81843652 146.42669106 44.86288834 C144.01986542 44.87702018 141.61300172 44.88576439 139.2061367 44.88894272 C135.83405489 44.89386744 132.46254183 44.91706599 129.09057617 44.94425964 C128.10377869 44.94125351 127.1169812 44.93824738 126.10028076 44.93515015 C112.71954014 45.09488231 102.05566503 50.81126627 92.3671875 59.82170105 C84.57929507 68.4161494 80.97806775 79.1087521 80.90818787 90.54908752 C80.89839905 91.76897369 80.88861023 92.98885986 80.87852478 94.24571228 C80.87262186 95.58402976 80.86681134 96.92234765 80.86108398 98.26066589 C80.85149626 99.68025492 80.84148566 101.09984114 80.83108521 102.51942444 C80.80412693 106.36190382 80.78306842 110.20439536 80.76308322 114.04691648 C80.74116746 118.06680723 80.71380619 122.08666085 80.68702698 126.10652161 C80.63717552 133.71365122 80.59220879 141.32080153 80.54900461 148.92797148 C80.49956762 157.59060634 80.44467351 166.25320393 80.38932502 174.91580272 C80.27562087 192.73075504 80.16875678 210.54574256 80.06640625 228.36076355 C78.46209058 228.3660737 76.85776985 228.3698669 75.25344849 228.37301636 C74.3600432 228.37529078 73.46663792 228.37756521 72.54615974 228.37990856 C67.96463264 228.34453674 63.4798501 227.75455739 58.94140625 227.17326355 C58.02359375 227.07207214 57.10578125 226.97088074 56.16015625 226.86662292 C50.09742353 226.09839994 44.47442667 224.65625214 38.67626953 222.78923035 C37.57382652 222.43926121 37.57382652 222.43926121 36.44911194 222.08222198 C34.65380172 221.51177473 32.85994998 220.93674074 31.06640625 220.36076355 C30.97279177 199.96741261 30.90234337 179.57410552 30.85915756 159.18058395 C30.83856893 149.71062265 30.81051939 140.24079518 30.76464844 130.7709198 C30.72466705 122.51295638 30.69894657 114.25508993 30.69005227 105.9970324 C30.68485658 101.62805943 30.67272276 97.25936377 30.64348602 92.89048004 C30.61613788 88.77004568 30.60799999 84.6500003 30.61397552 80.5294838 C30.61288389 79.02514907 30.60504614 77.5208 30.58958435 76.01654434 C30.47293953 64.07258834 32.71766198 55.0582521 38.06640625 44.36076355 C6.38640625 44.36076355 -25.29359375 44.36076355 -57.93359375 44.36076355 C-55.68110493 37.60329709 -55.68110493 37.60329709 -53.76171875 34.7396698 C-53.34809082 34.11785828 -52.93446289 33.49604675 -52.50830078 32.85539246 C-52.07114746 32.21778992 -51.63399414 31.58018738 -51.18359375 30.92326355 C-50.50272705 29.92432068 -50.50272705 29.92432068 -49.80810547 28.90519714 C-42.0287223 17.60160609 -32.74484684 8.87339937 -19.93359375 3.36076355 C-18.78238037 2.83968867 -17.63116699 2.3186138 -16.44506836 1.78174877 C-11.03091361 -0.21628138 -5.70964898 -0.04530944 0 0 Z " fill="#0B2D82" transform="translate(218.93359375,295.6392364501953)"/>
<path d="M0 0 C0.14547545 4.06212212 0.23413226 8.12357287 0.3125 12.1875 C0.35439453 13.33798828 0.39628906 14.48847656 0.43945312 15.67382812 C0.56308464 24.20440285 0.56308464 24.20440285 -2.17578125 28.07421875 C-3.10777344 28.70972656 -4.03976563 29.34523437 -5 30 C-5.8765625 30.61101562 -6.753125 31.22203125 -7.65625 31.8515625 C-8.5946875 32.43679687 -9.533125 33.02203125 -10.5 33.625 C-17.51294915 38.19378091 -23.70194627 43.50577682 -30 49 C-30.7528125 49.61746094 -31.505625 50.23492187 -32.28125 50.87109375 C-37.99826636 55.60124419 -42.49241458 61.12738871 -47 67 C-47.80566406 68.04027344 -48.61132812 69.08054687 -49.44140625 70.15234375 C-69.52480669 96.75407541 -79.2208412 127.89784476 -79.25 161 C-79.25067474 161.69008148 -79.25134949 162.38016296 -79.25204468 163.09115601 C-79.23557177 173.70971501 -78.62092723 183.66424666 -76 194 C-75.83371094 194.70801758 -75.66742188 195.41603516 -75.49609375 196.14550781 C-68.63597275 225.25020634 -53.4372285 249.57635927 -33 271 C-32.30003906 271.74121094 -31.60007812 272.48242188 -30.87890625 273.24609375 C-0.56779317 304.53301731 46.24698317 322.57203242 89.43457031 323.30053711 C133.71247831 323.46337241 177.44853387 309.55229757 211 280 C211.87398438 279.23558594 212.74796875 278.47117187 213.6484375 277.68359375 C233.81965131 259.78391303 247.77374973 238.83351911 258 214 C258.4846875 212.86304688 258.969375 211.72609375 259.46875 210.5546875 C264.39015616 198.10112923 266.50364897 184.44170261 267.48046875 171.1328125 C267.58548706 169.72721069 267.58548706 169.72721069 267.69262695 168.29321289 C267.81032062 166.53095901 267.90314475 164.76678486 267.96557617 163.00170898 C268.36279948 156.62118973 270.49768989 152.55553054 275 148 C279.20183998 145.41425232 282.41208144 144.87425681 287.234375 144.9375 C288.12866211 144.94652344 289.02294922 144.95554687 289.94433594 144.96484375 C290.96188965 144.98224609 290.96188965 144.98224609 292 145 C292.81873942 186.62975039 286.19782026 234.95111933 256.21484375 266.90234375 C255.81394531 267.26457031 255.41304688 267.62679688 255 268 C256.43963639 271.35915158 258.12416589 273.71624938 261 276 C263.00339546 275.89582173 263.00339546 275.89582173 265 275 C267.328125 274.203125 267.328125 274.203125 270 274 C272.39453125 275.58984375 272.39453125 275.58984375 274.8125 277.9375 C275.68261719 278.76894531 276.55273438 279.60039062 277.44921875 280.45703125 C278.29097656 281.29621094 279.13273437 282.13539063 280 283 C280.70769531 283.70511719 281.41539062 284.41023438 282.14453125 285.13671875 C283.46485718 286.46225307 284.78127479 287.79169185 286.09375 289.125 C287.87877537 290.88076266 289.71555102 292.5068229 291.625 294.125 C295.62147523 297.55280682 299.29933387 301.26032302 303 305 C307.24813875 309.29287366 311.52887124 313.43681683 316.125 317.359375 C329.35426009 328.93497758 329.35426009 328.93497758 330.375 336.94140625 C330.76624068 343.97558768 330.01275692 348.59346405 325.65234375 354.1953125 C321.66696638 358.54813601 317.76157301 361.67690956 311.828125 362.37109375 C310.64734375 362.39300781 309.4665625 362.41492188 308.25 362.4375 C307.07953125 362.47746094 305.9090625 362.51742188 304.703125 362.55859375 C295.31730784 361.14280066 289.31530947 353.66038843 283 347.125 C276.26341131 340.15184477 276.26341131 340.15184477 269.1171875 333.609375 C263.47220825 328.78034926 258.33944791 323.40823145 253.125 318.125 C251.06798047 316.04139745 249.00766016 313.96113977 246.9453125 311.8828125 C245.59203857 310.51213623 245.59203857 310.51213623 244.21142578 309.11376953 C242.18662739 306.97050834 242.18662739 306.97050834 240 306 C240.33 303.36 240.66 300.72 241 298 C238.36 296.02 235.72 294.04 233 292 C233 292.66 233 293.32 233 294 C229.55700775 297.25688456 225.74444818 300.0986374 222 303 C221.42733398 303.44617676 220.85466797 303.89235352 220.26464844 304.35205078 C210.98504518 311.52776603 201.37874214 317.54933002 191 323 C190.34918457 323.34659668 189.69836914 323.69319336 189.02783203 324.05029297 C172.76934309 332.66725163 156.44612342 338.60729641 138.43676758 342.42504883 C136.50717019 342.88033405 134.59822641 343.42304191 132.70019531 343.99584961 C128.86376573 345.03697094 125.09167084 345.66362878 121.15234375 346.109375 C120.05030861 346.23551178 120.05030861 346.23551178 118.92601013 346.36419678 C110.80615286 347.22377191 102.72000369 347.31050631 94.5625 347.25 C93.7983075 347.24656586 93.03411499 347.24313171 92.24676514 347.23959351 C81.08016659 347.18088021 70.00365779 347.07460776 59 345 C58.22221191 344.8546582 57.44442383 344.70931641 56.64306641 344.55957031 C35.78772093 340.47572115 15.65856674 333.13390688 -3 323 C-3.94101563 322.52304687 -4.88203125 322.04609375 -5.8515625 321.5546875 C-48.63618053 299.46823277 -81.56128539 258.27091408 -97 213 C-98.98517907 206.41398224 -100.60985162 199.73526566 -102 193 C-102.18763916 192.13608643 -102.37527832 191.27217285 -102.56860352 190.38208008 C-104.22682152 181.85926754 -104.33871686 173.44288281 -104.31567383 164.79321289 C-104.31252711 162.33368987 -104.33600923 159.87538986 -104.36132812 157.41601562 C-104.4046646 146.63225308 -103.26584047 136.5366101 -101 126 C-100.80124268 125.06454346 -100.60248535 124.12908691 -100.39770508 123.1652832 C-93.44095641 92.35682481 -77.71045746 63.13864232 -55.58154297 40.61669922 C-53.92157796 38.91983471 -52.29093199 37.19756046 -50.66015625 35.47265625 C-40.55118382 24.91525577 -15.71493933 0 0 0 Z " fill="#3937D0" transform="translate(208,216)"/>
<path d="M0 0 C1.33347725 -0.002062 1.33347725 -0.002062 2.69389343 -0.00416565 C3.66133987 -0.00057037 4.62878632 0.0030249 5.62554932 0.00672913 C6.65025833 0.0065831 7.67496735 0.00643707 8.73072815 0.00628662 C12.11789059 0.00698331 15.50499804 0.01476437 18.89215088 0.02259827 C21.24055959 0.02446331 23.58896869 0.02588681 25.93737793 0.02688599 C32.11874465 0.03070436 38.30008788 0.04052887 44.48144531 0.05158997 C50.78891685 0.06181868 57.09639219 0.06638674 63.40386963 0.07142639 C75.78018203 0.08215172 88.156477 0.09922002 100.53277588 0.12025452 C95.65478156 15.42711059 85.21530788 29.13944754 71.56402588 37.58509827 C63.26701829 41.78706216 56.61794741 43.70841783 47.27496338 43.51087952 C46.24589874 43.50521973 45.21683411 43.49955994 44.15658569 43.49372864 C40.90648614 43.47154155 37.65753577 43.42137867 34.40777588 43.37025452 C32.18904193 43.35016668 29.9702905 43.33191994 27.75152588 43.31556702 C22.34489133 43.27173515 16.93891574 43.2050032 11.53277588 43.12025452 C11.54609955 43.76124084 11.55942322 44.40222717 11.57315063 45.06263733 C11.70723025 51.81243044 11.79693409 58.56183771 11.86236572 65.31263733 C11.89229939 67.82255959 11.93306161 70.33237943 11.9854126 72.8419342 C12.28363681 87.51924358 12.27680383 99.84710391 5.53277588 113.12025452 C4.91253792 114.42128224 4.29490206 115.72355335 3.67974854 117.0269928 C-2.80163229 130.41370081 -15.76487924 152.26908207 -29.46722412 159.12025452 C-29.5607952 141.54353104 -29.63126574 123.96688564 -29.67447281 106.38996983 C-29.69507064 98.22812114 -29.72313782 90.0664275 -29.76898193 81.90467834 C-29.80893512 74.78829543 -29.83467713 67.67202484 -29.8435781 60.55553287 C-29.84877858 56.78970391 -29.86094287 53.02419621 -29.89014435 49.25847054 C-29.91744798 45.70846826 -29.92563933 42.15891727 -29.91965485 38.60881996 C-29.92126692 36.69607895 -29.94271118 34.78338624 -29.96490479 32.87077332 C-29.91664008 22.71781429 -27.45973074 15.40777248 -20.53363037 7.91322327 C-14.76376165 2.90685324 -7.62316193 -0.00911861 0 0 Z " fill="#571CBE" transform="translate(349.46722412109375,360.87974548339844)"/>
<path d="M0 0 C2.86309591 1.96948076 5.41381285 3.82762569 7 7 C7.33 4.03 7.66 1.06 8 -2 C14.6 -2 21.2 -2 28 -2 C28.11338901 9.24923618 28.20493879 20.49808691 28.25906086 31.74776745 C28.28504918 36.97260622 28.32024864 42.19703054 28.37719727 47.42163086 C28.43190338 52.47265453 28.46150129 57.52328195 28.47438622 62.57457924 C28.48355729 64.49253888 28.50146463 66.41047916 28.52865028 68.32826805 C28.71754216 82.21788223 27.9315837 93.25143352 18.8125 104.5 C14.4336383 108.99563135 9.83715508 111.77278662 4 114 C3.14148437 114.36351562 2.28296875 114.72703125 1.3984375 115.1015625 C-9.93856365 118.09870074 -25.70371078 117.84727536 -36 112 C-37.20462891 111.34644531 -37.20462891 111.34644531 -38.43359375 110.6796875 C-43.77626834 107.46881903 -47.99802435 103.5212807 -51 98 C-51 97.01 -51 96.02 -51 95 C-48.75604299 93.25700566 -46.58578127 91.74803973 -44.1875 90.25 C-43.22360352 89.61384766 -43.22360352 89.61384766 -42.24023438 88.96484375 C-40.54698224 87.88747918 -38.77606946 86.93455576 -37 86 C-33.64867058 87.11710981 -33.43447309 87.52941497 -31.6875 90.375 C-28.77143473 94.64839294 -25.5706437 96.2558663 -20.625 97.6875 C-12.23542648 98.68625875 -6.60032827 97.50926997 0.75 93.5 C6.44262078 87.1748658 7.46298262 79.25116336 7.140625 71.01953125 C7.09421875 70.35308594 7.0478125 69.68664062 7 69 C6.2575 69.763125 5.515 70.52625 4.75 71.3125 C-1.98906409 77.89840355 -7.971376 80.17180729 -17.375 80.4375 C-24.04497151 80.29812746 -29.15172015 79.17288529 -35 76 C-36.03125 75.443125 -37.0625 74.88625 -38.125 74.3125 C-46.59626639 67.49865529 -50.77161901 60.35021715 -54 50 C-54.20238281 49.36835938 -54.40476562 48.73671875 -54.61328125 48.0859375 C-57.3943301 33.08512857 -53.3792746 19.92331605 -45.3125 7.375 C-33.59704903 -4.65708478 -14.96924596 -8.83384344 0 0 Z " fill="#561FBC" transform="translate(1347,327)"/>
<path d="M0 0 C12.88136714 8.28684579 20.23843169 16.81537558 24.08203125 31.625 C26.35417685 42.31744988 24.33132746 54.11161068 19.38671875 63.87890625 C17.96462267 66.05063437 16.45361895 68.05332007 14.8125 70.0625 C13.760625 71.609375 13.760625 71.609375 12.6875 73.1875 C7.36766711 79.39108363 -2.42622146 84.4891966 -10.52807617 85.29541016 C-25.40402755 86.07523682 -37.34761161 84.95362941 -49.15625 75.0703125 C-58.7567345 65.58060282 -62.9818422 54.1650192 -63.4375 40.875 C-63.26514872 28.29335634 -58.9596625 17.8989929 -50.375 8.75 C-37.64043871 -3.25825551 -15.99303578 -8.19619313 0 0 Z " fill="#5720BC" transform="translate(1202.1875,324.9375)"/>
<path d="M0 0 C0 0.66 0 1.32 0 2 C1.2065625 2.0309375 1.2065625 2.0309375 2.4375 2.0625 C9.89740014 4.02563162 15.18099663 9.38928819 19.02734375 15.91015625 C21.2940213 20.7803269 22.2489697 25.00242417 22.22705078 30.37255859 C22.22689972 31.61339203 22.22674866 32.85422546 22.22659302 34.13265991 C22.21638225 35.47125411 22.2059503 36.80984663 22.1953125 38.1484375 C22.19157813 39.52991531 22.18873316 40.91139578 22.18673706 42.2928772 C22.17913392 45.91293771 22.15951437 49.53283543 22.1373291 53.15283203 C22.11679878 56.85316771 22.10772004 60.55352992 22.09765625 64.25390625 C22.07626496 71.50268665 22.04111033 78.75129969 22 86 C15.4 86 8.8 86 2 86 C1.505 81.545 1.505 81.545 1 77 C0.50371094 77.47050781 0.00742187 77.94101562 -0.50390625 78.42578125 C-1.52291016 79.35970703 -1.52291016 79.35970703 -2.5625 80.3125 C-3.22378906 80.92738281 -3.88507812 81.54226563 -4.56640625 82.17578125 C-10.44417746 86.58175101 -15.78120959 87.47851534 -22.875 87.3125 C-23.67147949 87.29977051 -24.46795898 87.28704102 -25.28857422 87.27392578 C-34.73063982 87.03985696 -42.13329265 86.08420487 -49 79 C-53.93851913 71.57794813 -54.92877599 63.77914451 -54 55 C-51.96761587 48.25995057 -47.62663243 44.17515656 -41.8125 40.4375 C-31.46796169 35.15029153 -19.32667692 34.82263631 -7.9375 34.9375 C-7.07189453 34.94201172 -6.20628906 34.94652344 -5.31445312 34.95117188 C-3.20960461 34.96280087 -1.10479242 34.98072927 1 35 C0.69024532 33.22868439 0.37709575 31.45796222 0.0625 29.6875 C-0.11152344 28.70136719 -0.28554688 27.71523438 -0.46484375 26.69921875 C-0.95746847 23.91810787 -0.95746847 23.91810787 -2 21 C-4.42383077 19.83046584 -4.42383077 19.83046584 -7 19 C-7.66 18.67 -8.32 18.34 -9 18 C-11.41249692 17.82396853 -13.83150895 17.73255032 -16.25 17.6875 C-18.20679688 17.63142578 -18.20679688 17.63142578 -20.203125 17.57421875 C-24.57891427 18.0649194 -26.63681572 19.2106528 -30 22 C-31.88568694 25.10014929 -31.88568694 25.10014929 -33 28 C-37.33304076 27.35534798 -40.86672065 25.81074878 -44.8125 23.9375 C-45.97394531 23.38964844 -47.13539063 22.84179688 -48.33203125 22.27734375 C-49.21246094 21.85582031 -50.09289062 21.43429687 -51 21 C-48.64304463 12.95660375 -43.57049162 7.14636981 -36.2578125 3.03125 C-26.08600969 -1.61469454 -10.84231666 -3.61410555 0 0 Z " fill="#0B2B7D" transform="translate(708,323)"/>
<path d="M0 0 C10.3313191 6.98514288 14.96554627 15.30359132 17.95703125 27.26953125 C17.95703125 32.87953125 17.95703125 38.48953125 17.95703125 44.26953125 C-1.84296875 44.26953125 -21.64296875 44.26953125 -42.04296875 44.26953125 C-39.00797979 55.2054332 -39.00797979 55.2054332 -31.15625 62.36328125 C-23.0146201 65.81827547 -16.52736814 64.41351387 -8.55859375 61.33984375 C-3.95550902 59.61672352 -3.95550902 59.61672352 -0.79296875 56.14453125 C-0.54546875 55.52578125 -0.29796875 54.90703125 -0.04296875 54.26953125 C4.10854463 55.71155601 7.2568157 57.77057505 10.76953125 60.39453125 C11.74535156 61.11898437 12.72117187 61.8434375 13.7265625 62.58984375 C14.46261719 63.14414062 15.19867187 63.6984375 15.95703125 64.26953125 C9.22150596 74.67657817 -0.47085443 80.43264961 -12.54296875 83.01953125 C-27.0751812 84.05754642 -39.27884346 82.12891906 -50.79296875 72.58203125 C-60.41995503 63.48231807 -64.00228783 52.53043059 -64.39477539 39.51586914 C-64.52687762 26.0094595 -61.52064918 15.34542611 -52.08984375 5.16015625 C-37.74935041 -8.05116439 -16.8589022 -9.58728328 0 0 Z " fill="#0A2A7D" transform="translate(846.04296875,327.73046875)"/>
<path d="M0 0 C9.51024332 6.64917852 14.46531219 16.36745233 16.51171875 27.5625 C16.51171875 32.8425 16.51171875 38.1225 16.51171875 43.5625 C-2.62828125 43.5625 -21.76828125 43.5625 -41.48828125 43.5625 C-39.40810933 51.88318769 -37.6111728 56.75454821 -30.48828125 61.5625 C-23.91860735 63.74270151 -15.27083794 63.84842378 -8.98828125 60.875 C-5.62801546 58.8887412 -3.07349672 56.4708674 -0.48828125 53.5625 C3.40178648 54.95030795 6.47730583 56.7777227 9.82421875 59.1875 C11.14873047 60.13496094 11.14873047 60.13496094 12.5 61.1015625 C13.16386719 61.58367187 13.82773438 62.06578125 14.51171875 62.5625 C9.97553138 71.87052084 2.1020314 77.12446339 -7.48828125 80.5625 C-20.95846852 83.31111998 -32.98616345 82.43477653 -44.7890625 75.140625 C-54.13220302 68.59514802 -59.1458144 60.28003487 -62.10546875 49.265625 C-64.45760695 32.65664911 -61.54627017 19.58831353 -51.6640625 6.06640625 C-49.35622389 3.41052735 -47.14698533 1.74513553 -44.17578125 -0.125 C-43.27214844 -0.70636719 -42.36851563 -1.28773438 -41.4375 -1.88671875 C-28.86022109 -8.50020183 -12.06803255 -6.97179903 0 0 Z " fill="#5521BB" transform="translate(1449.48828125,328.4375)"/>
<path d="M0 0 C24.42 0 48.84 0 74 0 C74 6.6 74 13.2 74 20 C56.84 20 39.68 20 22 20 C22 30.56 22 41.12 22 52 C37.18 52 52.36 52 68 52 C68 58.27 68 64.54 68 71 C52.82 71.33 37.64 71.66 22 72 C21.67 87.18 21.34 102.36 21 118 C14.07 118 7.14 118 0 118 C0 79.06 0 40.12 0 0 Z " fill="#541FBC" transform="translate(1060,290)"/>
<path d="M0 0 C10.02681795 6.81447279 16.95279281 16.32288999 19.9140625 28.16796875 C19.9140625 35.09796875 19.9140625 42.02796875 19.9140625 49.16796875 C-11.1059375 49.16796875 -42.1259375 49.16796875 -74.0859375 49.16796875 C-74.0859375 23.19595857 -74.0859375 23.19595857 -69.0859375 15.16796875 C-68.58964844 14.36488281 -68.09335937 13.56179687 -67.58203125 12.734375 C-52.32532877 -9.06616613 -22.10148838 -13.12101019 0 0 Z " fill="#1053DF" transform="translate(363.0859375,219.83203125)"/>
<path d="M0 0 C7.12348251 5.17026956 10.14887106 12.06019035 11.77082825 20.46972656 C12.54716708 25.99925371 12.43008312 31.52819504 12.3828125 37.1015625 C12.3799826 38.37478363 12.37715271 39.64800476 12.37423706 40.95980835 C12.36499985 44.31024023 12.34709792 47.66038837 12.3248291 51.01074219 C12.3042025 54.44333472 12.29519976 57.87595682 12.28515625 61.30859375 C12.26320086 68.01831617 12.22872563 74.72786943 12.1875 81.4375 C4.9275 81.4375 -2.3325 81.4375 -9.8125 81.4375 C-9.82708252 79.80804443 -9.84166504 78.17858887 -9.85668945 76.49975586 C-9.91476362 70.44077874 -9.99199702 64.38216969 -10.07495117 58.32348633 C-10.10815743 55.70375553 -10.13620266 53.08395394 -10.15893555 50.46411133 C-10.19255954 46.69321589 -10.24488196 42.92296678 -10.30078125 39.15234375 C-10.30717117 37.98541489 -10.3135611 36.81848602 -10.32014465 35.61619568 C-10.43021913 29.4957356 -10.71106057 24.78372114 -13.8125 19.4375 C-19.14261587 15.21782493 -23.51295859 14.00429502 -30.17578125 14.1015625 C-34.49073022 14.65131896 -37.81079547 16.29160879 -40.8125 19.4375 C-45.09749276 26.31851026 -45.41325414 32.03307184 -45.421875 40.03125 C-45.43841125 41.21851685 -45.45494751 42.40578369 -45.47198486 43.62902832 C-45.52033463 47.3985722 -45.54180804 51.16771298 -45.5625 54.9375 C-45.59067039 57.5026243 -45.6205993 60.06772994 -45.65234375 62.6328125 C-45.72609088 68.90100848 -45.77574565 75.16898237 -45.8125 81.4375 C-53.0725 81.4375 -60.3325 81.4375 -67.8125 81.4375 C-67.8125 53.3875 -67.8125 25.3375 -67.8125 -3.5625 C-60.5525 -3.5625 -53.2925 -3.5625 -45.8125 -3.5625 C-45.4825 -0.5925 -45.1525 2.3775 -44.8125 5.4375 C-44.26722656 4.89480469 -43.72195313 4.35210937 -43.16015625 3.79296875 C-30.80205708 -7.93138174 -14.74167921 -8.71660429 0 0 Z " fill="#0D2C7D" transform="translate(944.8125,327.5625)"/>
<path d="M0 0 C31.68 0 63.36 0 96 0 C96 6.6 96 13.2 96 20 C83.79 20 71.58 20 59 20 C59 52.67 59 85.34 59 119 C51.74 119 44.48 119 37 119 C37 86.33 37 53.66 37 20 C24.79 20 12.58 20 0 20 C0 13.4 0 6.8 0 0 Z " fill="#08297C" transform="translate(563,290)"/>
<path d="M0 0 C6.93 0 13.86 0 21 0 C21 7.59 21 15.18 21 23 C27.93 23 34.86 23 42 23 C42 28.94 42 34.88 42 41 C35.07 41 28.14 41 21 41 C21.07404042 47.03301795 21.15690777 53.06456435 21.26245117 59.09692383 C21.29567083 61.14827816 21.32371197 63.19972325 21.34643555 65.2512207 C21.3800357 68.20302949 21.43235476 71.15400886 21.48828125 74.10546875 C21.49467117 75.02023483 21.5010611 75.93500092 21.50764465 76.87748718 C21.61854869 81.69883641 21.8151121 85.1132165 25 89 C27.31304604 90.15652302 28.67957918 90.13374293 31.25 90.125 C31.99765625 90.12757813 32.7453125 90.13015625 33.515625 90.1328125 C36.36477866 89.98049925 39.18559913 89.46906681 42 89 C42.495 97.91 42.495 97.91 43 107 C32.74893333 109.56276667 19.59154638 111.68387933 10 106 C3.85450226 100.66806103 0.5408205 94.48369761 -0.26213074 86.34210205 C-0.34458544 83.43044551 -0.33790801 80.53355259 -0.29296875 77.62109375 C-0.28872391 76.56841812 -0.28447906 75.51574249 -0.28010559 74.4311676 C-0.26343768 71.09967458 -0.2258075 67.76880732 -0.1875 64.4375 C-0.17243781 62.16602442 -0.1587521 59.89453927 -0.14648438 57.62304688 C-0.11357309 52.08179356 -0.06187342 46.54100254 0 41 C-4.62 41 -9.24 41 -14 41 C-14 35.06 -14 29.12 -14 23 C-9.38 23 -4.76 23 0 23 C0 15.41 0 7.82 0 0 Z " fill="#08297C" transform="translate(979,301)"/>
<path d="M0 0 C7.26 0 14.52 0 22 0 C22 39.6 22 79.2 22 120 C14.74 120 7.48 120 0 120 C0 80.4 0 40.8 0 0 Z " fill="#0B2B7D" transform="translate(747,289)"/>
<path d="M0 0 C0 6.93 0 13.86 0 21 C-1.98 20.9175 -3.96 20.835 -6 20.75 C-13.46680776 20.75812493 -18.08932982 22.08932982 -23.375 27.375 C-27.34646817 33.79044859 -27.33271568 39.97475019 -27.4140625 47.3046875 C-27.43342865 48.38380402 -27.4527948 49.46292053 -27.4727478 50.57473755 C-27.53233942 54.00807895 -27.57884761 57.44145424 -27.625 60.875 C-27.66319853 63.20834764 -27.70225135 65.54168146 -27.7421875 67.875 C-27.83802434 73.58322059 -27.92213102 79.29150717 -28 85 C-34.93 85 -41.86 85 -49 85 C-49 57.28 -49 29.56 -49 1 C-42.07 1 -35.14 1 -28 1 C-27.67 4.3 -27.34 7.6 -27 11 C-25.4840625 9.1128125 -25.4840625 9.1128125 -23.9375 7.1875 C-16.73899289 -0.89829824 -10.4016566 -0.32170072 0 0 Z " fill="#551FBC" transform="translate(1288,323)"/>
<path d="M0 0 C6.09893333 4.83863714 9.19511725 9.86525903 10.21484375 17.60546875 C10.56712641 25.29245711 9.37417582 31.22703364 4.8046875 37.4921875 C-0.06725109 42.78429328 -5.43511351 46.95322564 -12.7109375 47.99609375 C-21.34857216 48.13162149 -27.6639088 47.4742208 -34.1953125 41.4921875 C-40.63198003 33.83268752 -42.7494988 26.95249162 -42.5625 17 C-41.67534868 8.52487351 -36.76210942 3.3620132 -30.37890625 -1.91015625 C-20.92871388 -8.82451882 -9.02001259 -6.19523997 0 0 Z " fill="#057EF6" transform="translate(352.1953125,159.5078125)"/>
<path d="M0 0 C7.40578321 5.17712695 11.33495921 10.38704023 14.90234375 18.7109375 C14.90234375 24.3209375 14.90234375 29.9309375 14.90234375 35.7109375 C-1.59765625 35.7109375 -18.09765625 35.7109375 -35.09765625 35.7109375 C-35.42765625 28.4509375 -35.75765625 21.1909375 -36.09765625 13.7109375 C-37.08765625 10.7409375 -38.07765625 7.7709375 -39.09765625 4.7109375 C-39.34765625 1.8984375 -39.34765625 1.8984375 -38.09765625 -0.2890625 C-28.66409053 -8.01899236 -9.75982216 -5.99765607 0 0 Z " fill="#3F2AC8" transform="translate(428.09765625,233.2890625)"/>
<path d="M0 0 C6.6406003 2.38462781 12.06849744 8.06448113 15.14453125 14.33203125 C17.75360473 22.46900469 16.55940539 32.31276707 13 40 C9.27242631 46.39715616 4.02677839 49.11722684 -3 51 C-8.4757685 51.66086861 -13.25004195 50.79958235 -18 48 C-23.82678841 42.83613961 -27.50919095 37.01236399 -28.46875 29.16796875 C-28.53362953 20.9039387 -28.36008605 13.74168341 -23 7 C-15.7586855 0.25713163 -9.84818956 -1.00444606 0 0 Z " fill="#FAF8FC" transform="translate(1189,341)"/>
<path d="M0 0 C0.65742188 0.3609375 1.31484375 0.721875 1.9921875 1.09375 C1.41353937 4.28744258 0.61336162 7.18036814 -0.5078125 10.21875 C-2.73916225 18.15705517 -2.73916225 18.15705517 -3.0078125 35.09375 C-19.5078125 35.09375 -36.0078125 35.09375 -53.0078125 35.09375 C-53.0078125 22.096389 -51.54054204 13.44561646 -42.33984375 4.07421875 C-29.98464532 -6.41838695 -14.28263902 -6.96714099 0 0 Z " fill="#3A29CB" transform="translate(281.0078125,232.90625)"/>
<path d="M0 0 C6.10706961 3.18140477 10.1076332 6.8127342 12.76953125 13.27734375 C14.50132376 22.88092042 13.9311576 31.5064264 8.70703125 39.90234375 C3.90890979 44.56718406 -1.22904307 46.83973615 -7.85546875 47.33984375 C-13.30149937 46.97062134 -17.00808721 45.33916594 -21.23046875 41.90234375 C-26.71547892 35.23138543 -28.94287216 28.39079481 -28.81640625 19.81640625 C-28.16883527 13.35919846 -25.93537756 7.92462316 -21.04296875 3.58984375 C-14.68777773 -1.37876014 -7.77630609 -2.78322476 0 0 Z " fill="#F9F7FC" transform="translate(1341.54296875,341.91015625)"/>
<path d="M0 0 C5.00330085 2.84163131 8.92457418 6.96122253 10.75 12.4375 C11.5185973 20.06435017 9.92485459 25.3809476 5.4375 31.6875 C1.26678113 35.95521233 -2.20913533 37.59323835 -8.125 37.9375 C-13.56235427 37.76553548 -17.14311222 35.91694659 -21.25 32.4375 C-26.65077782 26.61034498 -27.71462861 22.17837317 -27.5625 14.34375 C-26.85948231 7.80568551 -21.87461279 3.66852872 -17.25 -0.5625 C-11.56978516 -2.45590495 -5.50898331 -2.48381907 0 0 Z " fill="#3A36DA" transform="translate(417.25,187.5625)"/>
<path d="M0 0 C5.07748109 2.85229017 8.48063544 7.00018921 10.75 12.375 C11.73570043 19.11444017 10.77267667 24.83456496 6.75 30.375 C2.55767917 34.78029969 -1.86308673 37.64637337 -8 37.8125 C-13.52738094 37.69836529 -17.07547447 35.9117508 -21.25 32.375 C-26.36368205 26.85760621 -27.7269395 22.62233072 -27.55859375 15.1953125 C-27.00262962 10.11422263 -25.33310715 6.2734681 -21.53125 2.80859375 C-14.95140325 -2.08447025 -7.64707841 -3.49705104 0 0 Z " fill="#373ADE" transform="translate(271.25,187.625)"/>
<path d="M0 0 C1.02802734 0.00322266 2.05605469 0.00644531 3.11523438 0.00976562 C4.72301758 0.02233398 4.72301758 0.02233398 6.36328125 0.03515625 C7.44673828 0.03966797 8.53019531 0.04417969 9.64648438 0.04882812 C12.3229721 0.06061882 14.99934902 0.07707562 17.67578125 0.09765625 C17.81778217 7.24254468 17.62149897 12.9836118 12.48828125 18.41015625 C6.27172387 22.14009068 0.93992538 23.7894795 -6.32421875 23.09765625 C-10.61048841 21.83285537 -12.68393886 20.9780411 -15.32421875 17.34765625 C-16.57780618 13.27349711 -16.63410507 11.17285814 -15.32421875 7.09765625 C-10.83557344 1.99067715 -6.81214027 -0.03763613 0 0 Z " fill="#F5F6F9" transform="translate(691.32421875,371.90234375)"/>
<path d="M0 0 C2.35125 -0.061875 4.7025 -0.12375 7.125 -0.1875 C7.85348145 -0.21481201 8.58196289 -0.24212402 9.33251953 -0.27026367 C13.97791858 -0.32885089 17.12332572 0.44104201 21 3 C22.28636435 7.08609853 22.45683606 9.06646543 20.5625 12.9375 C19.7890625 13.9584375 19.7890625 13.9584375 19 15 C19.99 15.33 20.98 15.66 22 16 C23.54586876 19.09173752 23.29359521 21.59429552 23 25 C21.58984375 27.2109375 21.58984375 27.2109375 19 29 C15.73251749 29.48919615 12.54431252 29.37555053 9.25 29.25 C4.67125 29.12625 4.67125 29.12625 0 29 C0 19.43 0 9.86 0 0 Z " fill="#4F586B" transform="translate(987,458)"/>
<path d="M0 0 C3.9480047 3.03802902 6.08034791 5.84702762 8 10.4375 C8 12.0875 8 13.7375 8 15.4375 C-4.87 15.4375 -17.74 15.4375 -31 15.4375 C-29.95391228 8.11488599 -28.80743567 5.03437799 -23.5 0.125 C-16.79000322 -4.40424783 -6.76904772 -4.22083241 0 0 Z " fill="#F1F2F7" transform="translate(835,342.5625)"/>
<path d="M0 0 C3.94277881 2.34127896 6.85840803 6.05275357 8.89453125 10.125 C8.89453125 12.105 8.89453125 14.085 8.89453125 16.125 C-3.31546875 16.125 -15.52546875 16.125 -28.10546875 16.125 C-27.0332095 8.61918527 -26.03622213 5.33801786 -20.04296875 0.8125 C-13.50920957 -2.94093613 -6.85154698 -2.81089107 0 0 Z " fill="#F5F2FA" transform="translate(1436.10546875,341.875)"/>
<path d="M0 0 C1.32 0 2.64 0 4 0 C4 9.9 4 19.8 4 30 C2.35 29.67 0.7 29.34 -1 29 C-1.66 29.33 -2.32 29.66 -3 30 C-11.69379015 30.92390453 -11.69379015 30.92390453 -15.5625 28.1875 C-18.26388671 24.07669413 -18.69292127 19.80362992 -18 15 C-15.8755173 11.55687286 -14.85147359 10.28382453 -11 9 C-6.34311578 8.74598813 -4.25899298 8.87050351 0 11 C0 7.37 0 3.74 0 0 Z " fill="#475166" transform="translate(789,457)"/>
<path d="M0 0 C0.99 0 1.98 0 3 0 C3 9.9 3 19.8 3 30 C2.01 30 1.02 30 0 30 C0 29.34 0 28.68 0 28 C-1.051875 28.7425 -1.051875 28.7425 -2.125 29.5 C-5.53516525 31.27921665 -7.20553658 31.61950423 -11 31 C-13.92152702 29.1655528 -16.4326609 27.13467819 -18 24 C-18.92390453 15.30620985 -18.92390453 15.30620985 -16.1875 11.4375 C-12.15278168 8.78611367 -8.73103464 8.74655172 -4 9 C-3.01 9.66 -2.02 10.32 -1 11 C-0.67 7.37 -0.34 3.74 0 0 Z " fill="#3E485F" transform="translate(1092,457)"/>
<path d="M0 0 C27.06 0 54.12 0 82 0 C82 1.32 82 2.64 82 4 C54.94 4 27.88 4 0 4 C0 2.68 0 1.36 0 0 Z " fill="#687183" transform="translate(1306,473)"/>
<path d="M0 0 C3.375 2.0625 3.375 2.0625 6 5 C6.33 7.31 6.66 9.62 7 12 C1.39 12 -4.22 12 -10 12 C-9.67 13.65 -9.34 15.3 -9 17 C-8.32453125 17 -7.6490625 17 -6.953125 17 C-2.96875 17 1.015625 17 5 17 C4 20 4 20 2.375 21.1875 C-1.5505827 22.5304625 -5.28381064 22.52439119 -9.25 21.3125 C-12.31915675 19.01063244 -13.74826421 16.67116169 -14.32421875 12.84765625 C-14.52111954 8.76705715 -14.33813314 6.55966864 -12.1875 3 C-8.44619243 -0.42062407 -4.90770882 -0.49908903 0 0 Z " fill="#3D485D" transform="translate(1256,466)"/>
<path d="M0 0 C1.6484375 1.19140625 1.6484375 1.19140625 4.2109375 4.12890625 C4.2109375 6.43890625 4.2109375 8.74890625 4.2109375 11.12890625 C-1.0690625 11.12890625 -6.3490625 11.12890625 -11.7890625 11.12890625 C-11.4590625 12.44890625 -11.1290625 13.76890625 -10.7890625 15.12890625 C-7.62619888 16.71033806 -4.24982645 16.18767394 -0.7890625 16.12890625 C0.5309375 16.12890625 1.8509375 16.12890625 3.2109375 16.12890625 C3.2109375 16.78890625 3.2109375 17.44890625 3.2109375 18.12890625 C-0.74985432 21.24953011 -3.82906311 21.66033476 -8.7890625 21.12890625 C-12.3277619 19.4775132 -13.59976403 18.41285396 -15.7890625 15.12890625 C-16.43173219 10.23415454 -16.83905449 5.64958431 -13.9765625 1.50390625 C-9.70689217 -1.17988653 -4.7176032 -2.29699894 0 0 Z " fill="#4A5267" transform="translate(898.7890625,466.87109375)"/>
<path d="M0 0 C0.86367188 -0.03738281 1.72734375 -0.07476562 2.6171875 -0.11328125 C5.125 0.3125 5.125 0.3125 7.4296875 1.78515625 C9.91797224 5.49464986 9.56286018 8.70558895 9.375 13.0625 C9.35695313 13.85527344 9.33890625 14.64804687 9.3203125 15.46484375 C9.27333082 17.41458348 9.20159044 19.36369878 9.125 21.3125 C8.485625 21.126875 7.84625 20.94125 7.1875 20.75 C6.1665625 20.5334375 6.1665625 20.5334375 5.125 20.3125 C4.795 20.6425 4.465 20.9725 4.125 21.3125 C2.31687276 21.46341913 0.50169383 21.53419008 -1.3125 21.5625 C-2.30121094 21.58828125 -3.28992188 21.6140625 -4.30859375 21.640625 C-5.15550781 21.53234375 -6.00242187 21.4240625 -6.875 21.3125 C-9.19067384 17.83898925 -9.47087577 16.39850528 -8.875 12.3125 C-5.74862554 9.18612554 -2.7815061 9.14295322 1.4375 9.125 C3.00051517 9.17291725 4.56339515 9.23062945 6.125 9.3125 C5.795 7.6625 5.465 6.0125 5.125 4.3125 C4.52171875 4.3125 3.9184375 4.3125 3.296875 4.3125 C-0.42708333 4.3125 -4.15104167 4.3125 -7.875 4.3125 C-7.545 3.3225 -7.215 2.3325 -6.875 1.3125 C-4.44538821 0.0976941 -2.71115884 0.07642733 0 0 Z " fill="#2D374F" transform="translate(850.875,465.6875)"/>
<path d="M0 0 C26.73 0 53.46 0 81 0 C81 0.99 81 1.98 81 3 C54.27 3 27.54 3 0 3 C0 2.01 0 1.02 0 0 Z " fill="#4D586E" transform="translate(589,473)"/>
<path d="M0 0 C6.6 0 13.2 0 20 0 C20 1.32 20 2.64 20 4 C14.72 4 9.44 4 4 4 C4 7.3 4 10.6 4 14 C8.62 14 13.24 14 18 14 C18 14.99 18 15.98 18 17 C13.38 17 8.76 17 4 17 C4 20.96 4 24.92 4 29 C2.68 29 1.36 29 0 29 C0 19.43 0 9.86 0 0 Z " fill="#485165" transform="translate(1120,458)"/>
<path d="M0 0 C6.27 0 12.54 0 19 0 C19 0.99 19 1.98 19 3 C14.05 3 9.1 3 4 3 C4 5.97 4 8.94 4 12 C8.29 12 12.58 12 17 12 C17 13.32 17 14.64 17 16 C12.38 16 7.76 16 3 16 C3 19.96 3 23.92 3 28 C2.01 28 1.02 28 0 28 C0 18.76 0 9.52 0 0 Z " fill="#404B60" transform="translate(702,459)"/>
<path d="M0 0 C7.59 0 15.18 0 23 0 C23 1.32 23 2.64 23 4 C20.03 4 17.06 4 14 4 C14 12.25 14 20.5 14 29 C12.68 29 11.36 29 10 29 C10 20.75 10 12.5 10 4 C6.7 4 3.4 4 0 4 C0 2.68 0 1.36 0 0 Z " fill="#636C7D" transform="translate(815,458)"/>
<path d="M0 0 C0 0.66 0 1.32 0 2 C-31.02 2 -62.04 2 -94 2 C-94 1.34 -94 0.68 -94 0 C-82.18695669 -0.1537215 -70.37385823 -0.30190319 -58.56065655 -0.4429636 C-53.07563656 -0.50863489 -47.59065425 -0.5762323 -42.10571289 -0.64819336 C-36.81492128 -0.71753699 -31.52409053 -0.78187105 -26.23319435 -0.84269524 C-24.21211335 -0.86681718 -22.19105327 -0.89276067 -20.17001915 -0.92053413 C-17.34474331 -0.95905203 -14.51946325 -0.9911604 -11.6940918 -1.02172852 C-10.85396042 -1.03467453 -10.01382904 -1.04762054 -9.14823914 -1.06095886 C-5.8292148 -1.09130944 -3.17289079 -1.05763026 0 0 Z " fill="#5676E4" transform="translate(383,267)"/>
<path d="M0 0 C2.35125 -0.061875 4.7025 -0.12375 7.125 -0.1875 C7.85348145 -0.21481201 8.58196289 -0.24212402 9.33251953 -0.27026367 C13.9735562 -0.32879587 17.14166985 0.41209563 21 3 C21.875 6.6875 21.875 6.6875 22 10 C21.01 10.495 21.01 10.495 20 11 C19.360625 10.030625 18.72125 9.06125 18.0625 8.0625 C16.3034741 5.23963731 16.3034741 5.23963731 15 4 C12.98405418 3.76572222 10.961526 3.58663876 8.9375 3.4375 C6.978125 3.293125 5.01875 3.14875 3 3 C3 10.59 3 18.18 3 26 C7.95 26 12.9 26 18 26 C18 26.66 18 27.32 18 28 C12.06 28 6.12 28 0 28 C0 18.76 0 9.52 0 0 Z " fill="#424C60" transform="translate(987,458)"/>
<path d="M0 0 C2.875 1.625 2.875 1.625 5 4 C5.72567326 7.78962702 5.27777899 9.48888666 3.4375 12.875 C1 15 1 15 -2.5 15.625 C-6 15 -6 15 -8.5 12.9375 C-10.45640324 9.10621033 -10.13891039 7.1000774 -9 3 C-6.74511844 -0.67901728 -4.07013941 -0.56981952 0 0 Z " fill="#F1F2F3" transform="translate(1087,469)"/>
<path d="M0 0 C1.32 0 2.64 0 4 0 C4.06058594 1.14339844 4.12117188 2.28679687 4.18359375 3.46484375 C4.26798428 4.95574305 4.35263302 6.44662775 4.4375 7.9375 C4.47681641 8.69224609 4.51613281 9.44699219 4.55664062 10.22460938 C4.44038024 13.91944187 4.44038024 13.91944187 6 17 C9.45812169 17.33338596 9.45812169 17.33338596 13 17 C15.42479736 13.36280395 15.38662577 11.14296518 15.625 6.8125 C15.69976563 5.54019531 15.77453125 4.26789063 15.8515625 2.95703125 C15.90054687 1.98121094 15.94953125 1.00539063 16 0 C16.99 0 17.98 0 19 0 C19 6.93 19 13.86 19 21 C17.68 20.67 16.36 20.34 15 20 C14.67 20.33 14.34 20.66 14 21 C11.6015625 21.2734375 11.6015625 21.2734375 8.625 21.375 C7.64789062 21.42398437 6.67078125 21.47296875 5.6640625 21.5234375 C3 21 3 21 1.16015625 18.99609375 C-0.31881416 15.17666512 -0.32780519 11.71317979 -0.1875 7.6875 C-0.17396484 6.94693359 -0.16042969 6.20636719 -0.14648438 5.44335938 C-0.11135979 3.62858925 -0.05755972 1.81419712 0 0 Z " fill="#404B60" transform="translate(1195,466)"/>
<path d="M0 0 C2.4375 1.5625 2.4375 1.5625 4 4 C4.56288002 7.94016013 4.60396028 10.05782196 2.4375 13.4375 C-0.90506283 15.58016848 -3.10495209 15.49573337 -7 15 C-9.17305273 13.39906739 -9.90436939 12.51753038 -10.3984375 9.84375 C-10.39070312 9.0703125 -10.38296875 8.296875 -10.375 7.5 C-10.38273438 6.7265625 -10.39046875 5.953125 -10.3984375 5.15625 C-9.33527516 -0.59733443 -5.09623629 -0.62585358 0 0 Z " fill="#F1F1F3" transform="translate(785,469)"/>
<path d="M0 0 C0.99 0 1.98 0 3 0 C3.04898437 1.05960937 3.09796875 2.11921875 3.1484375 3.2109375 C3.22346709 4.59898497 3.29901485 5.98700451 3.375 7.375 C3.42140625 8.42300781 3.42140625 8.42300781 3.46875 9.4921875 C3.59499498 13.70185827 3.59499498 13.70185827 6 17 C8.32275177 17.40047444 10.65739357 17.7397104 13 18 C14.84566532 14.01606389 15.36022829 10.55623317 15.625 6.1875 C15.69976563 5.02605469 15.77453125 3.86460937 15.8515625 2.66796875 C15.90054687 1.78753906 15.94953125 0.90710938 16 0 C16.99 0 17.98 0 19 0 C19 6.93 19 13.86 19 21 C18.01 21 17.02 21 16 21 C16 20.34 16 19.68 16 19 C15.29875 19.495 14.5975 19.99 13.875 20.5 C10.48749667 22.26739304 8.7664742 22.6277457 5 22 C2.28977578 19.98816445 0.28425279 18.42126395 -0.40087891 14.99560547 C-0.49169596 12.70691416 -0.43710108 10.47440899 -0.3125 8.1875 C-0.28994141 7.39923828 -0.26738281 6.61097656 -0.24414062 5.79882812 C-0.18554161 3.86506071 -0.09586827 1.93227833 0 0 Z " fill="#525C70" transform="translate(1147,466)"/>
<path d="M0 0 C0.99 0 1.98 0 3 0 C3.04898438 1.05960937 3.09796875 2.11921875 3.1484375 3.2109375 C3.22346709 4.59898497 3.29901485 5.98700451 3.375 7.375 C3.42140625 8.42300781 3.42140625 8.42300781 3.46875 9.4921875 C3.59499498 13.70185827 3.59499498 13.70185827 6 17 C8.32275177 17.40047444 10.65739357 17.7397104 13 18 C15.26849666 14.34827367 15.3895951 10.9872882 15.625 6.75 C15.69976563 5.48671875 15.77453125 4.2234375 15.8515625 2.921875 C15.90054687 1.95765625 15.94953125 0.9934375 16 0 C16.99 0 17.98 0 19 0 C19 6.93 19 13.86 19 21 C18.01 21 17.02 21 16 21 C16 20.34 16 19.68 16 19 C15.29875 19.495 14.5975 19.99 13.875 20.5 C10.48749667 22.26739304 8.7664742 22.6277457 5 22 C2.28977578 19.98816445 0.28425279 18.42126395 -0.40087891 14.99560547 C-0.49169596 12.70691416 -0.43710108 10.47440899 -0.3125 8.1875 C-0.28994141 7.39923828 -0.26738281 6.61097656 -0.24414062 5.79882812 C-0.18554161 3.86506071 -0.09586827 1.93227833 0 0 Z " fill="#505A6E" transform="translate(1019,466)"/>
<path d="M0 0 C0.99 0 1.98 0 3 0 C3 0.66 3 1.32 3 2 C3.99 1.34 4.98 0.68 6 0 C8.12109375 -0.30078125 8.12109375 -0.30078125 10.4375 -0.3125 C11.19933594 -0.32925781 11.96117187 -0.34601563 12.74609375 -0.36328125 C15.81207522 0.13088907 16.9739882 0.59439683 19 3 C19.49645689 6.07461693 19.37482912 9.0835758 19.25 12.1875 C19.23195313 13.03248047 19.21390625 13.87746094 19.1953125 14.74804688 C19.14820586 16.83251573 19.07646233 18.91640144 19 21 C18.01 21 17.02 21 16 21 C15.95101562 19.94039063 15.90203125 18.88078125 15.8515625 17.7890625 C15.77653291 16.40101503 15.70098515 15.01299549 15.625 13.625 C15.5940625 12.92632812 15.563125 12.22765625 15.53125 11.5078125 C15.40500502 7.29814173 15.40500502 7.29814173 13 4 C9.5 3.58333333 9.5 3.58333333 6 4 C3.57520264 7.63719605 3.61337423 9.85703482 3.375 14.1875 C3.30023437 15.45980469 3.22546875 16.73210937 3.1484375 18.04296875 C3.09945312 19.01878906 3.05046875 19.99460937 3 21 C2.01 21 1.02 21 0 21 C0 14.07 0 7.14 0 0 Z " fill="#323E55" transform="translate(743,466)"/>
<path d="M0 0 C0.56713867 1.87939453 0.56713867 1.87939453 1 4 C-0.07421875 5.9296875 -0.07421875 5.9296875 -1.6875 7.875 C-3.52292516 10.15880527 -5.2221138 12.34465934 -6.8125 14.8125 C-11.93627275 22.27856886 -17.82858575 29.01309131 -24.1875 35.4375 C-24.67412109 35.93330566 -25.16074219 36.42911133 -25.66210938 36.93994141 C-28.8598574 40.11064488 -32.2134422 42.57994102 -36 45 C-38.57417654 46.9797044 -41.10169647 49.02076822 -43.30078125 51.41796875 C-45.65005067 53.60521959 -48.24205089 55.11415764 -51 56.75 C-52.051875 57.38421875 -53.10375 58.0184375 -54.1875 58.671875 C-57 60 -57 60 -60 59 C-59.29206299 58.54898926 -59.29206299 58.54898926 -58.56982422 58.08886719 C-47.66965299 51.10029121 -37.52311452 43.77936331 -28 35 C-27.13246094 34.21496094 -26.26492188 33.42992187 -25.37109375 32.62109375 C-15.40407225 23.16602199 -7.07167751 11.74737846 0 0 Z " fill="#5A26BD" transform="translate(454,455)"/>
<path d="M0 0 C0.99 0 1.98 0 3 0 C3 0.66 3 1.32 3 2 C3.99 1.34 4.98 0.68 6 0 C12.78272194 -0.65639245 12.78272194 -0.65639245 16.73828125 1.4765625 C20.00253183 5.11854156 19.56649542 8.03740801 19.3125 12.75 C19.28994141 13.54277344 19.26738281 14.33554687 19.24414062 15.15234375 C19.18540471 17.1023762 19.09572654 19.05143312 19 21 C18.01 21 17.02 21 16 21 C15.95101562 19.94039063 15.90203125 18.88078125 15.8515625 17.7890625 C15.77653291 16.40101503 15.70098515 15.01299549 15.625 13.625 C15.5940625 12.92632812 15.563125 12.22765625 15.53125 11.5078125 C15.40500502 7.29814173 15.40500502 7.29814173 13 4 C8.97289591 3.54443262 8.97289591 3.54443262 5.3515625 5.0703125 C3.30621374 7.99055033 3.47391715 10.66860618 3.3125 14.1875 C3.24675781 15.45980469 3.18101562 16.73210937 3.11328125 18.04296875 C3.05720703 19.50669922 3.05720703 19.50669922 3 21 C2.01 21 1.02 21 0 21 C0 14.07 0 7.14 0 0 Z " fill="#39435B" transform="translate(912,466)"/>
<path d="M0 0 C1.32 0 2.64 0 4 0 C4 1.65 4 3.3 4 5 C5.98 5 7.96 5 10 5 C10 5.99 10 6.98 10 8 C8.02 8 6.04 8 4 8 C4.33 12.62 4.66 17.24 5 22 C6.65 22.33 8.3 22.66 10 23 C10 23.99 10 24.98 10 26 C7.25 26.75 7.25 26.75 4 27 C1.8125 25.5 1.8125 25.5 0 23 C-0.2911521 20.26317029 -0.38322418 17.96059961 -0.25 15.25 C-0.23195313 14.55261719 -0.21390625 13.85523438 -0.1953125 13.13671875 C-0.14838554 11.42388461 -0.07664605 9.71176176 0 8 C-0.99 8 -1.98 8 -3 8 C-3 7.01 -3 6.02 -3 5 C-2.01 5 -1.02 5 0 5 C0 3.35 0 1.7 0 0 Z " fill="#38445A" transform="translate(942,461)"/>
<path d="M0 0 C1.32 0 2.64 0 4 0 C4 1.65 4 3.3 4 5 C5.98 5 7.96 5 10 5 C10 5.99 10 6.98 10 8 C8.02 8 6.04 8 4 8 C4.33 12.62 4.66 17.24 5 22 C6.65 22.33 8.3 22.66 10 23 C10 23.99 10 24.98 10 26 C8.72125 26.061875 7.4425 26.12375 6.125 26.1875 C5.04605469 26.23970703 5.04605469 26.23970703 3.9453125 26.29296875 C3.30335937 26.19628906 2.66140625 26.09960938 2 26 C-0.45391569 22.31912647 -0.22802759 19.55644412 -0.125 15.3125 C-0.11597656 14.61060547 -0.10695313 13.90871094 -0.09765625 13.18554688 C-0.07413704 11.45688475 -0.03826713 9.72839855 0 8 C-0.99 8 -1.98 8 -3 8 C-3 7.01 -3 6.02 -3 5 C-2.01 5 -1.02 5 0 5 C0 3.35 0 1.7 0 0 Z " fill="#465063" transform="translate(1177,461)"/>
<path d="M0 0 C1.93719378 -0.05406122 3.87481921 -0.09282025 5.8125 -0.125 C6.89144531 -0.14820313 7.97039063 -0.17140625 9.08203125 -0.1953125 C12 0 12 0 15 2 C15.3125 5 15.3125 5 15 8 C13 10 13 10 9.9609375 10.1953125 C8.77757812 10.17210937 7.59421875 10.14890625 6.375 10.125 C5.18648437 10.10695313 3.99796875 10.08890625 2.7734375 10.0703125 C1.85820313 10.04710937 0.94296875 10.02390625 0 10 C0 6.7 0 3.4 0 0 Z " fill="#F0F1F2" transform="translate(991,474)"/>
<path d="M0 0 C0.66 0.33 1.32 0.66 2 1 C1.67 2.98 1.34 4.96 1 7 C5.29 7 9.58 7 14 7 C10.13209997 8.93395001 8.8499541 9.23289353 4.75 9.125 C3.85796875 9.10695313 2.9659375 9.08890625 2.046875 9.0703125 C1.03367187 9.03550781 1.03367187 9.03550781 0 9 C1.11854586 12.72614153 1.11854586 12.72614153 4 15 C6.67580435 15.04315813 9.32663282 15.0453968 12 15 C13.32 15 14.64 15 16 15 C16 15.66 16 16.32 16 17 C12.03920818 20.12062386 8.95999939 20.53142851 4 20 C0.4613006 18.34860695 -0.81070153 17.28394771 -3 14 C-3.30078125 11.40625 -3.30078125 11.40625 -3.3125 8.5 C-3.32925781 7.5409375 -3.34601562 6.581875 -3.36328125 5.59375 C-2.95128633 2.65219489 -2.29930415 1.79576261 0 0 Z " fill="#323D53" transform="translate(886,468)"/>
<path d="M0 0 C1.32 0 2.64 0 4 0 C4 9.9 4 19.8 4 30 C2.68 30 1.36 30 0 30 C0 20.1 0 10.2 0 0 Z " fill="#404B5F" transform="translate(870,457)"/>
<path d="M0 0 C1.95803507 -0.05389087 3.91648909 -0.09274217 5.875 -0.125 C7.51082031 -0.15980469 7.51082031 -0.15980469 9.1796875 -0.1953125 C12 0 12 0 14 2 C13.67028521 5.29714793 13.3773161 6.6226839 11 9 C8.3984375 9.1953125 8.3984375 9.1953125 5.375 9.125 C3.87066406 9.09792969 3.87066406 9.09792969 2.3359375 9.0703125 C1.56507813 9.04710937 0.79421875 9.02390625 0 9 C0 6.03 0 3.06 0 0 Z " fill="#F2F2F4" transform="translate(991,462)"/>
<path d="M0 0 C0.99 0 1.98 0 3 0 C3 9.9 3 19.8 3 30 C2.01 30 1.02 30 0 30 C0 29.34 0 28.68 0 28 C-0.66 27.34 -1.32 26.68 -2 26 C-1.94140625 23.7578125 -1.94140625 23.7578125 -1.5625 21.125 C-1.08345284 17.7464569 -0.95836167 15.26937577 -2 12 C-1.34 12 -0.68 12 0 12 C0 8.04 0 4.08 0 0 Z " fill="#2A354C" transform="translate(1092,457)"/>
<path d="M0 0 C0.99 0 1.98 0 3 0 C3.33 0.66 3.66 1.32 4 2 C4.66 1.34 5.32 0.68 6 0 C8.625 -0.125 8.625 -0.125 11 0 C11 0.99 11 1.98 11 3 C10.21625 3.268125 9.4325 3.53625 8.625 3.8125 C5.71885077 4.84814432 5.71885077 4.84814432 4 8 C3.5396236 11.19806665 3.5396236 11.19806665 3.375 14.6875 C3.30023437 15.86699219 3.22546875 17.04648437 3.1484375 18.26171875 C3.09945313 19.16535156 3.05046875 20.06898438 3 21 C2.01 21 1.02 21 0 21 C0 14.07 0 7.14 0 0 Z " fill="#202E43" transform="translate(1225,466)"/>
<path d="M0 0 C0.99 0 1.98 0 3 0 C3 9.9 3 19.8 3 30 C2.01 30 1.02 30 0 30 C0 20.1 0 10.2 0 0 Z " fill="#2A364D" transform="translate(1062,457)"/>
<path d="M0 0 C1.32 0 2.64 0 4 0 C4 6.93 4 13.86 4 21 C2.68 21 1.36 21 0 21 C0 14.07 0 7.14 0 0 Z " fill="#465062" transform="translate(729,466)"/>
<path d="M0 0 C1.32 0 2.64 0 4 0 C4 6.93 4 13.86 4 21 C2.68 21 1.36 21 0 21 C0 14.07 0 7.14 0 0 Z " fill="#424C5D" transform="translate(1048,466)"/>
<path d="M0 0 C0.33 0 0.66 0 1 0 C1 7.26 1 14.52 1 22 C5.95 22 10.9 22 16 22 C16 22.66 16 23.32 16 24 C10.06 24 4.12 24 -2 24 C-1.85964695 20.37471047 -1.71297483 16.74987117 -1.5625 13.125 C-1.52318359 12.09246094 -1.48386719 11.05992187 -1.44335938 9.99609375 C-1.40146484 9.00996094 -1.35957031 8.02382813 -1.31640625 7.0078125 C-1.27974854 6.09660645 -1.24309082 5.18540039 -1.20532227 4.24658203 C-1 2 -1 2 0 0 Z " fill="#2E3A51" transform="translate(989,462)"/>
<path d="M0 0 C0.99 0 1.98 0 3 0 C3 8.58 3 17.16 3 26 C2.01 26 1.02 26 0 26 C0 17.42 0 8.84 0 0 Z " fill="#243045" transform="translate(825,461)"/>
<path d="M0 0 C0.33 0 0.66 0 1 0 C1.12375 1.11375 1.2475 2.2275 1.375 3.375 C1.6465813 7.03103677 1.6465813 7.03103677 4 9 C6.37355613 9.20515305 6.37355613 9.20515305 9 9.0625 C13.80381471 8.90190736 13.80381471 8.90190736 16 10 C15.67 10.99 15.34 11.98 15 13 C14.01 13 13.02 13 12 13 C11.22785156 13.04640625 10.45570313 13.0928125 9.66015625 13.140625 C2.661048 13.43532429 2.661048 13.43532429 -0.5625 11.3125 C-2.10951881 8.82381756 -2.67788008 6.89907925 -3 4 C-2.34 4 -1.68 4 -1 4 C-0.67 2.68 -0.34 1.36 0 0 Z " fill="#4A5369" transform="translate(774,474)"/>
<path d="M0 0 C0.99 0 1.98 0 3 0 C3 6.93 3 13.86 3 21 C2.01 21 1.02 21 0 21 C-1.25818438 13.87028851 -0.71148265 7.18050184 0 0 Z " fill="#2B3850" transform="translate(1163,466)"/>
<path d="M0 0 C1.8871875 0.061875 1.8871875 0.061875 3.8125 0.125 C3.0625 4.875 3.0625 4.875 0.8125 7.125 C-2.8125 7.25 -2.8125 7.25 -6.1875 7.125 C-6.5175 5.475 -6.8475 3.825 -7.1875 2.125 C-4.09861478 0.06574319 -3.47814073 -0.1140374 0 0 Z " fill="#E5E7EA" transform="translate(853.1875,476.875)"/>
<path d="M0 0 C0.99 0 1.98 0 3 0 C3 6.93 3 13.86 3 21 C2.01 21 1.02 21 0 21 C-1.5056121 13.97381022 -0.64057643 7.10547081 0 0 Z " fill="#2B3750" transform="translate(1035,466)"/>
<path d="M0 0 C2.97 0 5.94 0 9 0 C9.05038777 3.87365665 9.08617252 7.7471799 9.10986328 11.62109375 C9.12456776 13.5677768 9.15001202 15.51436947 9.17578125 17.4609375 C9.28868991 39.59103491 9.28868991 39.59103491 5 47 C4.83256729 41.9770188 5.02390123 37.43913726 5.96875 32.5 C7.10872457 25.91505374 7.43596623 19.42131682 7.625 12.75 C7.66367187 11.61175781 7.70234375 10.47351563 7.7421875 9.30078125 C7.83518848 6.53400221 7.92102861 3.76720883 8 1 C5.36 1 2.72 1 0 1 C0 0.67 0 0.34 0 0 Z " fill="#4E29BB" transform="translate(491,362)"/>
<path d="M0 0 C0.66 0.33 1.32 0.66 2 1 C0.75443908 1.81928886 -0.49666635 2.63015186 -1.75 3.4375 C-2.44609375 3.88996094 -3.1421875 4.34242188 -3.859375 4.80859375 C-5.92957014 5.9608009 -7.68696324 6.54676982 -10 7 C-10 7.66 -10 8.32 -10 9 C-15.14285714 14.71428571 -15.14285714 14.71428571 -19 16 C-19.99 15.67 -20.98 15.34 -22 15 C-22 15.66 -22 16.32 -22 17 C-23.32 16.67 -24.64 16.34 -26 16 C-6.57898499 2.73814629 -6.57898499 2.73814629 0 0 Z " fill="#1F8FF5" transform="translate(203,218)"/>
<path d="M0 0 C3.125 0.375 3.125 0.375 5.5 2.25 C7.125 4.375 7.125 4.375 7.125 6.375 C2.835 6.375 -1.455 6.375 -5.875 6.375 C-4.4255618 0.57724719 -4.4255618 0.57724719 0 0 Z " fill="#E9EAED" transform="translate(1251.875,468.625)"/>
<path d="M0 0 C0.99 0 1.98 0 3 0 C4.5056121 7.02618978 3.64057643 13.89452919 3 21 C2.01 21 1.02 21 0 21 C0 14.07 0 7.14 0 0 Z " fill="#253148" transform="translate(912,466)"/>
<path d="M0 0 C3.125 0.375 3.125 0.375 5.5 2.25 C7.125 4.375 7.125 4.375 7.125 6.375 C2.835 6.375 -1.455 6.375 -5.875 6.375 C-4.4255618 0.57724719 -4.4255618 0.57724719 0 0 Z " fill="#E5E6E9" transform="translate(892.875,468.625)"/>
<path d="M0 0 C0.66 0.66 1.32 1.32 2 2 C1.66226563 2.65226562 1.32453125 3.30453125 0.9765625 3.9765625 C-1.37995631 8.59424965 -3.47940844 13.03273422 -5 18 C-6.021563 20.77634461 -7.05676845 23.54725192 -8.09765625 26.31640625 C-9.06688953 28.9811758 -9.06688953 28.9811758 -9.49609375 31.77734375 C-9.74552734 32.87755859 -9.74552734 32.87755859 -10 34 C-10.99 34.495 -10.99 34.495 -12 35 C-10.52076179 22.56167444 -5.47234907 11.1515567 0 0 Z " fill="#237EF2" transform="translate(121,302)"/>
<path d="M0 0 C0 0.99 0 1.98 0 3 C-1.093125 3.0825 -2.18625 3.165 -3.3125 3.25 C-6.96039461 3.65727047 -6.96039461 3.65727047 -8.875 5.75 C-10.08863527 8.17727054 -10.62769367 10.31939441 -11 13 C-11.99 12.67 -12.98 12.34 -14 12 C-14.35288435 8.2064932 -14.28393415 6.44058747 -12.1875 3.1875 C-8.45785511 -0.54214489 -5.04416263 -0.09517288 0 0 Z " fill="#3A4459" transform="translate(785,466)"/>
<path d="M0 0 C0.99 0.33 1.98 0.66 3 1 C5.67622658 1.04247979 8.32647745 1.04618369 11 1 C12.32 1 13.64 1 15 1 C15 1.66 15 2.32 15 3 C11.03920818 6.12062386 7.95999939 6.53142851 3 6 C0.0625 4.5 0.0625 4.5 -2 3 C-1.34 2.67 -0.68 2.34 0 2 C0 1.34 0 0.68 0 0 Z " fill="#646C7E" transform="translate(887,482)"/>
<path d="M0 0 C0.66 0 1.32 0 2 0 C2.33 4.29 2.66 8.58 3 13 C4.98 13.66 6.96 14.32 9 15 C9 15.99 9 16.98 9 18 C2.84765625 18.09765625 2.84765625 18.09765625 1 18 C0 17 0 17 -0.09765625 13.18359375 C-0.09098089 11.60153318 -0.07901875 10.01948841 -0.0625 8.4375 C-0.05798828 7.63119141 -0.05347656 6.82488281 -0.04882812 5.99414062 C-0.03700518 3.99606244 -0.01906914 1.99802217 0 0 Z " fill="#253248" transform="translate(1178,469)"/>
<path d="M0 0 C3.16115776 1.36983503 3.9927092 1.9890638 6 5 C6 6.65 6 8.3 6 10 C0.39 10 -5.22 10 -11 10 C-11.33 10.66 -11.66 11.32 -12 12 C-12 11.01 -12 10.02 -12 9 C-7.38 8.67 -2.76 8.34 2 8 C1.34 6.35 0.68 4.7 0 3 C0 2.01 0 1.02 0 0 Z " fill="#575F73" transform="translate(1257,468)"/>
<path d="M0 0 C0.33 0 0.66 0 1 0 C1.33 4.62 1.66 9.24 2 14 C3.65 14.33 5.3 14.66 7 15 C7 15.99 7 16.98 7 18 C4.25 18.75 4.25 18.75 1 19 C-1.4375 17.3125 -1.4375 17.3125 -3 15 C-2.75 12.75 -2.75 12.75 -2 11 C-2 11.66 -2 12.32 -2 13 C-1.34 13 -0.68 13 0 13 C0 8.71 0 4.42 0 0 Z " fill="#525A70" transform="translate(945,469)"/>
<path d="M0 0 C0.66 0.33 1.32 0.66 2 1 C2.48018293 7.24237805 2.48018293 7.24237805 0.59375 10.21875 C-3.36449993 12.93706622 -7.0716965 12.42966897 -11.75 12.25 C-12.63816406 12.23195313 -13.52632812 12.21390625 -14.44140625 12.1953125 C-16.62870848 12.14827374 -18.81379816 12.08257009 -21 12 C-21 11.67 -21 11.34 -21 11 C-15.06 11 -9.12 11 -3 11 C-3.33 10.01 -3.66 9.02 -4 8 C-3.34 7.34 -2.68 6.68 -2 6 C-1.28591666 4.01643517 -0.61382258 2.01684563 0 0 Z " fill="#3E4961" transform="translate(1008,475)"/>
<path d="M0 0 C0.99 0 1.98 0 3 0 C3.24809955 2.6244748 3.4741699 5.24767145 3.6875 7.875 C3.79674805 8.99455078 3.79674805 8.99455078 3.90820312 10.13671875 C4.07421875 12.3046875 4.07421875 12.3046875 4 16 C3.01 16.66 2.02 17.32 1 18 C0 17 0 17 -0.09765625 13.18359375 C-0.09098089 11.60153318 -0.07901875 10.01948841 -0.0625 8.4375 C-0.05798828 7.63119141 -0.05347656 6.82488281 -0.04882812 5.99414062 C-0.03700518 3.99606244 -0.01906914 1.99802217 0 0 Z " fill="#2A364F" transform="translate(1019,466)"/>
<path d="M0 0 C0.99 0 1.98 0 3 0 C3 5.28 3 10.56 3 16 C2.01 16.33 1.02 16.66 0 17 C0 11.39 0 5.78 0 0 Z " fill="#28344B" transform="translate(1147,466)"/>
<path d="M0 0 C0 3.7280222 -1.37314595 4.73975461 -3.75390625 7.4375 C-5.3663934 9.45942746 -6.20812082 11.55237345 -7 14 C-7.66 14 -8.32 14 -9 14 C-9.12375 14.598125 -9.2475 15.19625 -9.375 15.8125 C-10 18 -10 18 -12 21 C-12.66 21 -13.32 21 -14 21 C-14.33 21.99 -14.66 22.98 -15 24 C-15.33 23.34 -15.66 22.68 -16 22 C-5.62642369 6.07061503 -5.62642369 6.07061503 0 0 Z " fill="#1D83F3" transform="translate(145,265)"/>
<path d="M0 0 C0.33 0 0.66 0 1 0 C0.95117188 3.02734375 0.95117188 3.02734375 0.90234375 6.0546875 C0.87350758 8.08185404 0.87350758 8.08185404 2 10 C1.360625 9.814375 0.72125 9.62875 0.0625 9.4375 C-0.9584375 9.2209375 -0.9584375 9.2209375 -2 9 C-2.33 9.33 -2.66 9.66 -3 10 C-4.85287502 10.07226502 -6.70833878 10.0838122 -8.5625 10.0625 C-9.57441406 10.05347656 -10.58632813 10.04445313 -11.62890625 10.03515625 C-12.41136719 10.02355469 -13.19382812 10.01195312 -14 10 C-14.33 9.34 -14.66 8.68 -15 8 C-13.35 8 -11.7 8 -10 8 C-10 7.67 -10 7.34 -10 7 C-8.906875 6.690625 -7.81375 6.38125 -6.6875 6.0625 C-4.44592006 5.41662103 -2.2130649 4.7376883 0 4 C0 2.68 0 1.36 0 0 Z " fill="#4A5266" transform="translate(858,477)"/>
<path d="M0 0 C0.99 0 1.98 0 3 0 C3 6.6 3 13.2 3 20 C1 19 1 19 0.37890625 17.421875 C-0.15162875 14.03082655 -0.10454022 10.67142682 -0.0625 7.25 C-0.05798828 6.55261719 -0.05347656 5.85523438 -0.04882812 5.13671875 C-0.0371002 3.42444197 -0.01916653 1.71220967 0 0 Z " fill="#27334B" transform="translate(1211,466)"/>
<path d="M0 0 C0.33 0.66 0.66 1.32 1 2 C5.62 2 10.24 2 15 2 C15 2.99 15 3.98 15 5 C10.38 5 5.76 5 1 5 C0.67 3.35 0.34 1.7 0 0 Z " fill="#40485C" transform="translate(1123,470)"/>
<path d="M0 0 C0.33 0 0.66 0 1 0 C1.33 1.65 1.66 3.3 2 5 C2.33 5 2.66 5 3 5 C3 9.62 3 14.24 3 19 C2.01 19 1.02 19 0 19 C0 12.73 0 6.46 0 0 Z " fill="#253249" transform="translate(743,468)"/>
<path d="M0 0 C0.99 0 1.98 0 3 0 C3.33 0.66 3.66 1.32 4 2 C4.66 1.34 5.32 0.68 6 0 C8.625 -0.125 8.625 -0.125 11 0 C11 0.99 11 1.98 11 3 C9.8553125 3.4021875 9.8553125 3.4021875 8.6875 3.8125 C6.12619116 4.94424112 4.80307062 5.91223401 3 8 C3 7.34 3 6.68 3 6 C2.34 6 1.68 6 1 6 C0.67 4.02 0.34 2.04 0 0 Z " fill="#3B465E" transform="translate(1225,466)"/>
<path d="M0 0 C0.33 0 0.66 0 1 0 C1 4.95 1 9.9 1 15 C0.01 15 -0.98 15 -2 15 C-2.05429959 13.25034642 -2.09292823 11.50020213 -2.125 9.75 C-2.15980469 8.28820312 -2.15980469 8.28820312 -2.1953125 6.796875 C-1.99862781 3.9803502 -1.44568916 2.39050964 0 0 Z " fill="#263147" transform="translate(930,472)"/>
<path d="M0 0 C0.91007813 0.00902344 1.82015625 0.01804687 2.7578125 0.02734375 C3.45648437 0.03894531 4.15515625 0.05054688 4.875 0.0625 C4.215 1.3825 3.555 2.7025 2.875 4.0625 C-0.79166667 4.0625 -4.45833333 4.0625 -8.125 4.0625 C-7.795 3.0725 -7.465 2.0825 -7.125 1.0625 C-4.60024538 -0.19987731 -2.81299534 -0.03606404 0 0 Z " fill="#4D556A" transform="translate(851.125,465.9375)"/>
<path d="M0 0 C0.33 0 0.66 0 1 0 C1 4.29 1 8.58 1 13 C0.34 13 -0.32 13 -1 13 C-1 12.01 -1 11.02 -1 10 C-1.99 9.67 -2.98 9.34 -4 9 C-2.68 6.03 -1.36 3.06 0 0 Z " fill="#2B374E" transform="translate(791,474)"/>
<path d="M0 0 C0.99 1.32 1.98 2.64 3 4 C-1.18831424 6.39332242 -4.15250576 7.55085162 -9 7 C-9.66 6.34 -10.32 5.68 -11 5 C-7.71379848 2.80919899 -4.78119262 2.05033128 -1 1 C-0.67 0.67 -0.34 0.34 0 0 Z " fill="#626C7F" transform="translate(1090,481)"/>
<path d="M0 0 C0 0.66 0 1.32 0 2 C-0.66 2 -1.32 2 -2 2 C-2 2.66 -2 3.32 -2 4 C-3.97946592 5.36363208 -5.9819245 6.69418644 -8 8 C-8.5775 8.5775 -9.155 9.155 -9.75 9.75 C-10.36875 10.36875 -10.36875 10.36875 -11 11 C-11.66 11 -12.32 11 -13 11 C-11.63310446 7.84930578 -10.14342115 5.99108226 -7.5 3.8125 C-6.8915625 3.30332031 -6.283125 2.79414063 -5.65625 2.26953125 C-3.66399714 0.74245064 -2.53832112 0 0 0 Z " fill="#4036D2" transform="translate(248,232)"/>
<path d="M0 0 C2.375 -0.1875 2.375 -0.1875 5 0 C7.1519437 3.22791555 7.20086443 4.28400809 7 8 C6.01 8.495 6.01 8.495 5 9 C1.125 3.375 1.125 3.375 0 0 Z " fill="#363F57" transform="translate(1002,460)"/>
<path d="M0 0 C0.99 0.33 1.98 0.66 3 1 C2 4 2 4 0.375 5.1875 C-2.80382728 6.27499354 -5.66661533 6.1282071 -9 6 C-9 5.67 -9 5.34 -9 5 C-7.02 5 -5.04 5 -3 5 C-3 4.34 -3 3.68 -3 3 C-4.65 3 -6.3 3 -8 3 C-8 2.67 -8 2.34 -8 2 C-6.865625 1.855625 -5.73125 1.71125 -4.5625 1.5625 C-1.19222799 1.38828522 -1.19222799 1.38828522 0 0 Z " fill="#626B7E" transform="translate(1258,482)"/>
<path d="M0 0 C0.66 0 1.32 0 2 0 C2 0.66 2 1.32 2 2 C5.96 2.99 5.96 2.99 10 4 C10 4.66 10 5.32 10 6 C2.25 6.125 2.25 6.125 0 5 C0 3.35 0 1.7 0 0 Z " fill="#3D465E" transform="translate(1245,481)"/>
<path d="M0 0 C0.99 0.33 1.98 0.66 3 1 C3 2.32 3 3.64 3 5 C5.64 5.66 8.28 6.32 11 7 C11 7.33 11 7.66 11 8 C9.741875 8.04125 8.48375 8.0825 7.1875 8.125 C6.47980469 8.14820313 5.77210938 8.17140625 5.04296875 8.1953125 C3 8 3 8 0 6 C-0.1875 2.875 -0.1875 2.875 0 0 Z " fill="#2A344A" transform="translate(842,478)"/>
<path d="M0 0 C0.99 0.33 1.98 0.66 3 1 C3 1.66 3 2.32 3 3 C-0.6441774 5.4294516 -2.71241272 5.16179575 -7 5 C-7.33 4.34 -7.66 3.68 -8 3 C-6.865625 2.690625 -5.73125 2.38125 -4.5625 2.0625 C-1.21224901 1.37075469 -1.21224901 1.37075469 0 0 Z " fill="#3D4A63" transform="translate(899,482)"/>
<path d="M0 0 C2.64 0.33 5.28 0.66 8 1 C8 1.99 8 2.98 8 4 C5.36 4 2.72 4 0 4 C0 2.68 0 1.36 0 0 Z " fill="#3E465C" transform="translate(1179,483)"/>
<path d="M0 0 C0.33 0.99 0.66 1.98 1 3 C4.63 3 8.26 3 12 3 C12 3.33 12 3.66 12 4 C8.37 4 4.74 4 1 4 C1.33 6.31 1.66 8.62 2 11 C1.01 10.67 0.02 10.34 -1 10 C-0.67 6.7 -0.34 3.4 0 0 Z " fill="#2B364F" transform="translate(1244,473)"/>
<path d="M0 0 C0.99 0 1.98 0 3 0 C2.88648483 1.81325551 2.75887039 3.62563357 2.625 5.4375 C2.55539062 6.44683594 2.48578125 7.45617187 2.4140625 8.49609375 C2.27742188 9.32238281 2.14078125 10.14867187 2 11 C1.01 11.495 1.01 11.495 0 12 C0 8.04 0 4.08 0 0 Z " fill="#313C56" transform="translate(1092,457)"/>
<path d="M0 0 C0.33 0 0.66 0 1 0 C1.33 4.95 1.66 9.9 2 15 C0.68 15.33 -0.64 15.66 -2 16 C-2.33 14.35 -2.66 12.7 -3 11 C-2.67 11.66 -2.34 12.32 -2 13 C-1.34 13 -0.68 13 0 13 C0 8.71 0 4.42 0 0 Z " fill="#5B6377" transform="translate(945,469)"/>
<path d="M0 0 C0 0.66 0 1.32 0 2 C0.99 2.33 1.98 2.66 3 3 C-2.625 5 -2.625 5 -6 5 C-6 4.34 -6 3.68 -6 3 C-6.66 2.67 -7.32 2.34 -8 2 C-5.09399739 0.74335022 -3.20395416 0 0 0 Z " fill="#4B556A" transform="translate(921,466)"/>
<path d="M0 0 C0.33 0 0.66 0 1 0 C1.51211281 6.40141012 1.11888494 9.98010898 -3 15 C-3.33 14.34 -3.66 13.68 -4 13 C-3.2754531 11.2874346 -2.54541056 9.57664766 -1.76953125 7.88671875 C-0.72001254 5.31353329 -0.33503957 2.7473245 0 0 Z " fill="#571DB4" transform="translate(537,554)"/>
<path d="M0 0 C3.11728368 1.36508501 5.08663738 2.86919698 7.3125 5.4375 C7.84488281 6.03433594 8.37726562 6.63117187 8.92578125 7.24609375 C9.45751953 8.11427734 9.45751953 8.11427734 10 9 C9.67 9.99 9.34 10.98 9 12 C8.62875 11.278125 8.2575 10.55625 7.875 9.8125 C6.23508707 7.35263061 5.06239697 6.0996522 2.8125 4.3125 C1.884375 3.549375 0.95625 2.78625 0 2 C0 1.34 0 0.68 0 0 Z " fill="#5819B8" transform="translate(526,537)"/>
<path d="M0 0 C1.32 0.66 2.64 1.32 4 2 C3.443125 2.04125 2.88625 2.0825 2.3125 2.125 C-1.24030274 3.46930374 -2.70958953 6.00974189 -5 9 C-5.99 8.34 -6.98 7.68 -8 7 C-4.25 4 -4.25 4 -2 4 C-1.34 2.68 -0.68 1.36 0 0 Z " fill="#284093" transform="translate(846,382)"/>
<path d="M0 0 C0.66 0.33 1.32 0.66 2 1 C-0.64 3.64 -3.28 6.28 -6 9 C-6.99 8.67 -7.98 8.34 -9 8 C-6.03 5.36 -3.06 2.72 0 0 Z " fill="#243A87" transform="translate(800,328)"/>
<path d="M0 0 C0.33 0 0.66 0 1 0 C1.33 2.31 1.66 4.62 2 7 C3.65 7.33 5.3 7.66 7 8 C7 8.33 7 8.66 7 9 C4.36 9 1.72 9 -1 9 C-1.125 2.25 -1.125 2.25 0 0 Z " fill="#243047" transform="translate(989,477)"/>
<path d="M0 0 C0.66 0.33 1.32 0.66 2 1 C1.34 4.3 0.68 7.6 0 11 C-0.33 11 -0.66 11 -1 11 C-1.22174933 9.54364629 -1.42698698 8.08477044 -1.625 6.625 C-1.74101563 5.81289063 -1.85703125 5.00078125 -1.9765625 4.1640625 C-1.98429687 3.44992187 -1.99203125 2.73578125 -2 2 C-1.34 1.34 -0.68 0.68 0 0 Z " fill="#29364C" transform="translate(1077,468)"/>
<path d="M0 0 C0.66 0.33 1.32 0.66 2 1 C0.38405168 3.04119788 -1.2856382 5.04072937 -3 7 C-3.66 7 -4.32 7 -5 7 C-5 7.66 -5 8.32 -5 9 C-5.66 8.67 -6.32 8.34 -7 8 C-4.69 5.36 -2.38 2.72 0 0 Z " fill="#602FC1" transform="translate(1268,326)"/>
<path d="M0 0 C-1.45255699 3.82946843 -3.42895561 5.12050295 -7 7 C-6.75 4.625 -6.75 4.625 -6 2 C-3.84898936 0.54286376 -2.59713506 0 0 0 Z " fill="#493FD0" transform="translate(396,231)"/>
<path d="M0 0 C-0.33 0.99 -0.66 1.98 -1 3 C-2.66666667 3 -4.33333333 3 -6 3 C-6 2.34 -6 1.68 -6 1 C-7.32 0.67 -8.64 0.34 -10 0 C-6.30458414 -0.95024979 -3.69541586 -0.95024979 0 0 Z " fill="#525B6E" transform="translate(790,484)"/>
<path d="M0 0 C0.66 1.32 1.32 2.64 2 4 C1.1875 6.0625 1.1875 6.0625 0 8 C-0.33 8.99 -0.66 9.98 -1 11 C-1.66 11 -2.32 11 -3 11 C-2.01 7.37 -1.02 3.74 0 0 Z " fill="#6642C5" transform="translate(469,421)"/>
<path d="M0 0 C0.33 0.66 0.66 1.32 1 2 C-2.08888522 4.05925681 -2.70935927 4.2390374 -6.1875 4.125 C-8.0746875 4.063125 -8.0746875 4.063125 -10 4 C-6.79663178 1.16625119 -4.21912747 0.4794463 0 0 Z " fill="#525C71" transform="translate(1208,483)"/>
<path d="M0 0 C1.65 0.33 3.3 0.66 5 1 C4.01 2.32 3.02 3.64 2 5 C-0.31 4.34 -2.62 3.68 -5 3 C-5 2.67 -5 2.34 -5 2 C-3.35 2 -1.7 2 0 2 C0 1.34 0 0.68 0 0 Z " fill="#4A5268" transform="translate(755,466)"/>
<path d="M0 0 C1.65 0 3.3 0 5 0 C5 1.32 5 2.64 5 4 C3.35 3.67 1.7 3.34 0 3 C0 2.01 0 1.02 0 0 Z " fill="#454D67" transform="translate(959,483)"/>
<path d="M0 0 C0 0.66 0 1.32 0 2 C-2.64 2 -5.28 2 -8 2 C-8.33 1.34 -8.66 0.68 -9 0 C-5.52176885 -1.15941038 -3.54104422 -0.70820884 0 0 Z " fill="#434D64" transform="translate(784,485)"/>
<path d="M0 0 C1.32 0 2.64 0 4 0 C3.67 1.65 3.34 3.3 3 5 C2.01 5 1.02 5 0 5 C0 3.35 0 1.7 0 0 Z " fill="#555B70" transform="translate(1048,457)"/>
<path d="M0 0 C1.68762851 1.6454378 3.3540349 3.31288577 5 5 C5 5.33 5 5.66 5 6 C3.35 6 1.7 6 0 6 C-0.38218767 4.34385343 -0.71395102 2.67542976 -1 1 C-0.67 0.67 -0.34 0.34 0 0 Z " fill="#36415A" transform="translate(1198,480)"/>
<path d="M0 0 C1.67542976 0.28604898 3.34385343 0.61781233 5 1 C4.34 1.66 3.68 2.32 3 3 C2.83312552 5.58354218 2.83312552 5.58354218 3 8 C2.01 7.67 1.02 7.34 0 7 C-0.38133299 5.0085944 -0.71325582 3.00720923 -1 1 C-0.67 0.67 -0.34 0.34 0 0 Z " fill="#4E576C" transform="translate(844,476)"/>
<path d="M0 0 C1.65 0.33 3.3 0.66 5 1 C4.67 1.99 4.34 2.98 4 4 C1.36 3.67 -1.28 3.34 -4 3 C-2.68 2.67 -1.36 2.34 0 2 C0 1.34 0 0.68 0 0 Z " fill="#4C5266" transform="translate(1253,466)"/>
<path d="M0 0 C1.32 0.33 2.64 0.66 4 1 C3.67 2.32 3.34 3.64 3 5 C2.01 5 1.02 5 0 5 C0 3.35 0 1.7 0 0 Z " fill="#4F5971" transform="translate(729,457)"/>
<path d="M0 0 C0.66 0 1.32 0 2 0 C2 0.99 2 1.98 2 3 C3.32 3.66 4.64 4.32 6 5 C0.25 4.25 0.25 4.25 -2 2 C-1.34 1.34 -0.68 0.68 0 0 Z " fill="#2C4288" transform="translate(253,513)"/>
<path d="M0 0 C0.99 0.33 1.98 0.66 3 1 C1.37660195 2.70884005 -0.29319053 4.37446717 -2 6 C-2.66 6 -3.32 6 -4 6 C-2.84826645 3.53199953 -1.95216435 1.95216435 0 0 Z " fill="#5016B8" transform="translate(426,490)"/>
<path d="M0 0 C1.65 0 3.3 0 5 0 C5.33 0.66 5.66 1.32 6 2 C5.34 2.66 4.68 3.32 4 4 C2.68 3.34 1.36 2.68 0 2 C0 1.34 0 0.68 0 0 Z " fill="#40475C" transform="translate(1002,460)"/>
</svg>
