<?xml version="1.0" encoding="UTF-8"?>
<svg version="1.1" xmlns="http://www.w3.org/2000/svg" width="1536" height="1024">
<path d="M0 0 C506.88 0 1013.76 0 1536 0 C1536 337.92 1536 675.84 1536 1024 C1029.12 1024 522.24 1024 0 1024 C0 686.08 0 348.16 0 0 Z " fill="#FDFDFD" transform="translate(0,0)"/>
<path d="M0 0 C1.53068641 -0.00218333 3.06137099 -0.00656667 4.59204566 -0.01294583 C8.77687523 -0.02407754 12.96105981 -0.00419386 17.14580727 0.02094448 C21.66646351 0.042601 26.18708539 0.03522538 30.70777893 0.03143311 C38.53306777 0.02881539 46.35814765 0.04446043 54.18338394 0.0726223 C65.49722995 0.11331259 76.81097525 0.12628518 88.1248865 0.13256226 C106.48231188 0.14349676 124.83962598 0.17674807 143.19699097 0.22407532 C161.02608688 0.26999274 178.85515253 0.30537398 196.68429565 0.32661438 C197.78386979 0.327928 198.88344392 0.32924161 200.01633848 0.33059504 C205.53275424 0.33712038 211.04917021 0.34343888 216.56558633 0.34965456 C262.30673057 0.40146128 308.04775345 0.48950361 353.78878784 0.60127258 C353.88859862 4.85129224 353.96069296 9.10066853 354.0085144 13.35151672 C354.02847535 14.7936951 354.05565448 16.23579418 354.09054565 17.6776886 C354.40392571 30.97329844 351.81465172 39.57649886 342.78878784 49.60127258 C328.36733129 64.23717458 308.33913397 70.71368605 288.78878784 75.60127258 C287.59253784 75.92611633 286.39628784 76.25096008 285.16378784 76.58564758 C262.5206287 82.41313719 238.08325185 84.30185797 214.78878784 83.60127258 C214.45878784 76.67127258 214.12878784 69.74127258 213.78878784 62.60127258 C192.33878784 62.93127258 170.88878784 63.26127258 148.78878784 63.60127258 C148.45878784 72.84127258 148.12878784 82.08127258 147.78878784 91.60127258 C125.0753676 91.80129579 102.36188162 91.98524004 79.64816093 92.14786053 C69.10185288 92.22377261 58.55564601 92.30537109 48.00949097 92.40034485 C38.81775384 92.48310694 29.62600555 92.55521145 20.43408597 92.61450511 C15.56676822 92.64627493 10.69962335 92.68338997 5.83245468 92.73326683 C1.25088739 92.7800486 -3.33056047 92.81257426 -7.91231346 92.83419418 C-9.59334462 92.84463454 -11.27435284 92.8602719 -12.95528221 92.8815136 C-15.25235665 92.90976083 -17.54878227 92.91921998 -19.8460083 92.92407227 C-21.13098772 92.93421199 -22.41596714 92.94435171 -23.73988533 92.9547987 C-27.56556404 92.56518476 -29.95198948 91.61123158 -33.21121216 89.60127258 C-36.43624429 85.1529524 -37.33515124 81.42398194 -37.40408325 76.00337219 C-37.42014618 74.85465134 -37.43620911 73.70593048 -37.45275879 72.5223999 C-37.49734049 67.25384572 -37.53873391 61.98544009 -37.56130981 56.7167511 C-37.5745993 53.94362535 -37.60235891 51.1712442 -37.64334106 48.39839172 C-37.70254531 44.39167607 -37.72002126 40.38574724 -37.73464966 36.37861633 C-37.75731903 35.14908737 -37.7799884 33.91955841 -37.80334473 32.652771 C-37.78000401 23.06447732 -35.5303316 15.94598242 -29.02371216 8.78877258 C-20.10306727 0.89451167 -11.61685461 -0.12383533 0 0 Z " fill="#58D317" transform="translate(157.21121215820313,436.3987274169922)"/>
<path d="M0 0 C82.60837279 0 82.60837279 0 97.5625 4.0625 C98.337146 4.27092529 99.11179199 4.47935059 99.90991211 4.6940918 C112.61435874 8.37723236 124.26001022 15.07456452 134 24 C134.76570313 24.67417969 135.53140625 25.34835937 136.3203125 26.04296875 C151.01069843 39.71249735 160.24400014 60.86205344 161.1262207 80.86132812 C161.75279543 107.22918382 161.75279543 107.22918382 158 119 C157.64808594 120.16144531 157.29617188 121.32289063 156.93359375 122.51953125 C151.95787849 137.67657806 143.598805 151.10093893 131 161 C129.94425781 161.84498047 129.94425781 161.84498047 128.8671875 162.70703125 C92.07808329 190.33003661 43.01724077 182 0 182 C0 121.94 0 61.88 0 0 Z " fill="#0498E8" transform="translate(1025,398)"/>
<path d="M0 0 C0.51554443 0.20858643 1.03108887 0.41717285 1.56225586 0.63208008 C7.93387374 3.00502142 13.80162907 3.53089478 20.5625 3.6875 C21.57119141 3.72166016 22.57988281 3.75582031 23.61914062 3.79101562 C26.07931568 3.87263281 28.53917309 3.94205676 31 4 C31.00364563 5.25565765 31.00729126 6.51131531 31.01104736 7.80502319 C31.04805752 19.66327512 31.10589627 31.52126881 31.18390274 43.37932396 C31.22333933 49.47506124 31.25554673 55.57065489 31.27099609 61.66650391 C31.28618753 67.55408064 31.32067799 73.44126237 31.36830902 79.32866287 C31.38309704 81.56997867 31.39103953 83.81135088 31.39188385 86.0527153 C31.39426295 89.20272224 31.42141963 92.3516459 31.45410156 95.50146484 C31.4490712 96.41928741 31.44404083 97.33710999 31.43885803 98.28274536 C31.5847742 107.42809283 34.39823268 115.55176215 41 122 C49.43943342 128.11201174 58.03538571 128.29383155 68.13725281 128.27415466 C69.47942983 128.27861089 70.82160422 128.2839262 72.16377479 128.29002339 C75.84172546 128.30416769 79.51959147 128.30586736 83.19756544 128.30542648 C87.16841518 128.30707784 91.13923037 128.32015031 95.11006165 128.33161926 C103.78786158 128.35444353 112.46563702 128.36238707 121.1434629 128.36744571 C126.56504984 128.37070566 131.98662972 128.37722993 137.40821266 128.3844471 C152.42831919 128.4040095 167.44841915 128.42041587 182.46853924 128.42332363 C183.42921591 128.4235112 184.38989259 128.42369877 185.37968068 128.42389202 C187.32708061 128.42425827 189.27448053 128.42462197 191.22188046 128.42498314 C192.18853051 128.42516595 193.15518057 128.42534876 194.15112305 128.42553711 C195.11895723 128.42571766 196.08679141 128.42589821 197.08395389 128.42608423 C212.76325695 128.42962522 228.4424226 128.45664456 244.12167802 128.494035 C260.23142171 128.53214364 276.34109727 128.55148129 292.45088702 128.55178314 C301.49110185 128.55236713 310.53115275 128.5608212 319.5713253 128.58978081 C327.26959118 128.61432888 334.96763333 128.6215545 342.66592779 128.60653328 C346.59056823 128.59937839 350.51476719 128.60015982 354.43935776 128.62294388 C358.03904074 128.64364068 361.63794587 128.64083544 365.2376214 128.62006903 C367.14218365 128.61496056 369.04676435 128.6342714 370.95122355 128.65473074 C381.38161313 128.55370438 390.04879683 125.93280067 398 119 C399.58300049 116.86239117 399.58300049 116.86239117 400.75 114.5625 C401.15734375 113.82128906 401.5646875 113.08007812 401.984375 112.31640625 C404.42272066 106.75510249 404.16864117 101.03318712 404.20532227 95.0690918 C404.21522186 94.07349747 404.22512146 93.07790314 404.23532104 92.05213928 C404.26685843 88.76785647 404.29166283 85.48355919 404.31640625 82.19921875 C404.33698247 79.91949593 404.35797912 77.63977688 404.37937927 75.36006165 C404.43453087 69.36452277 404.48397065 63.36894986 404.53222656 57.37335205 C404.58249205 51.2534279 404.63815176 45.13355308 404.69335938 39.01367188 C404.80085642 27.00915674 404.90232017 15.00459875 405 3 C405.92897095 2.970271 405.92897095 2.970271 406.87670898 2.93994141 C409.73067389 2.84364769 412.58400857 2.73439903 415.4375 2.625 C416.41138672 2.5940625 417.38527344 2.563125 418.38867188 2.53125 C424.49958085 2.28599613 430.0707795 1.50836426 436 0 C436.04678668 15.5078751 436.08202148 31.0157449 436.10362434 46.52367401 C436.11392296 53.7247911 436.12795615 60.92586425 436.15087891 68.12695312 C436.1708562 74.4057482 436.18372672 80.68451144 436.18817699 86.96333742 C436.19077705 90.28581985 436.19791868 93.60819037 436.21146011 96.9306488 C436.22599878 100.64587785 436.22797691 104.36091891 436.22705078 108.07617188 C436.23424133 109.16949829 436.24143188 110.26282471 436.24884033 111.38928223 C436.21152406 125.24305235 431.89610933 135.7106938 422.32421875 145.8046875 C412.2381237 155.33138569 401.31849077 156.44736653 387.90040588 156.38768005 C386.36946041 156.3918572 384.83851804 156.39733681 383.30758137 156.40399987 C379.11717562 156.41842311 374.92696708 156.41421956 370.73655069 156.40683305 C366.21089429 156.40209597 361.68528021 156.41461597 357.15963745 156.42485046 C348.30013434 156.44203291 339.44070217 156.44287966 330.58118672 156.43763756 C323.379439 156.43359378 316.17771222 156.43504189 308.9759655 156.44038582 C307.95041312 156.44113424 306.92486074 156.44188266 305.86823101 156.44265376 C303.78473512 156.44418526 301.70123924 156.44572361 299.61774337 156.44726873 C280.08623395 156.46099164 260.55476461 156.45555743 241.02325612 156.44408352 C223.16029823 156.43415024 205.29744392 156.44709384 187.43450201 156.47101771 C169.08501666 156.49540776 150.73557954 156.50501688 132.3860783 156.49836498 C122.08732175 156.4948727 111.78864487 156.49710552 101.48990059 156.51461601 C92.72335507 156.52933673 83.95694531 156.52997504 75.19040246 156.5125451 C70.71925268 156.5040319 66.24834546 156.5018934 61.77720833 156.51719666 C57.68066584 156.53104405 53.58457369 156.52628011 49.48805725 156.50695742 C48.00969376 156.50319727 46.53129419 156.50611987 45.05296285 156.51656907 C32.51735436 156.59884206 22.90503684 154.38715907 13.5 145.6875 C12.675 144.800625 11.85 143.91375 11 143 C10.5153125 142.52046875 10.030625 142.0409375 9.53125 141.546875 C1.37236398 132.97171928 -0.75264322 122.74454816 -0.56762695 111.25488281 C-0.56835709 110.04368774 -0.56908722 108.83249268 -0.56983948 107.58459473 C-0.56697894 104.30397749 -0.542128 101.02446532 -0.50696969 97.74406528 C-0.47544085 94.3008421 -0.47275479 90.85759088 -0.46684265 87.41424561 C-0.45138123 80.91206911 -0.41045907 74.41031938 -0.3600952 67.90832973 C-0.30395967 60.49833766 -0.27665481 53.08832384 -0.25161803 45.67817163 C-0.19953479 30.45187778 -0.11174502 15.22598183 0 0 Z " fill="#0257C5" transform="translate(120,543)"/>
<path d="M0 0 C13.2 0 26.4 0 40 0 C40.33 22.11 40.66 44.22 41 67 C43.64 64.69 46.28 62.38 49 60 C51.72265625 58.29296875 51.72265625 58.29296875 54.0625 57.1875 C54.83722656 56.80980469 55.61195313 56.43210937 56.41015625 56.04296875 C68.55214423 51.15320889 85.12691188 50.65393424 97.33984375 55.6796875 C98.21769531 56.11539063 99.09554687 56.55109375 100 57 C101.01191406 57.49757813 102.02382813 57.99515625 103.06640625 58.5078125 C118.26614381 66.68789654 126.72812127 79.48429423 132.30859375 95.5 C134.2641207 102.5708319 134.18341766 109.53369212 134.1875 116.8125 C134.19974609 117.95009766 134.21199219 119.08769531 134.22460938 120.25976562 C134.25521198 137.9378697 128.05562319 155.0024035 115.96484375 168.125 C102.50008538 180.97407359 86.07673468 184.6563392 68.08984375 184.3125 C54.98590787 183.7387097 45.46092461 176.45444327 36 168 C35.90912109 169.01320313 35.90912109 169.01320313 35.81640625 170.046875 C35.73261719 170.93890625 35.64882813 171.8309375 35.5625 172.75 C35.48128906 173.63171875 35.40007813 174.5134375 35.31640625 175.421875 C35 178 35 178 34 182 C22.78 182 11.56 182 0 182 C0 121.94 0 61.88 0 0 Z " fill="#3FC329" transform="translate(873,398)"/>
<path d="M0 0 C1.70567139 0.01135986 1.70567139 0.01135986 3.44580078 0.02294922 C20.85467763 0.36293726 35.99575773 5.90750821 49.1875 17.4375 C49.79078125 17.94667969 50.3940625 18.45585937 51.015625 18.98046875 C61.40683131 28.45893397 68.3055027 42.92799351 69.38037109 56.9543457 C69.99963466 77.39191983 67.68178779 94.57183861 53.9375 110.6875 C41.91776334 123.34828928 25.47875685 130.95857444 8.0390625 131.71875 C-14.80909752 132.29140059 -34.16639458 128.05416965 -51.5 112.25 C-63.78696386 99.28370881 -67.98937347 83.9874889 -68 66.6875 C-68.01224609 65.65367187 -68.02449219 64.61984375 -68.03710938 63.5546875 C-68.07000479 46.14204728 -61.91010692 31.32361196 -49.99609375 18.53125 C-36.41079455 5.5049166 -18.50985893 -0.17391814 0 0 Z " fill="#39BF2C" transform="translate(788.8125,450.5625)"/>
<path d="M0 0 C1.63702881 0.00858032 1.63702881 0.00858032 3.30712891 0.01733398 C18.75506937 0.35613463 32.05037144 5.1273295 43.5625 15.75 C59.28606095 32.75251088 59.8125 51.86700579 59.8125 74.5 C31.4325 74.5 3.0525 74.5 -26.1875 74.5 C-23.03609187 85.00469378 -20.9908962 91.62350262 -11.69140625 97.24609375 C0.73043999 103.4667063 14.05953735 102.62409111 27.11328125 98.859375 C32.15336271 97.00726481 36.61348597 94.56159429 41.203125 91.79296875 C43.8125 90.5 43.8125 90.5 46.8125 91.5 C48.1628418 93.90844727 48.1628418 93.90844727 49.51171875 97.06640625 C49.99833984 98.19111328 50.48496094 99.31582031 50.98632812 100.47460938 C51.48583984 101.65861328 51.98535156 102.84261719 52.5 104.0625 C53.01111328 105.25037109 53.52222656 106.43824219 54.04882812 107.66210938 C55.31305414 110.60409329 56.5670903 113.5500128 57.8125 116.5 C52.89835019 121.59371281 47.3284901 123.92106409 40.8125 126.5 C40.20229004 126.74991699 39.59208008 126.99983398 38.96337891 127.25732422 C28.37609079 131.4147514 17.80892094 131.97695838 6.5625 132 C5.88762543 132.00449158 5.21275085 132.00898315 4.51742554 132.01361084 C-7.95774189 132.04734441 -20.29988338 130.79408661 -31.4375 124.8125 C-32.10587891 124.46292236 -32.77425781 124.11334473 -33.46289062 123.75317383 C-49.54090131 115.0908543 -58.0028235 102.33172259 -64.328125 85.45703125 C-68.03272808 71.7654514 -66.95591451 52.46176474 -61.1875 39.5 C-60.713125 38.41332031 -60.23875 37.32664062 -59.75 36.20703125 C-52.07736083 20.47443218 -39.55457529 9.582086 -23.1875 3.5 C-15.40258673 0.89728751 -8.19316768 -0.05027655 0 0 Z " fill="#0388E0" transform="translate(1263.1875,450.5)"/>
<path d="M0 0 C13.86 0 27.72 0 42 0 C42.04527224 19.80277627 42.08206187 39.60551018 42.10362434 59.4083252 C42.11390547 68.60459251 42.12790479 77.80082522 42.15087891 86.99707031 C42.17091021 95.01921679 42.18373938 103.04133819 42.18817699 111.06350899 C42.19076799 115.30508661 42.19679079 119.5465925 42.21146011 123.78814697 C42.22519856 127.79360919 42.2291904 131.79897126 42.22621536 135.8044548 C42.22675835 137.26194176 42.23063777 138.71943263 42.23841095 140.17689896 C42.34916817 162.04650802 39.91910802 183.47339576 24.5 200.25 C11.18225252 212.81887718 -4.91463608 216.57599673 -22.8125 216.4375 C-24.13169434 216.43282715 -25.45088867 216.4281543 -26.81005859 216.42333984 C-37.85140479 216.25552994 -47.06053372 214.96973314 -57 210 C-57 197.46 -57 184.92 -57 172 C-52.25207979 173.89916808 -47.54583182 175.87900968 -42.83984375 177.87890625 C-34.91975408 181.00554413 -25.11976095 181.49783675 -16.90234375 179.09375 C-9.52699595 175.62299809 -5.67269561 171.3269646 -2.90130615 163.77105713 C-0.48389825 156.28508065 -0.424731 148.99748512 -0.45410156 141.22558594 C-0.44534742 139.67702709 -0.43485529 138.12847727 -0.42277527 136.5799408 C-0.39511964 132.4133557 -0.39150602 128.24706873 -0.39249516 124.08040524 C-0.38934832 119.71216737 -0.36369356 115.34406033 -0.34051514 110.97589111 C-0.30008645 102.72083042 -0.27964544 94.46584846 -0.26654124 86.21070409 C-0.25062651 76.80545587 -0.21219223 67.40034079 -0.17194796 57.99517012 C-0.08972879 38.66346513 -0.03849643 19.33184491 0 0 Z " fill="#38BE2C" transform="translate(664,398)"/>
<path d="M0 0 C14.19 0 28.38 0 43 0 C51.04459065 21.83531747 51.04459065 21.83531747 53.46484375 28.796875 C53.74444443 29.59675842 54.0240451 30.39664185 54.31211853 31.22076416 C55.18879164 33.72997301 56.06321266 36.23995902 56.9375 38.75 C57.54886036 40.50134765 58.16035256 42.25264929 58.77197266 44.00390625 C60.51689029 49.00182403 62.25884085 54.00077182 64 59 C64.47248445 60.35612294 64.94497732 61.71224295 65.41748047 63.06835938 C67.61522859 69.37766791 69.80986086 75.6880462 72 82 C72.29543701 81.06768555 72.59087402 80.13537109 72.89526367 79.17480469 C79.1286504 59.54707411 85.63672058 40.05578363 92.72143555 20.71777344 C92.98538116 19.99722778 93.24932678 19.27668213 93.52127075 18.53430176 C94.23060904 16.60173679 94.94340795 14.670443 95.65649414 12.73925781 C97.17351853 8.51706163 98.58125747 4.25622759 100 0 C114.19 0 128.38 0 143 0 C140.04497214 8.274078 137.28765627 15.76496754 133.58056641 23.59130859 C130.91221419 29.34594771 128.52592283 35.21693688 126.10821533 41.08026123 C124.48603711 45.01316968 122.85471354 48.94227647 121.22265625 52.87109375 C120.88159851 53.6922467 120.54054077 54.51339966 120.18914795 55.35943604 C115.86771393 65.74612891 111.44582934 76.09008828 107.03182983 86.43768311 C102.40126708 97.29680879 97.81413828 108.16792162 93.42236328 119.12646484 C91.09817753 124.90182247 91.09817753 124.90182247 90 126 C87.1156618 126.08865208 84.25537842 126.11521296 81.37109375 126.09765625 C80.07474754 126.09553383 80.07474754 126.09553383 78.75221252 126.09336853 C75.98060708 126.08775239 73.2090812 126.07519719 70.4375 126.0625 C68.5631522 126.05748708 66.68880315 126.05292381 64.81445312 126.04882812 C60.20960456 126.03777772 55.60481579 126.0205023 51 126 C39.29566943 97.7168202 27.63556954 69.41614955 16.07177734 41.07519531 C14.37848617 36.92572445 12.68173534 32.77767924 10.98382568 28.63009644 C9.75208409 25.6198179 8.52263266 22.60860833 7.29388428 19.59710693 C6.73005457 18.21640528 6.16533951 16.8360648 5.59967041 15.45611572 C4.83344987 13.58636125 4.0709196 11.71509577 3.30859375 9.84375 C2.88376709 8.80412109 2.45894043 7.76449219 2.02124023 6.69335938 C1 4 1 4 0 0 Z " fill="#038DE3" transform="translate(1319,454)"/>
<path d="M0 0 C43.37383178 0 43.37383178 0 57 12 C57.66773438 12.55171875 58.33546875 13.1034375 59.0234375 13.671875 C68.80913356 22.44525767 74.16209168 36.03237124 75 49 C75.83609385 67.03573879 73.38932901 83.35599745 61.625 97.75 C57.52178107 102.02650722 53.2917859 104.89522985 48.0625 107.5625 C47.11528076 108.04638184 47.11528076 108.04638184 46.14892578 108.54003906 C31.69404487 115.30397066 15.45932573 113 0 113 C0 75.71 0 38.42 0 0 Z " fill="#FCFDFD" transform="translate(1067,433)"/>
<path d="M0 0 C1.32 0.66 2.64 1.32 4 2 C4 12.23 4 22.46 4 33 C5.98 33.66 7.96 34.32 10 35 C11.99601732 36.0344894 13.9566802 37.14019346 15.875 38.3125 C17.32519531 39.17294922 17.32519531 39.17294922 18.8046875 40.05078125 C21 42 21 42 21.3203125 44.73046875 C21.21460938 45.47941406 21.10890625 46.22835937 21 47 C20.34 47 19.68 47 19 47 C19 48.65 19 50.3 19 52 C25.27 52 31.54 52 38 52 C38 75.76 38 99.52 38 124 C13.25 124 -11.5 124 -37 124 C-37 100.24 -37 76.48 -37 52 C-26.77 52 -16.54 52 -6 52 C-6 51.01 -6 50.02 -6 49 C-9.96 48.34 -13.92 47.68 -18 47 C-18 45.35 -18 43.7 -18 42 C-16.27734375 40.33984375 -16.27734375 40.33984375 -13.9375 38.9375 C-13.18339844 38.47214844 -12.42929687 38.00679688 -11.65234375 37.52734375 C-9 36 -9 36 -5.24609375 34.796875 C-3.33065815 33.84904205 -3.33065815 33.84904205 -2 32 C-0.96674707 26.78693156 -1.06385406 21.6010363 -1.125 16.3125 C-1.11828145 14.13832781 -1.10202074 11.96442482 -1.08297729 9.79032898 C-1.07085082 7.82550381 -1.08200416 5.86057646 -1.09423828 3.89575195 C-1 1 -1 1 0 0 Z " fill="#0889DF" transform="translate(334,254)"/>
<path d="M0 0 C0 37.95 0 75.9 0 115 C-6.6 115 -13.2 115 -20 115 C-20.1546875 111.844375 -20.1546875 111.844375 -20.3125 108.625 C-21.12795946 97.82831681 -23.20039341 89.84460432 -31 82 C-37.67252762 76.66426302 -43.822195 73.98588103 -52.3125 72.875 C-53.56675781 72.70742188 -54.82101562 72.53984375 -56.11328125 72.3671875 C-57.54220703 72.18542969 -57.54220703 72.18542969 -59 72 C-61.24764514 43.72489015 -61.24764514 43.72489015 -56.59765625 38.1328125 C-53.96188592 35.88316345 -50.99246498 34.35252771 -47.85546875 32.91015625 C-44.76516352 31.39428021 -42.12336869 29.30433619 -39.375 27.25 C-38.21157204 26.42175207 -37.0461306 25.59632667 -35.87890625 24.7734375 C-31.3169678 21.52806372 -26.81584001 18.20096448 -22.3125 14.875 C-21.50159912 14.27703613 -20.69069824 13.67907227 -19.85522461 13.06298828 C-16.36949969 10.49179076 -12.88661781 7.91708352 -9.4140625 5.328125 C-8.43179688 4.60109375 -7.44953125 3.8740625 -6.4375 3.125 C-5.61121094 2.50882812 -4.78492188 1.89265625 -3.93359375 1.2578125 C-2 0 -2 0 0 0 Z " fill="#0778D8" transform="translate(446,306)"/>
<path d="M0 0 C7.21031694 0.16022927 12.47476074 3.53918183 18 8 C26.87459749 17.46945275 28.4702404 28.68319373 28.3984375 41.23828125 C28.40274277 42.92488106 28.40274277 42.92488106 28.40713501 44.64555359 C28.40916242 47.00272124 28.40372606 49.35990623 28.39111328 51.71704102 C28.37496547 55.32020488 28.3910467 58.92225997 28.41015625 62.52539062 C28.40817506 64.8255233 28.40433396 67.12565528 28.3984375 69.42578125 C28.40451019 70.49774246 28.41058289 71.56970367 28.4168396 72.67414856 C28.35757 78.97386285 27.93795226 83.7789638 23.5 88.64453125 C19.0607844 92.10110798 16.21669897 93.12556622 10.66596985 93.12025452 C9.00640259 93.12231651 9.00640259 93.12231651 7.31330872 93.12442017 C6.0991478 93.12082489 4.88498688 93.11722961 3.6340332 93.11352539 C2.35587738 93.11367142 1.07772156 93.11381744 -0.23916626 93.1139679 C-3.74508917 93.11425512 -7.25097795 93.10837044 -10.75689292 93.10139394 C-14.42043113 93.09514799 -18.0839701 93.09455562 -21.74751282 93.09336853 C-28.68540846 93.09025889 -35.62328837 93.08205042 -42.56117707 93.07201904 C-50.45952225 93.06084654 -58.35786816 93.05534458 -66.25621927 93.05032361 C-82.50415539 93.03986752 -98.75207569 93.02227515 -115 93 C-115 92.34 -115 91.68 -115 91 C-112.23510821 90.0783694 -109.96236821 89.69801376 -107.08203125 89.38671875 C-106.08679443 89.27529541 -105.09155762 89.16387207 -104.06616211 89.04907227 C-102.99245361 88.92975342 -101.91874512 88.81043457 -100.8125 88.6875 C-49.78794993 83.68662386 -49.78794993 83.68662386 -8 57 C4.64777057 40.96761478 2.00952289 19.06567312 0 0 Z " fill="#059EEA" transform="translate(528,437)"/>
<path d="M0 0 C7.95846499 5.46169166 11.4458002 12.4748509 13.5 21.71875 C15.47416473 34.67420607 14.30323823 47.87217122 7 59 C2.42496653 64.077432 -2.94078739 67.6825639 -9.83984375 68.3984375 C-11.20572882 68.40631004 -12.57179025 68.39825712 -13.9375 68.375 C-14.61490234 68.38660156 -15.29230469 68.39820313 -15.99023438 68.41015625 C-22.78856994 68.3710479 -28.44955576 66.20019382 -33.5859375 61.640625 C-42.79384712 50.95741494 -42.77669092 36.69277602 -42.1953125 23.41796875 C-41.79347405 18.44320874 -40.4325718 14.32541674 -38 10 C-37.5875 9.25621094 -37.175 8.51242187 -36.75 7.74609375 C-28.75083254 -4.59353105 -12.53875992 -6.49328639 0 0 Z " fill="#FBFDFB" transform="translate(804,484)"/>
<path d="M0 0 C0.886875 0.5775 1.77375 1.155 2.6875 1.75 C10.5871009 9.43609818 13.00593851 19.47411822 13.5 30.25 C13.21533092 41.00272765 9.9175313 53.36523767 2 61 C-5.81458011 67.31817115 -14.2491428 67.94246203 -24 67 C-30.58762256 65.28526464 -35.31906856 60.5910364 -39 55 C-41.63763032 48.42966227 -41.33615277 41.89864177 -41.31567383 34.94262695 C-41.31252335 32.70408985 -41.33597319 30.46688888 -41.36132812 28.22851562 C-41.40010145 19.78616774 -41.3976975 11.85385358 -36.38671875 4.6953125 C-26.36505803 -4.5660843 -11.94582321 -8.03831094 0 0 Z " fill="#FBFDFB" transform="translate(954,485)"/>
<path d="M0 0 C14.85 0 29.7 0 45 0 C45 15.18 45 30.36 45 46 C40.38 48.31 35.76 50.62 31 53 C22.89345268 60.62257434 20.20475172 68.7892611 19.4375 79.75 C19.293125 81.8125 19.14875 83.875 19 86 C12.73 86 6.46 86 0 86 C0 57.62 0 29.24 0 0 Z " fill="#0571D4" transform="translate(235,335)"/>
<path d="M0 0 C1.07111023 -0.00890762 2.14222046 -0.01781525 3.24578857 -0.0269928 C6.76271717 -0.04818661 10.27779567 -0.02601606 13.79467773 -0.0012207 C16.25129889 -0.00272418 18.70791956 -0.00615681 21.16453552 -0.01142883 C26.30313076 -0.01575325 31.44109691 0.0010273 36.57958984 0.03320312 C43.15584715 0.07300309 49.73092657 0.06367022 56.30722141 0.03896809 C61.37657781 0.02476614 66.44566043 0.03488664 71.51499748 0.0524807 C73.93941532 0.05831745 76.36386131 0.0570475 78.78827095 0.04845619 C82.17979044 0.04043864 85.56959988 0.06477576 88.9609375 0.09765625 C89.95596786 0.08910614 90.95099823 0.08055603 91.97618103 0.07174683 C99.30164666 0.19392895 104.10939076 2.15565772 109.43889713 7.20297718 C115.16394098 13.53423126 115.19035856 20.06930284 115.04077148 28.13549805 C115.03174805 29.06233398 115.02272461 29.98916992 115.01342773 30.9440918 C114.9900025 33.21633964 114.95413622 35.48845334 114.91577148 37.76049805 C108.64577148 37.76049805 102.37577148 37.76049805 95.91577148 37.76049805 C95.72045898 34.24487305 95.52514648 30.72924805 95.32983398 27.21362305 C94.95773547 24.11046184 94.66122508 22.30149852 92.91577148 19.76049805 C89.05999661 17.18998146 85.86547416 17.4577141 81.39282227 17.45410156 C80.5225943 17.44577805 79.65236633 17.43745453 78.75576782 17.42887878 C75.87416125 17.4047502 72.99278091 17.39600325 70.11108398 17.3894043 C68.10952688 17.38044025 66.10797049 17.37131845 64.10641479 17.36204529 C59.90824758 17.34554504 55.71016022 17.33785327 51.51196289 17.33496094 C46.13252796 17.32957561 40.7538434 17.29189362 35.37462044 17.24621677 C31.23962667 17.21647411 27.1048142 17.20923799 22.96972275 17.20823479 C20.98656654 17.20402706 19.00341006 17.19157067 17.02035904 17.17071724 C14.24551472 17.14386032 11.47241769 17.14861104 8.69750977 17.16113281 C7.87863281 17.14629852 7.05975586 17.13146423 6.21606445 17.11618042 C2.00041888 17.1703518 0.3703897 17.41221691 -3.08889771 20.06236267 C-5.63834528 23.50978836 -5.85923358 26.43726183 -5.89672852 30.57299805 C-5.98954102 34.13081055 -5.98954102 34.13081055 -6.08422852 37.76049805 C-12.35422852 37.76049805 -18.62422852 37.76049805 -25.08422852 37.76049805 C-25.22030387 34.27999275 -25.31885847 30.80490165 -25.39672852 27.32299805 C-25.43862305 26.34911133 -25.48051758 25.37522461 -25.52368164 24.37182617 C-25.64234666 17.27565828 -24.54815758 12.35671554 -20.08422852 6.76049805 C-13.79106824 1.08775005 -8.28302625 -0.11441375 0 0 Z " fill="#70DF07" transform="translate(295.084228515625,391.239501953125)"/>
<path d="M0 0 C8.1728644 2.0432161 16.15559933 4.16167504 24.1875 6.625 C25.22197266 6.93695313 26.25644531 7.24890625 27.32226562 7.5703125 C28.79276367 8.01890625 28.79276367 8.01890625 30.29296875 8.4765625 C31.61590942 8.8799585 31.61590942 8.8799585 32.96557617 9.29150391 C35 10 35 10 36 11 C36.0942174 13.11681317 36.11742761 15.23680758 36.11352539 17.35571289 C36.11367142 18.01910172 36.11381744 18.68249054 36.1139679 19.36598206 C36.11326881 21.56823956 36.10547665 23.77041345 36.09765625 25.97265625 C36.09579206 27.49580336 36.09436816 29.01895107 36.09336853 30.542099 C36.08954346 34.55837651 36.07971328 38.57461808 36.06866455 42.59088135 C36.0566555 47.40579739 36.05204814 52.22072544 36.04621124 57.03565216 C36.03650151 64.35712647 36.01734491 71.67852185 36 79 C24.12 79 12.24 79 0 79 C0 52.93 0 26.86 0 0 Z " fill="#046BD2" transform="translate(459,342)"/>
<path d="M0 0 C11.22 0 22.44 0 34 0 C35.85112744 4.62781861 36.24566297 6.7417842 36.22705078 11.53442383 C36.22689972 12.83539505 36.22674866 14.13636627 36.22659302 15.47676086 C36.21638124 16.88685257 36.20594927 18.29694269 36.1953125 19.70703125 C36.19157959 21.15719914 36.18873393 22.60736957 36.18673706 24.05754089 C36.17912249 27.86338334 36.15949289 31.6690717 36.1373291 35.47485352 C36.11321463 40.04705369 36.10407931 44.61930556 36.09242249 49.19155121 C36.07306704 56.12780778 36.0347296 63.06372665 36 70 C47.88 70 59.76 70 72 70 C72.495 68.515 72.495 68.515 73 67 C73 68.32 73 69.64 73 71 C48.91 71 24.82 71 0 71 C0 47.57 0 24.14 0 0 Z " fill="#0062D0" transform="translate(298,306)"/>
<path d="M0 0 C3.82280004 0.58635301 6.61466801 1.696478 9.95703125 3.625 C11.365896 4.43046265 11.365896 4.43046265 12.80322266 5.25219727 C13.79628418 5.82897217 14.7893457 6.40574707 15.8125 7 C17.89964679 8.19677642 19.98688664 9.39339058 22.07421875 10.58984375 C23.60054932 11.46938721 23.60054932 11.46938721 25.15771484 12.36669922 C28.79860981 14.45891596 32.45959928 16.51364979 36.125 18.5625 C42.57567588 22.18513122 49.00917403 25.83787759 55.4375 29.5 C56.36900879 30.02924072 57.30051758 30.55848145 58.26025391 31.10375977 C59.12183105 31.59545654 59.9834082 32.08715332 60.87109375 32.59375 C61.64380615 33.03396484 62.41651855 33.47417969 63.21264648 33.92773438 C65 35 65 35 66 36 C66.04092937 38.33297433 66.04241723 40.66705225 66 43 C54.50331664 49.63557412 42.95681952 56.15743306 31.27978516 62.47070312 C23.61625156 66.62766007 16.05018095 70.94416357 8.5234375 75.34375 C7.69585937 75.82328125 6.86828125 76.3028125 6.015625 76.796875 C4.92169434 77.43641113 4.92169434 77.43641113 3.80566406 78.08886719 C2 79 2 79 0 79 C-1.00460531 76.87717331 -2.00355602 74.75166979 -3 72.625 C-3.556875 71.44164062 -4.11375 70.25828125 -4.6875 69.0390625 C-6 66 -6 66 -6 64 C-5.41847168 63.69932617 -4.83694336 63.39865234 -4.23779297 63.08886719 C10.2767852 55.57456982 24.68300021 47.88417341 39 40 C35.75133592 37.28701019 32.55937023 35.06741293 28.82421875 33.08203125 C27.83808594 32.55375732 26.85195313 32.0254834 25.8359375 31.48120117 C24.79695313 30.93052979 23.75796875 30.3798584 22.6875 29.8125 C20.53460397 28.65988514 18.38226202 27.50623478 16.23046875 26.3515625 C15.17520996 25.78598633 14.11995117 25.22041016 13.03271484 24.63769531 C8.82863181 22.36744986 4.65868714 20.03965925 0.5 17.6875 C-0.16942627 17.30891846 -0.83885254 16.93033691 -1.52856445 16.5402832 C-3.01998323 15.69517933 -4.5101644 14.84789173 -6 14 C-4.85112887 10.38778356 -3.61667691 6.99224203 -1.875 3.625 C-1.34519531 2.59246094 -1.34519531 2.59246094 -0.8046875 1.5390625 C-0.53914063 1.03117188 -0.27359375 0.52328125 0 0 Z " fill="#67849D" transform="translate(386,567)"/>
<path d="M0 0 C2.42334061 1.20216839 2.94016697 2.62720766 3.99365234 5.08398438 C4.34041016 5.85226562 4.68716797 6.62054687 5.04443359 7.41210938 C5.82431875 10.3785437 5.63777664 11.92286074 4.68115234 14.83398438 C2.66601562 16.42041016 2.66601562 16.42041016 0.00146484 17.77929688 C-0.98208984 18.29403564 -1.96564453 18.80877441 -2.97900391 19.33911133 C-4.03990234 19.87366943 -5.10080078 20.40822754 -6.19384766 20.95898438 C-8.3800098 22.0984853 -10.56488884 23.24045097 -12.74853516 24.38476562 C-13.8477832 24.95662598 -14.94703125 25.52848633 -16.07958984 26.11767578 C-20.89851853 28.67096706 -25.61336667 31.3910554 -30.31884766 34.14648438 C-31.1307959 34.62037598 -31.94274414 35.09426758 -32.77929688 35.58251953 C-34.62759807 36.66329552 -36.4735312 37.74812009 -38.31884766 38.83398438 C-35.42693843 41.10907605 -32.48430235 42.92119031 -29.24072266 44.65429688 C-28.25136719 45.18579346 -27.26201172 45.71729004 -26.24267578 46.26489258 C-25.1953125 46.82394287 -24.14794922 47.38299316 -23.06884766 47.95898438 C-13.42199109 53.14264154 -3.83657742 58.4172764 5.68115234 63.83398438 C5.13625012 67.79169529 4.31652755 71.09415329 2.61865234 74.70898438 C2.25642578 75.49015625 1.89419922 76.27132812 1.52099609 77.07617188 C1.10527344 77.94628906 1.10527344 77.94628906 0.68115234 78.83398438 C-4.95870917 77.26685 -9.62339158 74.522338 -14.63134766 71.58398438 C-16.50310787 70.49955319 -18.37553316 69.41626935 -20.24853516 68.33398438 C-21.72531738 67.47933594 -21.72531738 67.47933594 -23.23193359 66.60742188 C-28.54759239 63.55356665 -33.90283045 60.57081094 -39.25634766 57.58398438 C-47.97189287 52.71525461 -56.66811239 47.8170555 -65.31884766 42.83398438 C-65.31884766 40.52398438 -65.31884766 38.21398437 -65.31884766 35.83398438 C-23.07275391 11.69335938 -23.07275391 11.69335938 -19.74511719 9.8046875 C-17.3115089 8.40493789 -14.90065399 6.98587287 -12.49804688 5.53515625 C-11.86672348 5.15957581 -11.23540009 4.78399536 -10.58494568 4.39703369 C-9.3699723 3.67347881 -8.16067026 2.94028804 -6.95814514 2.19622803 C-4.51644313 0.75385728 -2.87713113 -0.20598538 0 0 Z " fill="#67849D" transform="translate(288.31884765625,567.166015625)"/>
<path d="M0 0 C0 18.15 0 36.3 0 55 C-11.22 55 -22.44 55 -34 55 C-34 40.15 -34 25.3 -34 10 C-28.72 8.35 -23.44 6.7 -18 5 C-16.35257813 4.47792969 -14.70515625 3.95585937 -13.0078125 3.41796875 C-12.01587891 3.10375977 -12.01587891 3.10375977 -11.00390625 2.78320312 C-9.69598137 2.3685284 -8.38873842 1.95169921 -7.08203125 1.53320312 C-2.22445437 0 -2.22445437 0 0 0 Z " fill="#0564D0" transform="translate(222,366)"/>
<path d="M0 0 C0.79075928 0.00523682 1.58151855 0.01047363 2.39624023 0.01586914 C3.67724609 0.02070312 3.67724609 0.02070312 4.98413086 0.02563477 C5.88196289 0.03401367 6.77979492 0.04239258 7.70483398 0.05102539 C8.6065332 0.05553711 9.50823242 0.06004883 10.43725586 0.06469727 C12.67234712 0.07652315 14.90730835 0.09300319 17.14233398 0.11352539 C15.5800497 9.67892239 12.45344923 18.59665055 9.32983398 27.73852539 C8.27893795 30.83396246 7.23140012 33.9305261 6.18530273 37.02758789 C5.92766144 37.78955475 5.67002014 38.55152161 5.40457153 39.33657837 C1.14595062 51.98307039 -2.68553143 64.76465627 -6.52563477 77.54321289 C-6.81567383 78.50227539 -7.10571289 79.46133789 -7.40454102 80.44946289 C-7.66074219 81.30072754 -7.91694336 82.15199219 -8.1809082 83.02905273 C-8.85766602 85.11352539 -8.85766602 85.11352539 -9.85766602 87.11352539 C-16.12766602 87.11352539 -22.39766602 87.11352539 -28.85766602 87.11352539 C-28.12320861 82.70678098 -27.28429136 78.92669488 -25.96704102 74.71118164 C-25.39663086 72.87910156 -25.39663086 72.87910156 -24.81469727 71.01000977 C-24.61569824 70.37796631 -24.41669922 69.74592285 -24.21166992 69.09472656 C-23.61949835 67.21361241 -23.03344062 65.33057712 -22.44750977 63.44750977 C-20.50271121 57.22610569 -18.50329664 51.02828067 -16.42016602 44.85180664 C-13.18790237 35.21475599 -10.28482103 25.47916146 -7.3581543 15.74584961 C-6.63670721 13.34936189 -5.91146646 10.95404799 -5.18579102 8.55883789 C-4.85614349 7.45597946 -4.85614349 7.45597946 -4.51983643 6.33084106 C-2.64767568 0.16180434 -2.64767568 0.16180434 0 0 Z " fill="#68849C" transform="translate(341.857666015625,559.886474609375)"/>
<path d="M0 0 C1.34644592 -0.00472824 1.34644592 -0.00472824 2.72009277 -0.009552 C4.18412537 -0.00651566 4.18412537 -0.00651566 5.67773438 -0.00341797 C6.67276978 -0.00437469 7.66780518 -0.00533142 8.69299316 -0.00631714 C10.80135155 -0.00699907 12.90971203 -0.0051439 15.01806641 -0.00097656 C18.25753465 0.0043715 21.49686423 -0.00092114 24.73632812 -0.00732422 C26.77929718 -0.00666344 28.82226615 -0.00538228 30.86523438 -0.00341797 C31.8412561 -0.0054422 32.81727783 -0.00746643 33.82287598 -0.009552 C34.72050659 -0.00639984 35.61813721 -0.00324768 36.54296875 0 C37.73424377 0.00119339 37.73424377 0.00119339 38.94958496 0.00241089 C40.77148438 0.12939453 40.77148438 0.12939453 41.77148438 1.12939453 C41.87151727 3.26292627 41.90229485 5.39976995 41.90429688 7.53564453 C41.90558594 8.83630859 41.906875 10.13697266 41.90820312 11.47705078 C41.9061084 12.15783691 41.90401367 12.83862305 41.90185547 13.54003906 C41.89650678 15.62067968 41.90180117 17.70110442 41.90820312 19.78173828 C41.90691406 21.08240234 41.905625 22.38306641 41.90429688 23.72314453 C41.90316895 24.92648437 41.90204102 26.12982422 41.90087891 27.36962891 C41.77148438 30.12939453 41.77148438 30.12939453 40.77148438 31.12939453 C39.36473218 31.22744304 37.95313302 31.25737639 36.54296875 31.25878906 C35.19652283 31.2635173 35.19652283 31.2635173 33.82287598 31.26834106 C32.35884338 31.26530472 32.35884338 31.26530472 30.86523438 31.26220703 C29.37268127 31.26364212 29.37268127 31.26364212 27.84997559 31.2651062 C25.7416172 31.26578813 23.63325672 31.26393297 21.52490234 31.25976562 C18.2854341 31.25441756 15.04610452 31.25971021 11.80664062 31.26611328 C9.76367157 31.2654525 7.7207026 31.26417134 5.67773438 31.26220703 C4.70171265 31.26423126 3.72569092 31.26625549 2.72009277 31.26834106 C1.82246216 31.2651889 0.92483154 31.26203674 0 31.25878906 C-0.79418335 31.25799347 -1.5883667 31.25719788 -2.40661621 31.25637817 C-4.22851562 31.12939453 -4.22851562 31.12939453 -5.22851562 30.12939453 C-5.32854852 27.9958628 -5.3593261 25.85901912 -5.36132812 23.72314453 C-5.36261719 22.42248047 -5.36390625 21.12181641 -5.36523438 19.78173828 C-5.36313965 19.10095215 -5.36104492 18.42016602 -5.35888672 17.71875 C-5.35353803 15.63810938 -5.35883242 13.55768464 -5.36523438 11.47705078 C-5.36394531 10.17638672 -5.36265625 8.87572266 -5.36132812 7.53564453 C-5.3602002 6.33230469 -5.35907227 5.12896484 -5.35791016 3.88916016 C-5.15439441 -0.45148514 -3.93322894 0.00394021 0 0 Z " fill="#6B879F" transform="translate(320.228515625,510.87060546875)"/>
<path d="M0 0 C3.63 0 7.26 0 11 0 C14.7073719 7.20289398 17.96722744 14.48904838 21 22 C23.17947917 19.82052083 23.82853191 18.27567673 24.9453125 15.4296875 C25.29980469 14.53378906 25.65429688 13.63789062 26.01953125 12.71484375 C26.38433594 11.77769531 26.74914062 10.84054687 27.125 9.875 C27.49753906 8.93011719 27.87007812 7.98523438 28.25390625 7.01171875 C29.17393336 4.67626533 30.08908083 2.33901761 31 0 C32.81242052 -0.02687279 34.62495233 -0.04633715 36.4375 -0.0625 C37.44683594 -0.07410156 38.45617187 -0.08570313 39.49609375 -0.09765625 C42 0 42 0 43 1 C43.08858646 3.73894085 43.11523479 6.4525327 43.09765625 9.19140625 C43.0962413 10.01124496 43.09482635 10.83108368 43.09336853 11.67576599 C43.08775289 14.30471382 43.07519779 16.93357773 43.0625 19.5625 C43.05748701 21.34049357 43.05292376 23.11848846 43.04882812 24.89648438 C43.03777839 29.26435545 43.02050331 33.63216348 43 38 C40.03 38 37.06 38 34 38 C33.67 30.74 33.34 23.48 33 16 C30.40953522 22.20676289 30.40953522 22.20676289 27.82446289 28.41577148 C27.5021167 29.18477783 27.17977051 29.95378418 26.84765625 30.74609375 C26.51773682 31.53685303 26.18781738 32.3276123 25.84790039 33.14233398 C25 35 25 35 24 36 C22.02 36 20.04 36 18 36 C15.03 29.07 12.06 22.14 9 15 C8.67 22.59 8.34 30.18 8 38 C5.36 38 2.72 38 0 38 C0 25.46 0 12.92 0 0 Z " fill="#6F8CA2" transform="translate(716,637)"/>
<path d="M0 0 C5.84599078 2.76027194 8.09579892 6.58867699 10.9765625 12.1640625 C11.89453125 14.89453125 11.89453125 14.89453125 11.89453125 21.89453125 C-4.27546875 21.89453125 -20.44546875 21.89453125 -37.10546875 21.89453125 C-34.92476134 12.08134789 -32.84459007 6.06051306 -24.48046875 0.33203125 C-16.68162146 -3.88990112 -8.09317069 -3.19352141 0 0 Z " fill="#F6FBFD" transform="translate(1274.10546875,480.10546875)"/>
<path d="M0 0 C22.00552486 0 22.00552486 0 27.8828125 4.4140625 C30.0941608 7.55324925 30.11223763 11.25654486 30 15 C28.39271146 18.80673601 25.90838243 21.12774654 23 24 C23.5775 24.84304688 24.155 25.68609375 24.75 26.5546875 C25.50024193 27.66129435 26.25022874 28.76807419 27 29.875 C28.11375 31.51082031 28.11375 31.51082031 29.25 33.1796875 C31 36 31 36 31 38 C27.74496413 38.81375897 25.22689211 39.00436395 22 38 C18.69883911 34.38986347 14 29.11350555 14 24 C12.02 24 10.04 24 8 24 C8 28.62 8 33.24 8 38 C5.36 38 2.72 38 0 38 C0 25.46 0 12.92 0 0 Z " fill="#6D89A0" transform="translate(817,637)"/>
<path d="M0 0 C2.64 0 5.28 0 8 0 C8.33 4.29 8.66 8.58 9 13 C9.99 12.34 10.98 11.68 12 11 C16.82642815 10.29648674 20.7836545 10.26512459 25 12.8125 C29.53262721 17.77006102 29.41822134 21.32690311 29.32421875 27.8203125 C28.88496333 32.12819097 27.94696116 33.88464106 25 37 C21.64802157 39.23465229 20.42208754 39.27108649 16.5 39.25 C15.06140625 39.25773438 15.06140625 39.25773438 13.59375 39.265625 C11 39 11 39 8 37 C7.505 37.495 7.505 37.495 7 38 C4.69 38 2.38 38 0 38 C0 25.46 0 12.92 0 0 Z " fill="#6A879F" transform="translate(1010,636)"/>
<path d="M0 0 C19 0 19 0 27 4 C29.51698153 6.9102599 29.9511702 8.61633731 30.4375 12.4375 C29.90492391 16.774191 28.89432673 18.73460574 26 22 C20.29321195 25.42407283 15.57929314 25.27038191 9 25 C9 29.29 9 33.58 9 38 C6.03 38 3.06 38 0 38 C0 25.46 0 12.92 0 0 Z " fill="#6E8BA3" transform="translate(1074,637)"/>
<path d="M0 0 C9 0 9 0 11.890625 2.81640625 C12.70860073 4.04468916 13.49471649 5.29470269 14.25 6.5625 C14.64445313 7.17158203 15.03890625 7.78066406 15.4453125 8.40820312 C16.24093576 9.63673903 17.02425665 10.8733318 17.79492188 12.11767578 C19.05543489 14.08658893 20.40965481 15.95851172 21.796875 17.83984375 C24 21 24 21 24 23 C24.66 23 25.32 23 26 23 C26 15.41 26 7.82 26 0 C28.31 0 30.62 0 33 0 C33 12.21 33 24.42 33 37 C25 37 25 37 23.05371094 35.53466797 C22.61833008 34.86064941 22.18294922 34.18663086 21.734375 33.4921875 C21.23679687 32.75226562 20.73921875 32.01234375 20.2265625 31.25 C19.73929688 30.46625 19.25203125 29.6825 18.75 28.875 C17.99589844 27.73417969 17.99589844 27.73417969 17.2265625 26.5703125 C16.28157407 25.13551332 15.34750067 23.69341449 14.42871094 22.24169922 C12.66066002 19.46756328 10.82477263 16.73715895 9 14 C8.67 21.59 8.34 29.18 8 37 C5.36 37 2.72 37 0 37 C0 24.79 0 12.58 0 0 Z " fill="#69869D" transform="translate(862,638)"/>
<path d="M0 0 C2.64 0 5.28 0 8 0 C8.33 0.66 8.66 1.32 9 2 C9.99 1.34 10.98 0.68 12 0 C14.15625 -0.265625 14.15625 -0.265625 16.5 -0.25 C17.2734375 -0.25515625 18.046875 -0.2603125 18.84375 -0.265625 C21 0 21 0 24 2 C24 2.66 24 3.32 24 4 C24.61875 3.34 25.2375 2.68 25.875 2 C30.11595844 -0.7142134 34.07697467 -1.04614288 39 0 C41.79296875 1.265625 41.79296875 1.265625 44 4 C44.62460866 8.09681209 44.46827737 12.11830486 44.3125 16.25 C44.28994141 17.37664063 44.26738281 18.50328125 44.24414062 19.6640625 C44.18524254 22.44405232 44.10304201 25.22135332 44 28 C41.36 28 38.72 28 36 28 C35.67 21.4 35.34 14.8 35 8 C33.02 8 31.04 8 29 8 C27.0243438 10.96348429 26.73623141 11.68020373 26.5859375 15.01171875 C26.54726562 15.76904297 26.50859375 16.52636719 26.46875 17.30664062 C26.42234375 18.48516602 26.42234375 18.48516602 26.375 19.6875 C26.33632812 20.48478516 26.29765625 21.28207031 26.2578125 22.10351562 C26.16367506 24.06863475 26.08075368 26.0342854 26 28 C23.36 28 20.72 28 18 28 C17.98018066 27.43490723 17.96036133 26.86981445 17.93994141 26.28759766 C17.84481764 23.73292003 17.73508942 21.17907459 17.625 18.625 C17.5940625 17.73554687 17.563125 16.84609375 17.53125 15.9296875 C17.49257812 15.07890625 17.45390625 14.228125 17.4140625 13.3515625 C17.36693115 12.17327881 17.36693115 12.17327881 17.31884766 10.97119141 C17.1600535 8.76997061 17.1600535 8.76997061 15 7 C12.39719432 7.32041397 12.39719432 7.32041397 10 8 C9.13580777 10.59257669 8.82419068 12.34037707 8.68359375 15.01171875 C8.64169922 15.76904297 8.59980469 16.52636719 8.55664062 17.30664062 C8.51732422 18.09232422 8.47800781 18.87800781 8.4375 19.6875 C8.39431641 20.48478516 8.35113281 21.28207031 8.30664062 22.10351562 C8.20072632 24.06881447 8.09987449 26.03438496 8 28 C5.36 28 2.72 28 0 28 C0 18.76 0 9.52 0 0 Z " fill="#6C889F" transform="translate(1311,647)"/>
<path d="M0 0 C4.07285527 2.00070083 6.62395531 4.16332727 9 8 C9.77595162 12.64277719 10.09446313 17.72421158 8.015625 22.046875 C5.09676951 25.68643555 2.00698564 27.73927377 -2.5859375 28.3359375 C-8.57011297 28.41974948 -12.40786629 28.25612393 -17 24 C-19.76623223 20.72419867 -20.90401834 18.7678533 -21.4375 14.5 C-20.77277068 9.18216542 -19.00374322 6.18390226 -15.5625 2.125 C-11.05491753 -1.36583455 -5.37755296 -0.80405113 0 0 Z " fill="#6E8BA3" transform="translate(1258,647)"/>
<path d="M0 0 C3.91271318 1.78474636 5.47414901 3.22875187 7.875 6.75 C9.68608661 11.98202799 9.68608661 16.01797201 7.875 21.25 C5.47414901 24.77124813 3.91271318 26.21525364 0 28 C-4.94067603 28.7959978 -9.74248237 29.2086882 -14.26171875 26.7890625 C-17.37111804 24.22071172 -19.43501026 21.74141732 -21 18 C-21.48578712 12.75349908 -20.8850004 9.42366728 -18 5 C-12.92608102 -0.98462239 -7.56961314 -1.11104061 0 0 Z " fill="#6B88A0" transform="translate(987,647)"/>
<path d="M0 0 C8.58 0 17.16 0 26 0 C26 2.31 26 4.62 26 7 C20.06 7 14.12 7 8 7 C8 9.97 8 12.94 8 16 C13.28 16 18.56 16 24 16 C24 17.98 24 19.96 24 22 C18.72 22 13.44 22 8 22 C8 24.97 8 27.94 8 31 C14.27 31 20.54 31 27 31 C27 33.31 27 35.62 27 38 C18.09 38 9.18 38 0 38 C0 25.46 0 12.92 0 0 Z " fill="#69879E" transform="translate(775,637)"/>
<path d="M0 0 C1.1034375 -0.01933594 2.206875 -0.03867187 3.34375 -0.05859375 C7.1570407 0.54077249 8.79552201 1.7281226 11.5 4.4375 C12.45168683 7.29256049 12.6900946 9.34687282 12.81640625 12.32421875 C12.85830078 13.26201172 12.90019531 14.19980469 12.94335938 15.16601562 C12.98267578 16.14248047 13.02199219 17.11894531 13.0625 18.125 C13.10568359 19.11306641 13.14886719 20.10113281 13.19335938 21.11914062 C13.29941654 23.55845546 13.40147714 25.99787113 13.5 28.4375 C10.86 28.4375 8.22 28.4375 5.5 28.4375 C5.5 27.7775 5.5 27.1175 5.5 26.4375 C4.51 27.0975 3.52 27.7575 2.5 28.4375 C-2.29501231 29.06707414 -6.90203948 29.38866697 -11.125 26.875 C-12.98271254 23.58178231 -13.5 21.22504716 -13.5 17.4375 C-11.73358828 14.63560554 -10.46950178 12.92225089 -7.5 11.4375 C-5.45944995 11.36684383 -3.41665743 11.35328024 -1.375 11.375 C-0.27929688 11.38402344 0.81640625 11.39304687 1.9453125 11.40234375 C2.78835938 11.41394531 3.63140625 11.42554688 4.5 11.4375 C4.5 10.1175 4.5 8.7975 4.5 7.4375 C-0.3333472 7.35416643 -4.73692563 7.48488513 -9.5 8.4375 C-10.16 6.7875 -10.82 5.1375 -11.5 3.4375 C-7.56436575 0.66933935 -4.79203237 0.00559817 0 0 Z " fill="#69859D" transform="translate(1151.5,646.5625)"/>
<path d="M0 0 C13.86 0 27.72 0 42 0 C42 34.32 42 68.64 42 104 C41.67 104 41.34 104 41 104 C40.24256524 91.2351019 39.8009044 78.50054618 39.6484375 65.71484375 C39.62523197 63.95316838 39.60184149 62.19149544 39.57827759 60.42982483 C39.53044363 56.7855188 39.48541648 53.14119192 39.44238281 49.49682617 C39.38685616 44.82177033 39.32308565 40.14686577 39.25720787 35.47194576 C39.2073029 31.856167 39.16212613 28.24034099 39.11836624 24.62448311 C39.0968142 22.89843263 39.07366899 21.17240129 39.0489006 19.44639397 C39.0151763 17.05405399 38.98792371 14.66172669 38.96240234 12.26928711 C38.95102737 11.55826843 38.9396524 10.84724976 38.92793274 10.11468506 C38.88577631 5.22844738 38.88577631 5.22844738 40 3 C28.12 3 16.24 3 4 3 C3.33510279 6.32448606 2.87398906 8.75762453 2.84851074 12.01219177 C2.84016708 12.77717484 2.83182343 13.5421579 2.82322693 14.33032227 C2.81904251 15.1564502 2.81485809 15.98257812 2.81054688 16.83374023 C2.79810692 18.15777611 2.79810692 18.15777611 2.78541565 19.50856018 C2.76802313 21.42963821 2.75285413 23.35073737 2.73963928 25.27184868 C2.71836896 28.36398682 2.69133805 31.45603033 2.66296387 34.54811096 C2.6133411 40.06242096 2.56889883 45.57675902 2.52606201 51.09112549 C2.45037401 60.80950022 2.36866051 70.52781755 2.28125 80.24609375 C2.27186401 81.3062608 2.26247803 82.36642784 2.25280762 83.45872116 C2.0452131 106.31054045 1.56276488 129.15446977 1 152 C0.67 152 0.34 152 0 152 C0 101.84 0 51.68 0 0 Z " fill="#7DE63A" transform="translate(664,398)"/>
<path d="M0 0 C0.16865537 4.57128711 0.3290954 9.14276445 0.48217773 13.71459961 C0.53529982 15.26741139 0.59060264 16.82015026 0.64819336 18.37280273 C0.73094381 20.61426066 0.80565221 22.85587022 0.87890625 25.09765625 C0.90594131 25.78336197 0.93297638 26.46906769 0.96083069 27.17555237 C1.09824214 31.68947203 0.65369615 35.42412694 0 40 C-4.95 39.67 -9.9 39.34 -15 39 C-15.27788425 34.88576928 -15.51542222 30.79565338 -15.65917969 26.67700195 C-15.71908286 25.28232084 -15.80066059 23.88837954 -15.90527344 22.49633789 C-16.24786877 17.81588108 -16.25938634 13.57564467 -15 9 C-11.09765015 4.55856714 -6.18430856 0 0 0 Z " fill="#0364CF" transform="translate(402,339)"/>
<path d="M0 0 C0.66 0.33 1.32 0.66 2 1 C2 2.98 2 4.96 2 7 C-0.31 7.33 -2.62 7.66 -5 8 C-5.33 9.32 -5.66 10.64 -6 12 C-3.69 12 -1.38 12 1 12 C1 14.31 1 16.62 1 19 C-1.31 19 -3.62 19 -6 19 C-6 25.93 -6 32.86 -6 40 C-8.64 40 -11.28 40 -14 40 C-14 33.07 -14 26.14 -14 19 C-15.32 19 -16.64 19 -18 19 C-18 16.69 -18 14.38 -18 12 C-16.68 12 -15.36 12 -14 12 C-13.896875 10.9275 -13.79375 9.855 -13.6875 8.75 C-13.02171513 5.11844618 -12.56055171 3.56055171 -10 1 C-6.49852959 -0.1671568 -3.67329964 -0.13357453 0 0 Z " fill="#6E8AA2" transform="translate(1226,635)"/>
<path d="M0 0 C2.97 0 5.94 0 9 0 C9.09957372 4.00171468 9.17179608 8.00294042 9.21972656 12.00561523 C9.23972628 13.36446713 9.26693576 14.72323424 9.30175781 16.08178711 C9.65510719 30.23135099 9.65510719 30.23135099 5 36 C0.34805297 39.10129802 -4.55036056 38.63162937 -10 38 C-13.25 36 -13.25 36 -15 34 C-14.34 32.35 -13.68 30.7 -13 29 C-11.68 29 -10.36 29 -9 29 C-8.67 29.33 -8.34 29.66 -8 30 C-5 30.16666667 -5 30.16666667 -2 30 C-0.14034925 28.14034925 -0.75912451 25.05110881 -0.68359375 22.55859375 C-0.64169922 21.25341797 -0.59980469 19.94824219 -0.55664062 18.60351562 C-0.51682392 17.2148467 -0.47711175 15.82617478 -0.4375 14.4375 C-0.39432011 13.04490817 -0.350706 11.65232972 -0.30664062 10.25976562 C-0.20014124 6.83995199 -0.09813077 3.42006237 0 0 Z " fill="#728EA5" transform="translate(944,637)"/>
<path d="M0 0 C0 2.64 0 5.28 0 8 C2.31 8 4.62 8 7 8 C7 10.31 7 12.62 7 15 C4.69 15 2.38 15 0 15 C0 19.62 0 24.24 0 29 C2.31 29 4.62 29 7 29 C7.33 30.98 7.66 32.96 8 35 C5.57038821 36.2148059 3.83615884 36.23607267 1.125 36.3125 C-0.17050781 36.36857422 -0.17050781 36.36857422 -1.4921875 36.42578125 C-4 36 -4 36 -6.3046875 34.55859375 C-8.84922703 30.71833248 -8.43260776 27.2449603 -8.25 22.75 C-8.23195313 21.90953125 -8.21390625 21.0690625 -8.1953125 20.203125 C-8.14830798 18.13492605 -8.07656724 16.06731559 -8 14 C-9.32 14 -10.64 14 -12 14 C-12 12.02 -12 10.04 -12 8 C-10.68 8 -9.36 8 -8 8 C-8 5.69 -8 3.38 -8 1 C-5.07175348 0.02391783 -3.04386724 -0.08226668 0 0 Z " fill="#6C89A1" transform="translate(1189,639)"/>
<path d="M0 0 C13.2 0 26.4 0 40 0 C40.33 22.11 40.66 44.22 41 67 C43.64 64.69 46.28 62.38 49 60 C55.60493439 55.85888619 63.07521034 52.51970972 71 53 C70.505 53.99 70.505 53.99 70 55 C68.28515625 55.45703125 68.28515625 55.45703125 66.0625 55.8125 C57.55321174 57.56838488 50.96230278 61.50498026 44.7890625 67.546875 C42.82574587 69.14153392 41.43534052 69.47224842 39 70 C38.01660047 62.16806701 37.86828683 54.44120718 37.90234375 46.5546875 C37.9037587 45.30366241 37.90517365 44.05263733 37.90663147 42.76370239 C37.91124907 39.47255224 37.92019947 36.18145311 37.93133545 32.89031982 C37.94165075 29.51803211 37.94620575 26.14573664 37.95117188 22.7734375 C37.96129347 16.18225163 37.98087662 9.59119037 38 3 C26.12 3 14.24 3 2 3 C2.01160156 6.02285156 2.02320313 9.04570312 2.03515625 12.16015625 C2.10972352 38.02960391 1.93652647 63.88482377 1.5 89.75 C1.48804218 90.45882954 1.47608437 91.16765907 1.46376419 91.89796829 C1.31633181 100.59877561 1.16177156 109.29944674 1 118 C0.67 118 0.34 118 0 118 C0 79.06 0 40.12 0 0 Z " fill="#83E533" transform="translate(873,398)"/>
<path d="M0 0 C2.64 0 5.28 0 8 0 C8 12.87 8 25.74 8 39 C5.36 39 2.72 39 0 39 C0 26.13 0 13.26 0 0 Z " fill="#6D89A0" transform="translate(1117,636)"/>
<path d="M0 0 C2.31 0 4.62 0 7 0 C7.33 0.99 7.66 1.98 8 3 C8.804375 2.2575 8.804375 2.2575 9.625 1.5 C12.59358445 -0.37489544 14.55312427 -0.23501425 18 0 C18 2.31 18 4.62 18 7 C17.43410156 7.13277344 16.86820313 7.26554688 16.28515625 7.40234375 C15.18494141 7.66724609 15.18494141 7.66724609 14.0625 7.9375 C13.33160156 8.11152344 12.60070313 8.28554688 11.84765625 8.46484375 C10.00030102 8.83887569 10.00030102 8.83887569 9 10 C8.84417697 11.34015221 8.74955858 12.68758903 8.68359375 14.03515625 C8.64169922 14.84404297 8.59980469 15.65292969 8.55664062 16.48632812 C8.51732422 17.33646484 8.47800781 18.18660156 8.4375 19.0625 C8.39431641 19.91650391 8.35113281 20.77050781 8.30664062 21.65039062 C8.20023298 23.76672037 8.09958269 25.88333813 8 28 C5.36 28 2.72 28 0 28 C0 18.76 0 9.52 0 0 Z " fill="#69869F" transform="translate(1281,647)"/>
<path d="M0 0 C1.13131348 0.00539795 2.26262695 0.0107959 3.42822266 0.01635742 C13.3331917 0.1956874 24.28034798 0.77180905 32.1875 7.4375 C30.95 7.169375 29.7125 6.90125 28.4375 6.625 C27.60476563 6.44582031 26.77203125 6.26664062 25.9140625 6.08203125 C24.12319453 5.65868854 22.34472858 5.17808838 20.5859375 4.63671875 C6.97712371 0.5924093 -7.30101797 1.44142479 -20.8125 5.4375 C-21.87017578 5.70433594 -21.87017578 5.70433594 -22.94921875 5.9765625 C-35.91769182 9.29604151 -47.9794984 18.73572393 -55.8125 29.4375 C-56.51722825 30.75111346 -57.17892408 32.08812838 -57.8125 33.4375 C-58.80824901 35.50205568 -59.80856071 37.56441461 -60.8125 39.625 C-61.5859375 41.22408203 -61.5859375 41.22408203 -62.375 42.85546875 C-63.8125 45.4375 -63.8125 45.4375 -65.8125 46.4375 C-62.47845365 31.7994489 -53.04883972 19.30003816 -40.57421875 11.06640625 C-27.64553686 3.4408612 -14.98332659 -0.137513 0 0 Z " fill="#63DC17" transform="translate(788.8125,450.5625)"/>
<path d="M0 0 C1.875 1.125 1.875 1.125 3 3 C3.65652643 7.43155342 3.48781838 9.31131523 0.875 13 C-2 15 -2 15 -5.1875 15 C-8 14 -8 14 -10 11 C-10.47466138 7.95333623 -10.453457 5.04949831 -10 2 C-7.11336388 -1.77483185 -4.30983434 -1.28378044 0 0 Z " fill="#F4F6F8" transform="translate(985,654)"/>
<path d="M0 0 C2.9375 1 2.9375 1 4.8125 2.6875 C6.30383241 5.75301662 6.41981822 7.62377244 5.9375 11 C4.375 13.9375 4.375 13.9375 1.9375 16 C-1.6875 16 -1.6875 16 -5.0625 15 C-7.51972633 11.31416051 -7.75005754 8.28004572 -7.0625 4 C-4.92234528 0.62514064 -4.01391599 0 0 0 Z " fill="#F6F7F9" transform="translate(1253.0625,653)"/>
<path d="M0 0 C1.9375 1 1.9375 1 3 3 C3.76325088 9.86925795 3.76325088 9.86925795 1.3125 13.5 C-1.48666796 15.31567651 -2.72896614 15.65420677 -6 15 C-8.3125 13.5 -8.3125 13.5 -10 11 C-10.63857688 7.47363655 -10.65841319 4.23936601 -8.9375 1 C-5.86784865 -0.58433618 -3.38318857 -0.36248449 0 0 Z " fill="#F6F8F9" transform="translate(1028,654)"/>
<path d="M0 0 C3.96 0 7.92 0 12 0 C12 3.96 12 7.92 12 12 C8.04 12 4.08 12 0 12 C0 8.04 0 4.08 0 0 Z " fill="#E8F3FB" transform="translate(417,351)"/>
<path d="M0 0 C1.588125 -0.061875 3.17625 -0.12375 4.8125 -0.1875 C6.15248047 -0.23970703 6.15248047 -0.23970703 7.51953125 -0.29296875 C10 0 10 0 11.80078125 1.3203125 C13.64840923 3.90819533 13.39299693 5.92152405 13 9 C8.61501596 11.92332269 5.2225328 11.1356502 0 11 C0 7.37 0 3.74 0 0 Z " fill="#F0F3F5" transform="translate(1082,644)"/>
<path d="M0 0 C1.588125 -0.061875 3.17625 -0.12375 4.8125 -0.1875 C6.15248047 -0.23970703 6.15248047 -0.23970703 7.51953125 -0.29296875 C10 0 10 0 11.80078125 1.35546875 C13.50731102 3.69569361 13.42408618 5.1727588 13 8 C11.80078125 9.64453125 11.80078125 9.64453125 10 11 C7.51953125 11.29296875 7.51953125 11.29296875 4.8125 11.1875 C3.224375 11.125625 1.63625 11.06375 0 11 C0 7.37 0 3.74 0 0 Z " fill="#F4F6F7" transform="translate(825,644)"/>
<path d="M0 0 C9.9 0 19.8 0 30 0 C30 1.65 30 3.3 30 5 C24.06 5 18.12 5 12 5 C11.67 5.66 11.34 6.32 11 7 C11 6.34 11 5.68 11 5 C9.02 5 7.04 5 5 5 C5 4.01 5 3.02 5 2 C3.35 1.67 1.7 1.34 0 1 C0 0.67 0 0.34 0 0 Z " fill="#1DBBF5" transform="translate(323,301)"/>
<path d="M0 0 C3.63 0 7.26 0 11 0 C11 3.63 11 7.26 11 11 C7.37 11 3.74 11 0 11 C0 7.37 0 3.74 0 0 Z " fill="#EFF6FB" transform="translate(253,359)"/>
<path d="M0 0 C-0.33 0.66 -0.66 1.32 -1 2 C14.84 2.495 14.84 2.495 31 3 C31 3.33 31 3.66 31 4 C10.54 4 -9.92 4 -31 4 C-28.01782377 2.01188251 -27.01539128 1.69058875 -23.61328125 1.3671875 C-22.75669922 1.28339844 -21.90011719 1.19960938 -21.01757812 1.11328125 C-20.12490234 1.03464844 -19.23222656 0.95601562 -18.3125 0.875 C-17.43916016 0.78863281 -16.56582031 0.70226562 -15.66601562 0.61328125 C-10.41989828 0.11962122 -5.26835493 -0.08586376 0 0 Z " fill="#0D76D5" transform="translate(444,525)"/>
<path d="M0 0 C2.3828125 1.63671875 2.3828125 1.63671875 4 3 C2.7625 2.731875 1.525 2.46375 0.25 2.1875 C-0.58273437 2.00832031 -1.41546875 1.82914062 -2.2734375 1.64453125 C-4.06430547 1.22118854 -5.84277142 0.74058838 -7.6015625 0.19921875 C-21.31689082 -3.87674502 -35.36891529 -2.85747705 -49 1 C-52.41590074 1.86679763 -54.63403111 2.12198963 -58 1 C-55.9170757 0.35284867 -53.83364461 -0.29267166 -51.75 -0.9375 C-50.58984375 -1.29714844 -49.4296875 -1.65679687 -48.234375 -2.02734375 C-33.48822981 -6.46187292 -14.29933401 -6.05595024 0 0 Z " fill="#6EDC1D" transform="translate(817,455)"/>
<path d="M0 0 C0.66 0 1.32 0 2 0 C2 6.6 2 13.2 2 20 C-4.27 20 -10.54 20 -17 20 C-17 15.38 -17 10.76 -17 6 C-14.64666204 10.70667591 -14.82897962 12.8693886 -15 18 C-10.38 18 -5.76 18 -1 18 C-0.67 12.06 -0.34 6.12 0 0 Z " fill="#69DF1D" transform="translate(408,409)"/>
<path d="M0 0 C0.33 0 0.66 0 1 0 C1 2.31 1 4.62 1 7 C2.32 7 3.64 7 5 7 C5 7.66 5 8.32 5 9 C27.11 9 49.22 9 72 9 C72.33 8.01 72.66 7.02 73 6 C73 7.32 73 8.64 73 10 C48.91 10 24.82 10 0 10 C0 6.7 0 3.4 0 0 Z " fill="#0551C4" transform="translate(298,367)"/>
<path d="M0 0 C-0.33 0.66 -0.66 1.32 -1 2 C-2.71484375 2.45703125 -2.71484375 2.45703125 -4.9375 2.8125 C-13.44678826 4.56838488 -20.03769722 8.50498026 -26.2109375 14.546875 C-28.15310785 16.12435834 -29.55620293 16.59090622 -32 17 C-32.19551338 15.39679026 -32.38111983 13.79237014 -32.5625 12.1875 C-32.71912109 10.84751953 -32.71912109 10.84751953 -32.87890625 9.48046875 C-33 7 -33 7 -32 4 C-30.41727399 5.58272601 -30.65264253 7.38034003 -30.4375 9.5625 C-30.35371094 10.38878906 -30.26992188 11.21507812 -30.18359375 12.06640625 C-30.12300781 12.70449219 -30.06242188 13.34257812 -30 14 C-29.53851562 13.55269531 -29.07703125 13.10539062 -28.6015625 12.64453125 C-20.88441691 5.49168286 -10.91231623 -0.6613525 0 0 Z " fill="#6CDD20" transform="translate(944,451)"/>
<path d="M0 0 C0.66 0 1.32 0 2 0 C1.06002994 9.21170659 -2.01508729 15.88303502 -9 22 C-16.60997123 26.88863248 -27.35671448 25.25174618 -36 25 C-36 24.67 -36 24.34 -36 24 C-34.88882813 23.98582031 -33.77765625 23.97164062 -32.6328125 23.95703125 C-22.11412024 23.67904062 -14.26421249 22.69201548 -6.125 15.4375 C-2.81527878 10.97349878 -1.52521362 5.26582134 0 0 Z " fill="#1DAB52" transform="translate(663,555)"/>
<path d="M0 0 C2.97 0 5.94 0 9 0 C9 2.64 9 5.28 9 8 C6.03 8 3.06 8 0 8 C0 5.36 0 2.72 0 0 Z " fill="#E5F0FA" transform="translate(201,388)"/>
<path d="M0 0 C2.475 0.99 2.475 0.99 5 2 C4.67 2.66 4.34 3.32 4 4 C3.34 4 2.68 4 2 4 C2 15.22 2 26.44 2 38 C1.34 38 0.68 38 0 38 C0 25.46 0 12.92 0 0 Z " fill="#079844" transform="translate(607,570)"/>
<path d="M0 0 C1.134375 0.020625 2.26875 0.04125 3.4375 0.0625 C3.4375 1.0525 3.4375 2.0425 3.4375 3.0625 C5.0875 3.0625 6.7375 3.0625 8.4375 3.0625 C8.4375 3.3925 8.4375 3.7225 8.4375 4.0625 C-3.4425 3.7325 -15.3225 3.4025 -27.5625 3.0625 C-27.5625 2.7325 -27.5625 2.4025 -27.5625 2.0625 C-22.55691072 1.04062531 -17.82614189 0.97595027 -12.75 1.0625 C-10.01483438 1.10797241 -7.29892759 1.10993536 -4.5625 1.0625 C-3.5625 0.0625 -3.5625 0.0625 0 0 Z " fill="#15C5F7" transform="translate(1093.5625,429.9375)"/>
<path d="M0 0 C0.66 0 1.32 0 2 0 C2 1.98 2 3.96 2 6 C6.95 6.33 11.9 6.66 17 7 C17.33 4.69 17.66 2.38 18 0 C18.33 0 18.66 0 19 0 C19 2.97 19 5.94 19 9 C12.73 9 6.46 9 0 9 C0 6.03 0 3.06 0 0 Z " fill="#61DB1C" transform="translate(270,420)"/>
<path d="M0 0 C0.33 0 0.66 0 1 0 C2.01463922 8.71502616 2.08038401 17.23814286 2 26 C8.93 26.495 8.93 26.495 16 27 C16.33 26.34 16.66 25.68 17 25 C17 25.99 17 26.98 17 28 C11.39 28 5.78 28 0 28 C0 18.76 0 9.52 0 0 Z " fill="#0245C4" transform="translate(236,392)"/>
<path d="M0 0 C4.29 0.33 8.58 0.66 13 1 C12.67 2.32 12.34 3.64 12 5 C2.1 5 -7.8 5 -18 5 C-18 4.67 -18 4.34 -18 4 C-10.08 3.67 -2.16 3.34 6 3 C4.02 2.34 2.04 1.68 0 1 C0 0.67 0 0.34 0 0 Z " fill="#C5E3F6" transform="translate(316,301)"/>
<path d="M0 0 C0.33 0 0.66 0 1 0 C1.04934926 5.65998046 1.08569529 11.31983636 1.10986328 16.97998047 C1.11993582 18.90643494 1.13359443 20.83287408 1.15087891 22.75927734 C1.17507241 25.52445252 1.18647036 28.289426 1.1953125 31.0546875 C1.20563507 31.9193161 1.21595764 32.7839447 1.22659302 33.67477417 C1.22699106 35.78453521 1.12265243 37.89380718 1 40 C0.34 40.66 -0.32 41.32 -1 42 C-2.125 37.25 -2.125 37.25 -1 35 C-0.84339117 32.37619687 -0.7417092 29.77475148 -0.68359375 27.1484375 C-0.6524221 25.98738998 -0.6524221 25.98738998 -0.62062073 24.80288696 C-0.55516552 22.32701608 -0.49625913 19.85103798 -0.4375 17.375 C-0.39431093 15.69790552 -0.35069652 14.02082193 -0.30664062 12.34375 C-0.19948829 8.22927692 -0.09820955 4.11469586 0 0 Z " fill="#0053CF" transform="translate(554,629)"/>
<path d="M0 0 C2.05078125 0.03255208 4.1015625 0.06510417 6.15234375 0.09765625 C5.27734375 4.97265625 5.27734375 4.97265625 4.15234375 6.09765625 C2.15276011 6.13846408 0.15189121 6.14019981 -1.84765625 6.09765625 C-2.22984392 4.44150968 -2.56160727 2.77308601 -2.84765625 1.09765625 C-1.84765625 0.09765625 -1.84765625 0.09765625 0 0 Z " fill="#F4F6F7" transform="translate(1149.84765625,662.90234375)"/>
<path d="M0 0 C0.66 0.33 1.32 0.66 2 1 C1.15695313 1.79664063 0.31390625 2.59328125 -0.5546875 3.4140625 C-1.66198782 4.48382721 -2.76872935 5.55417052 -3.875 6.625 C-4.43058594 7.14707031 -4.98617187 7.66914063 -5.55859375 8.20703125 C-9.00186185 11.56732904 -10.8575416 14.18432091 -12 19 C-12.66 19 -13.32 19 -14 19 C-12.87044529 11.57721191 -8.25012067 7.11910162 -3 2 C-2.01 1.34 -1.02 0.68 0 0 Z " fill="#7CE718" transform="translate(135,440)"/>
<path d="M0 0 C0.61328125 1.84765625 0.61328125 1.84765625 1 4 C-0.27358732 5.71275535 -1.61423077 7.37667033 -3 9 C-3.70211894 10.65204456 -4.36971413 12.31923769 -5 14 C-5.97236487 15.6829392 -6.96564444 17.35443434 -8 19 C-9 17 -9 17 -8.3984375 15.1171875 C-5.97226019 9.80182195 -3.2352603 4.86614972 0 0 Z " fill="#5DD128" transform="translate(732,478)"/>
<path d="M0 0 C-2 3 -2 3 -4.125 3.6875 C-7.77989122 4.08477078 -11.32361387 4.06231163 -15 4 C-15.33 3.34 -15.66 2.68 -16 2 C-14.66666667 1.66666667 -13.33333333 1.33333333 -12 1 C-11.4225 0.814375 -10.845 0.62875 -10.25 0.4375 C-6.82374921 -0.22871543 -3.48699202 -0.05811653 0 0 Z " fill="#0A76D8" transform="translate(444,525)"/>
<path d="M0 0 C5.75 -0.125 5.75 -0.125 8 1 C8 2.32 8 3.64 8 5 C5.36 5 2.72 5 0 5 C0 3.35 0 1.7 0 0 Z " fill="#ECF0F3" transform="translate(1148,653)"/>
<path d="M0 0 C-0.51949219 0.31453125 -1.03898437 0.6290625 -1.57421875 0.953125 C-5.59705805 3.42185448 -9.38302836 5.94818018 -13 9 C-13.33 8.01 -13.66 7.02 -14 6 C-12.70982586 5.01886757 -11.41780894 4.04015801 -10.125 3.0625 C-9.04605469 2.24458984 -9.04605469 2.24458984 -7.9453125 1.41015625 C-4.79663879 -0.87231606 -3.68795134 -1.1063854 0 0 Z " fill="#7DE420" transform="translate(288,393)"/>
<path d="M0 0 C0 7.26 0 14.52 0 22 C-0.33 22 -0.66 22 -1 22 C-1.06058594 20.89140625 -1.12117187 19.7828125 -1.18359375 18.640625 C-1.26802951 17.1770718 -1.35267599 15.71353075 -1.4375 14.25 C-1.47681641 13.52039063 -1.51613281 12.79078125 -1.55664062 12.0390625 C-1.83350326 6.94006118 -1.83350326 6.94006118 -3 2 C-3.66 1.67 -4.32 1.34 -5 1 C-2 0 -2 0 0 0 Z " fill="#1C8FE2" transform="translate(222,366)"/>
<path d="M0 0 C-12.5 5.5 -12.5 5.5 -20 4 C-20 3.67 -20 3.34 -20 3 C-19.26394531 2.87882813 -18.52789063 2.75765625 -17.76953125 2.6328125 C-16.79371094 2.46523438 -15.81789063 2.29765625 -14.8125 2.125 C-13.84957031 1.96257813 -12.88664062 1.80015625 -11.89453125 1.6328125 C-8.98098432 1.07999045 -8.98098432 1.07999045 -6.28125 -0.09375 C-3.68036436 -1.12697854 -2.57898273 -0.95517879 0 0 Z " fill="#1876D9" transform="translate(1116,542)"/>
<path d="M0 0 C2 1 2 1 2.60546875 2.7421875 C2.79753906 3.44601562 2.98960938 4.14984375 3.1875 4.875 C4.05794697 7.4047365 4.51988633 8.67206522 6.75 10.1953125 C8.88534606 11.12014131 8.88534606 11.12014131 12 12 C12 12.33 12 12.66 12 13 C9.36 13 6.72 13 4 13 C3.32694982 11.39850114 2.66177773 9.79368971 2 8.1875 C1.62875 7.29417969 1.2575 6.40085937 0.875 5.48046875 C0 3 0 3 0 0 Z " fill="#0B5ECC" transform="translate(1366,567)"/>
<path d="M0 0 C0.99 0.33 1.98 0.66 3 1 C2.67 2.32 2.34 3.64 2 5 C-3.61 5 -9.22 5 -15 5 C-15 4.67 -15 4.34 -15 4 C-13.62714844 3.94392578 -13.62714844 3.94392578 -12.2265625 3.88671875 C-11.03804687 3.82097656 -9.84953125 3.75523437 -8.625 3.6875 C-7.44164062 3.62949219 -6.25828125 3.57148437 -5.0390625 3.51171875 C-4.03617188 3.34285156 -3.03328125 3.17398438 -2 3 C-1.34 2.01 -0.68 1.02 0 0 Z " fill="#0A5CC7" transform="translate(1407,575)"/>
<path d="M0 0 C4.95 0 9.9 0 15 0 C12.17654769 2.82345231 9.92666609 2.67277783 6 3 C2.5625 2.5625 2.5625 2.5625 0 2 C0 1.34 0 0.68 0 0 Z " fill="#36B95D" transform="translate(783,552)"/>
<path d="M0 0 C4.52615993 3.67832017 8.39424999 7.41086363 12 12 C11.34 12.66 10.68 13.32 10 14 C9.52949219 13.37351562 9.05898438 12.74703125 8.57421875 12.1015625 C7.95160156 11.28429687 7.32898438 10.46703125 6.6875 9.625 C6.07261719 8.81289063 5.45773437 8.00078125 4.82421875 7.1640625 C3.00519317 4.80220611 3.00519317 4.80220611 0 3 C0 2.01 0 1.02 0 0 Z " fill="#66D825" transform="translate(984,462)"/>
<path d="M0 0 C0.33 0.99 0.66 1.98 1 3 C3.83269666 4.41634833 6.47466438 4.3463005 9.625 4.5625 C10.81351562 4.64628906 12.00203125 4.73007812 13.2265625 4.81640625 C14.59941406 4.90728516 14.59941406 4.90728516 16 5 C16 5.33 16 5.66 16 6 C10.39 6 4.78 6 -1 6 C-1 1 -1 1 0 0 Z " fill="#056CD2" transform="translate(317,295)"/>
<path d="M0 0 C0.66 0.99 1.32 1.98 2 3 C-3.0022779 10.66742597 -3.0022779 10.66742597 -7 12 C-7.33 11.34 -7.66 10.68 -8 10 C-7.236875 9.278125 -6.47375 8.55625 -5.6875 7.8125 C-3.28866409 5.30209033 -1.64589779 3.03191698 0 0 Z " fill="#135CCE" transform="translate(522,655)"/>
<path d="M0 0 C3.37244652 3.99697365 6.71374722 8.27090179 9 13 C8.67 13.66 8.34 14.32 8 15 C4.48453819 10.51750177 1.35287886 6.22861968 -1 1 C-0.67 0.67 -0.34 0.34 0 0 Z " fill="#20B046" transform="translate(728,546)"/>
<path d="M0 0 C0.33 0 0.66 0 1 0 C1.22415191 2.35359502 1.42959058 4.70648411 1.625 7.0625 C1.74101563 8.37347656 1.85703125 9.68445313 1.9765625 11.03515625 C2.00153472 15.25962268 1.3471837 18.04586159 0 22 C-0.33 22 -0.66 22 -1 22 C-0.67 14.74 -0.34 7.48 0 0 Z " fill="#27BA28" transform="translate(967,508)"/>
<path d="M0 0 C3.96189783 4.23513217 5.43181728 8.547001 7 14 C6.34 14 5.68 14 5 14 C4.15675328 12.421924 3.32576082 10.8372958 2.5 9.25 C2.0359375 8.36828125 1.571875 7.4865625 1.09375 6.578125 C0 4 0 4 0 0 Z " fill="#5BD229" transform="translate(848,481)"/>
<path d="M0 0 C0.66 0 1.32 0 2 0 C0.59155282 3.21524305 -1.10344786 5.32183868 -3.625 7.75 C-4.57246094 8.67039062 -4.57246094 8.67039062 -5.5390625 9.609375 C-6.02117188 10.06828125 -6.50328125 10.5271875 -7 11 C-7.66 10.67 -8.32 10.34 -9 10 C-7.5484451 8.32742645 -6.08855591 6.66208242 -4.625 5 C-3.81289063 4.071875 -3.00078125 3.14375 -2.1640625 2.1875 C-1.44992187 1.465625 -0.73578125 0.74375 0 0 Z " fill="#69DC26" transform="translate(741,467)"/>
<path d="M0 0 C2.475 0.99 2.475 0.99 5 2 C4.67 2.66 4.34 3.32 4 4 C3.34 4 2.68 4 2 4 C1.67 7.96 1.34 11.92 1 16 C0.67 16 0.34 16 0 16 C0 10.72 0 5.44 0 0 Z " fill="#11A244" transform="translate(607,570)"/>
<path d="M0 0 C2.31 0 4.62 0 7 0 C6.67 1.32 6.34 2.64 6 4 C4.02 4 2.04 4 0 4 C0 2.68 0 1.36 0 0 Z " fill="#0556C6" transform="translate(1025,576)"/>
<path d="M0 0 C-0.33 0.66 -0.66 1.32 -1 2 C-2.9609375 2.59765625 -2.9609375 2.59765625 -5.375 3.0625 C-8.02183151 3.58410686 -10.4317625 4.14392083 -13 5 C-13.66 4.34 -14.32 3.68 -15 3 C-13.44033782 2.491217 -11.87710759 1.99336531 -10.3125 1.5 C-9.44238281 1.2215625 -8.57226562 0.943125 -7.67578125 0.65625 C-5.00608323 0.00149195 -2.73603316 -0.11831495 0 0 Z " fill="#71E129" transform="translate(944,451)"/>
<path d="M0 0 C0.66 0 1.32 0 2 0 C1.53199289 4.05606165 1.12046792 7.46588679 -1 11 C-1.66 10.67 -2.32 10.34 -3 10 C-2.01 6.7 -1.02 3.4 0 0 Z " fill="#2EB453" transform="translate(663,555)"/>
<path d="M0 0 C1.32 0.33 2.64 0.66 4 1 C3.2884375 1.804375 3.2884375 1.804375 2.5625 2.625 C0.71813924 5.42842836 0.37543153 7.69620258 0 11 C-0.66 10.34 -1.32 9.68 -2 9 C-1.7578125 6.8359375 -1.7578125 6.8359375 -1.125 4.375 C-0.92132813 3.55773437 -0.71765625 2.74046875 -0.5078125 1.8984375 C-0.34023438 1.27195312 -0.17265625 0.64546875 0 0 Z " fill="#5FD907" transform="translate(289,409)"/>
<path d="M0 0 C-1 1.5 -1 1.5 -3 3 C-5.71846235 3.27345479 -8.25677199 3.13491285 -11 3 C-7.74003139 -0.25996861 -4.40088745 -1.46696248 0 0 Z " fill="#74E42B" transform="translate(770,454)"/>
<path d="M0 0 C3.3 0 6.6 0 10 0 C8.625 2.5 8.625 2.5 7 5 C6.34 5 5.68 5 5 5 C5 4.01 5 3.02 5 2 C3.35 1.67 1.7 1.34 0 1 C0 0.67 0 0.34 0 0 Z " fill="#52C1F5" transform="translate(323,301)"/>
<path d="M0 0 C1.31223496 3.93670488 0.24296256 6.12488144 -1 10 C-1.66 9.67 -2.32 9.34 -3 9 C-2.25 2.25 -2.25 2.25 0 0 Z " fill="#7B93A7" transform="translate(1141,660)"/>
<path d="M0 0 C4.52346473 2.26173236 5.05828666 3.53405933 7 8 C6.01 8.495 6.01 8.495 5 9 C3.35 6.03 1.7 3.06 0 0 Z " fill="#52D01C" transform="translate(809,488)"/>
<path d="M0 0 C0.33 0 0.66 0 1 0 C1.75 2.625 1.75 2.625 2 6 C0.0625 9.375 0.0625 9.375 -2 12 C-3.40907283 9.18185434 -2.50872691 7.82722796 -1.5625 4.875 C-1.27503906 3.96492188 -0.98757813 3.05484375 -0.69140625 2.1171875 C-0.46324219 1.41851562 -0.23507812 0.71984375 0 0 Z " fill="#28B8F7" transform="translate(529,473)"/>
<path d="M0 0 C1.21236328 0.02707031 1.21236328 0.02707031 2.44921875 0.0546875 C3.37154297 0.08949219 3.37154297 0.08949219 4.3125 0.125 C4.3125 0.455 4.3125 0.785 4.3125 1.125 C-3.72321429 3.40178571 -3.72321429 3.40178571 -7.6875 2.125 C-4.48369983 -0.01086678 -3.66810033 -0.10632175 0 0 Z " fill="#62D90B" transform="translate(776.6875,451.875)"/>
<path d="M0 0 C1.32 0.33 2.64 0.66 4 1 C2.515 4.96 2.515 4.96 1 9 C0.67 9 0.34 9 0 9 C0 6.03 0 3.06 0 0 Z " fill="#1379DD" transform="translate(188,376)"/>
<path d="M0 0 C-4.22949995 2.41685712 -7.12335991 3.34833144 -12 3 C-8.52582963 0.68388642 -4.04642977 -2.02321489 0 0 Z " fill="#2891E2" transform="translate(213,370)"/>
<path d="M0 0 C1.125 3.75 1.125 3.75 0 6 C-0.99 5.67 -1.98 5.34 -3 5 C-3 4.34 -3 3.68 -3 3 C-3.66 2.34 -4.32 1.68 -5 1 C-3.35 0.67 -1.7 0.34 0 0 Z " fill="#7892A8" transform="translate(1154,668)"/>
<path d="M0 0 C0.33 0 0.66 0 1 0 C1.125 2.875 1.125 2.875 1 6 C0.34 6.66 -0.32 7.32 -1 8 C-1.625 5.6875 -1.625 5.6875 -2 3 C-1.34 2.01 -0.68 1.02 0 0 Z " fill="#1F64D4" transform="translate(554,663)"/>
<path d="M0 0 C2.12038635 2.61514317 4.13091744 5.19637616 6 8 C5.01 8.495 5.01 8.495 4 9 C4 8.34 4 7.68 4 7 C3.01 6.67 2.02 6.34 1 6 C0.67 4.02 0.34 2.04 0 0 Z " fill="#32B651" transform="translate(914,538)"/>
</svg>
