<?xml version="1.0" encoding="UTF-8"?>
<svg version="1.1" xmlns="http://www.w3.org/2000/svg" width="1536" height="569">
<path d="M0 0 C506.88 0 1013.76 0 1536 0 C1536 187.77 1536 375.54 1536 569 C1029.12 569 522.24 569 0 569 C0 381.23 0 193.46 0 0 Z " fill="#0D0D2E" transform="translate(0,0)"/>
<path d="M0 0 C0.50881977 2.6652464 1.00720141 5.33178419 1.5 8 C1.64308594 8.74378906 1.78617187 9.48757812 1.93359375 10.25390625 C2.34343882 12.49829592 2.69165941 14.73949347 3 17 C3.10199707 17.72541992 3.20399414 18.45083984 3.30908203 19.19824219 C3.4765625 21.296875 3.4765625 21.296875 3 25 C0.86377889 26.93493584 -0.63525037 27.96798672 -3.125 29.25 C-11.26919743 33.93943244 -18.0683381 39.6905614 -25 46 C-25.68707031 46.61488281 -26.37414062 47.22976562 -27.08203125 47.86328125 C-36.43200425 56.68772883 -43.63330756 67.93867577 -50 79 C-50.33241699 79.56912109 -50.66483398 80.13824219 -51.00732422 80.72460938 C-62.20301298 100.03971819 -69.90850295 122.33552996 -70.30859375 144.7734375 C-70.32385605 145.60634811 -70.33911835 146.43925873 -70.35484314 147.29740906 C-70.63961733 166.39346386 -70.17258455 183.7268476 -64 202 C-63.75443359 202.76441406 -63.50886719 203.52882813 -63.25585938 204.31640625 C-55.35417398 228.65272656 -41.34920922 249.39663108 -24 268 C-23.30261719 268.75152344 -22.60523438 269.50304687 -21.88671875 270.27734375 C3.33433179 296.51276926 38.57579537 311.41168964 74 317 C75.84078125 317.29390625 75.84078125 317.29390625 77.71875 317.59375 C121.14857227 322.70090606 167.67702431 311.23624726 202.35595703 284.30175781 C236.65496823 257.14370499 262.67341661 217.59822083 267.82080078 173.33178711 C268.03811338 170.50405871 268.0954328 167.69117144 268.140625 164.85546875 C268.15996094 163.76685547 268.17929687 162.67824219 268.19921875 161.55664062 C268.23336453 159.29119961 268.25132426 157.02546249 268.25390625 154.75976562 C268.27839844 153.67759766 268.30289062 152.59542969 268.328125 151.48046875 C268.34214355 150.00936646 268.34214355 150.00936646 268.35644531 148.50854492 C269 146 269 146 271.29199219 144.2199707 C276.12630393 142.04208973 279.9187263 141.88813635 285.25 141.9375 C287.14492188 141.95103516 287.14492188 141.95103516 289.078125 141.96484375 C290.04234375 141.97644531 291.0065625 141.98804688 292 142 C292.63558371 175.96624509 292.63558371 175.96624509 289 192 C288.73316406 193.22332031 288.46632813 194.44664062 288.19140625 195.70703125 C287.26205172 199.51945008 286.18924746 203.26248885 285 207 C284.74653809 207.79712402 284.49307617 208.59424805 284.23193359 209.41552734 C277.5578511 229.91587202 268.16591234 248.9000501 255 266 C254.34 266.99 253.68 267.98 253 269 C253.66 269 254.32 269 255 269 C255.61875 269.804375 256.2375 270.60875 256.875 271.4375 C258.72677205 274.0208157 258.72677205 274.0208157 260.875 274.9375 C263.84011697 275.02470932 266.22167971 273.97279062 269 273 C270.051875 274.06927734 270.051875 274.06927734 271.125 275.16015625 C272.08319293 276.12774323 273.04153439 277.09518313 274 278.0625 C274.45761719 278.52849609 274.91523438 278.99449219 275.38671875 279.47460938 C278.05378768 282.1599459 280.78996119 284.70686622 283.66479492 287.16918945 C288.13764899 291.06816899 292.35305405 295.19142571 296.55078125 299.3828125 C297.33140427 300.16010712 298.11202728 300.93740173 298.91630554 301.73825073 C300.55203506 303.36895196 302.18644362 305.0009792 303.81958008 306.63427734 C306.31767162 309.13016706 308.82367497 311.61792915 311.33007812 314.10546875 C312.92496809 315.69742699 314.51938585 317.28985848 316.11328125 318.8828125 C316.86015701 319.62250275 317.60703278 320.36219299 318.37654114 321.1242981 C327.4275431 330.21538444 327.4275431 330.21538444 327.4375 337.8125 C327.25763909 344.17801232 325.95899519 348.83022707 321.57421875 353.52734375 C316.88466051 357.70795769 312.39343209 359.29922891 306.1875 359.4375 C305.21167969 359.47746094 304.23585938 359.51742188 303.23046875 359.55859375 C295.71200108 358.25854432 290.14129275 352.63308682 284.8125 347.5 C284.14541016 346.86707031 283.47832031 346.23414063 282.79101562 345.58203125 C275.85573379 338.95596581 269.09417408 332.15055932 262.35864258 325.32226562 C256.84593921 319.75300273 251.15992595 314.52152701 245.18164062 309.46069336 C243.5 307.9375 243.5 307.9375 241 305 C241.020625 304.030625 241.04125 303.06125 241.0625 302.0625 C240.98518683 298.27415446 240.12613621 297.71981053 237.5 295.125 C236.347071 294.06814842 235.18450659 293.02133476 234 292 C230.88582289 293.38866176 228.7625903 295.01933509 226.3125 297.375 C207.81561606 314.01018458 185.28811618 325.6582897 162 334 C161.33935547 334.24298828 160.67871094 334.48597656 159.99804688 334.73632812 C155.38611003 336.41036104 150.74288976 337.76517671 146 339 C145.1548584 339.22848633 144.3097168 339.45697266 143.43896484 339.69238281 C128.63811989 343.5471227 114.27699503 344.48116483 99.0625 344.5 C98.20761993 344.50440094 97.35273987 344.50880188 96.47195435 344.51333618 C55.29041729 344.60183271 16.32466205 330.94230243 -17 307 C-17.60473145 306.57170898 -18.20946289 306.14341797 -18.83251953 305.70214844 C-34.65026868 294.37893854 -48.88774716 279.94888088 -60 264 C-60.77859375 262.95070313 -61.5571875 261.90140625 -62.359375 260.8203125 C-75.50602557 242.63284094 -85.83501015 219.82451841 -91 198 C-91.2794043 196.82268311 -91.2794043 196.82268311 -91.56445312 195.62158203 C-97.57769479 168.95438402 -97.76044648 139.27835211 -90 113 C-89.70528809 111.98631348 -89.41057617 110.97262695 -89.10693359 109.92822266 C-85.24998795 96.95340136 -80.49413697 84.86481564 -74 73 C-73.53335938 72.06929688 -73.06671875 71.13859375 -72.5859375 70.1796875 C-65.22363821 55.75646959 -54.82810322 42.94825183 -44 31 C-43.04287109 29.9171875 -43.04287109 29.9171875 -42.06640625 28.8125 C-33.80257237 19.97811189 -12.84606985 0 0 0 Z " fill="#4731EB" transform="translate(229,127)"/>
<path d="M0 0 C1.20331624 -0.00256327 2.40663248 -0.00512655 3.64641285 -0.0077675 C6.96919916 -0.0118412 10.29145038 -0.0025171 13.61417174 0.01256669 C17.20370295 0.02556139 20.7932186 0.02113517 24.38276672 0.01885986 C30.59614955 0.01728929 36.80943763 0.02667582 43.02279663 0.04357338 C52.00617734 0.06798821 60.98951239 0.07577119 69.97292268 0.07953735 C84.5490317 0.08609794 99.12509025 0.10604845 113.70117188 0.13444519 C127.85774483 0.16199592 142.01430407 0.18322454 156.17089844 0.19596863 C157.48053031 0.19715088 157.48053031 0.19715088 158.8166194 0.19835702 C163.19678711 0.20227223 167.57695493 0.20606333 171.9571228 0.20979273 C208.27630108 0.24087642 244.595422 0.29370153 280.91455078 0.36076355 C280.291293 1.95877915 279.66405548 3.55524292 279.03515625 5.15104675 C278.68629364 6.04024307 278.33743103 6.92943939 277.97799683 7.84558105 C271.70278392 22.68724203 259.30617679 34.99353284 244.65283203 41.35295105 C237.10407549 44.13123805 230.829465 44.64549412 222.78808594 44.61613464 C221.58232407 44.6197551 220.37656219 44.62337555 219.13426208 44.62710571 C215.84281877 44.63577673 212.55149016 44.63602001 209.26004076 44.63375425 C205.80356385 44.63450524 202.3471584 44.64959263 198.89071655 44.66413879 C187.13208536 44.71102886 175.37346671 44.7350993 163.61474609 44.74162292 C157.11166392 44.74538291 150.60877404 44.76348477 144.10577428 44.79671729 C140.67096367 44.81355659 137.23650267 44.82279316 133.80165482 44.81377792 C129.96741086 44.80669709 126.13397256 44.82401218 122.29980469 44.84660339 C121.17431717 44.83843094 120.04882965 44.83025848 118.88923645 44.82183838 C109.36585026 44.92142941 100.9659027 47.74906427 93.91455078 54.36076355 C85.08112984 64.64910088 84.46603821 76.43520006 84.48217773 89.47087097 C84.47314229 90.96016747 84.46281076 92.44945658 84.45129395 93.93873596 C84.42390676 97.9483074 84.41446454 101.95773704 84.40843987 105.96738982 C84.39900819 110.17012929 84.37280122 114.37276482 84.34843445 118.57543945 C84.30489693 126.51885379 84.27627191 134.46224781 84.25311106 142.40574485 C84.22599074 151.45546481 84.18208366 160.50507953 84.13682234 169.5547241 C84.04415882 188.15668155 83.97239467 206.75866685 83.91455078 225.36076355 C81.35291427 225.37876207 78.79140574 225.39190116 76.22973633 225.40226746 C75.50886589 225.40783157 74.78799545 225.41339569 74.04528046 225.41912842 C68.73493899 225.43523385 63.8699398 225.00032677 58.72705078 223.73576355 C57.71094727 223.52500183 57.71094727 223.52500183 56.67431641 223.3099823 C49.41321912 221.63382872 44.00352409 218.63259738 36.91455078 215.36076355 C36.91455078 158.93076355 36.91455078 102.50076355 36.91455078 44.36076355 C7.21455078 44.36076355 -22.48544922 44.36076355 -53.08544922 44.36076355 C-47.04531912 26.24037325 -37.50406955 12.30086436 -20.08544922 3.36076355 C-13.25751053 0.23143192 -7.4547447 -0.05833334 0 0 Z " fill="#FAFAFA" transform="translate(240.08544921875,204.6392364501953)"/>
<path d="M0 0 C1.05426178 -0.00043808 2.10852356 -0.00087616 3.19473267 -0.00132751 C6.66858641 0.00075729 10.14195353 0.02407448 13.61572266 0.04760742 C16.02853125 0.05320445 18.44134327 0.05747405 20.85415649 0.06047058 C27.19669042 0.07191082 33.53901741 0.10137126 39.88146973 0.13458252 C46.35666098 0.1653009 52.83188575 0.17897972 59.30712891 0.1940918 C72.00643581 0.22624148 84.70559946 0.2768494 97.40478516 0.34057617 C95.42475966 15.15678027 89.08622263 25.93810734 77.78759766 35.55151367 C67.78106327 43.06461654 57.04143822 44.67458565 44.80322266 44.53588867 C43.84074615 44.53305878 42.87826965 44.53022888 41.8866272 44.52731323 C38.8508798 44.51623195 35.81544145 44.49115077 32.77978516 44.46557617 C30.70557071 44.45553077 28.63135157 44.44640766 26.55712891 44.43823242 C21.50623089 44.41633226 16.45556019 44.38188741 11.40478516 44.34057617 C11.42143974 45.41813927 11.42143974 45.41813927 11.43843079 46.51747131 C11.53947113 53.35565903 11.6151695 60.1937323 11.66384602 67.03247929 C11.6897147 70.54672175 11.72468246 74.06033709 11.78198242 77.57421875 C12.25552856 107.41318777 12.25552856 107.41318777 6.40478516 119.34057617 C6.08533936 120.06784912 5.76589355 120.79512207 5.43676758 121.54443359 C-1.01226838 135.46507208 -14.64810729 152.69804552 -28.59521484 159.34057617 C-28.6653916 141.6334551 -28.7182454 123.92637028 -28.75065136 106.21914005 C-28.7661 97.99679469 -28.78715108 89.77453589 -28.8215332 81.55224609 C-28.85149705 74.38312595 -28.8708044 67.21406851 -28.87748033 60.04488748 C-28.8813808 56.25117535 -28.89050531 52.45764259 -28.91240501 48.66398811 C-28.93288078 45.08777345 -28.93902646 41.51181078 -28.93453789 37.93554306 C-28.93574707 36.00851464 -28.95183089 34.08151319 -28.96847534 32.15455627 C-28.93498733 22.6935196 -27.94578146 15.07745039 -21.28271484 7.96557617 C-20.17476563 6.74741211 -20.17476563 6.74741211 -19.04443359 5.50463867 C-13.00522784 0.16856213 -7.7063119 -0.08410227 0 0 Z " fill="#6C14E1" transform="translate(369.59521484375,269.659423828125)"/>
<path d="M0 0 C2.85799048 1.75058908 4.85319941 3.65118304 6.99609375 6.22265625 C7.32609375 3.58265625 7.65609375 0.94265625 7.99609375 -1.77734375 C14.92609375 -1.77734375 21.85609375 -1.77734375 28.99609375 -1.77734375 C29.0640791 8.98491082 29.11903033 19.74702094 29.15153027 30.50944233 C29.16713465 35.50776002 29.18827667 40.50592218 29.22241211 45.50415039 C29.25519295 50.33468831 29.27298601 55.16507736 29.28072548 59.995718 C29.28623555 61.83155851 29.29699473 63.66739159 29.31328392 65.50316811 C29.4336837 79.64443096 28.99884421 93.96681569 18.80859375 104.91015625 C7.99432178 115.07464364 -3.94243925 115.85655265 -18.10546875 115.59765625 C-28.72902388 115.1300996 -36.77395971 111.09565092 -44.00390625 103.22265625 C-46.42826046 100.26797456 -48.00390625 98.18041871 -48.00390625 94.22265625 C-45.51953125 92.3984375 -45.51953125 92.3984375 -42.25390625 90.53515625 C-40.65289063 89.60123047 -40.65289063 89.60123047 -39.01953125 88.6484375 C-36.00390625 87.22265625 -36.00390625 87.22265625 -32.00390625 87.22265625 C-29.62890625 90.03515625 -29.62890625 90.03515625 -28.54296875 91.6171875 C-25.34477368 94.95337576 -21.90890742 96.12307683 -17.3828125 96.62109375 C-7.71316262 96.76257912 -7.71316262 96.76257912 0.99609375 93.22265625 C4.87115101 89.24286772 6.86497381 85.45956238 7.19140625 79.890625 C7.16820312 78.74207031 7.145 77.59351563 7.12109375 76.41015625 C7.10304688 75.24871094 7.085 74.08726562 7.06640625 72.890625 C7.04320312 72.01019531 7.02 71.12976563 6.99609375 70.22265625 C6.53460937 70.69316406 6.073125 71.16367187 5.59765625 71.6484375 C-0.84169898 77.79509476 -7.07015788 80.21026727 -15.94140625 80.66015625 C-26.22069944 80.28900438 -34.92868405 75.54747955 -41.91015625 68.22265625 C-51.66727721 56.64641104 -52.01828456 44.35188065 -51.22705078 29.77978516 C-50.78454454 24.70887661 -49.5408169 20.61143639 -47.00390625 16.22265625 C-46.51792969 15.35769531 -46.03195312 14.49273437 -45.53125 13.6015625 C-35.79782783 -1.88447324 -16.72672727 -7.86974184 0 0 Z " fill="#571FE9" transform="translate(1327.00390625,240.77734375)"/>
<path d="M0 0 C8.6642834 6.33971956 14.83861172 15.41057765 16.9140625 26.1015625 C18.25272222 40.53996372 17.55913981 53.16048333 7.90234375 64.8671875 C0.44038484 72.83831537 -8.62068197 79.38286457 -19.89453125 79.9765625 C-34.23889483 80.26200687 -44.15035761 77.57361514 -54.8515625 67.7109375 C-61.98131081 60.4481715 -66.18000333 50.84858698 -66.7578125 40.640625 C-66.80808594 39.9084375 -66.85835937 39.17625 -66.91015625 38.421875 C-67.35559179 27.16126455 -64.11233673 17.83259722 -57.7578125 8.640625 C-57.1596875 7.733125 -56.5615625 6.825625 -55.9453125 5.890625 C-40.91905437 -9.56495479 -17.87389702 -11.76365108 0 0 Z " fill="#4236F1" transform="translate(1194.7578125,244.359375)"/>
<path d="M0 0 C1.34578125 0.68642578 1.34578125 0.68642578 2.71875 1.38671875 C14.50934654 7.86799546 21.95484734 17.57615534 26.375 30.1875 C28 37 28 37 28 52 C-6.65 52 -41.3 52 -77 52 C-77 33.48391479 -74.97129023 21.46931533 -62 8 C-44.97715584 -6.15412956 -20.02501084 -10.90442401 0 0 Z " fill="#215CF9" transform="translate(377,129)"/>
<path d="M0 0 C9.69202818 7.45289182 14.32662054 16.84253571 16.31640625 28.78125 C16.31640625 33.40125 16.31640625 38.02125 16.31640625 42.78125 C-2.82359375 42.78125 -21.96359375 42.78125 -41.68359375 42.78125 C-38.87115174 52.37847936 -38.87115174 52.37847936 -31.9765625 58.38671875 C-25.87670415 60.96993278 -18.56120873 60.91884682 -12.20703125 59.0546875 C-7.84012642 56.98082922 -4.26025024 54.00024084 -0.68359375 50.78125 C0.58097656 51.73837891 0.58097656 51.73837891 1.87109375 52.71484375 C2.97780093 53.54956357 4.08457526 54.38419437 5.19140625 55.21875 C5.74699219 55.63962891 6.30257812 56.06050781 6.875 56.49414062 C9.96733511 58.83870944 9.96733511 58.83870944 13.31640625 60.78125 C10.99010871 67.72398256 5.74171558 71.87933882 -0.546875 75.37109375 C-11.5295001 80.49830033 -24.91249809 82.13836572 -36.62109375 78.21875 C-48.01027357 73.25866713 -54.75415457 66.23363464 -60.49609375 55.34375 C-65.06010613 41.65171286 -65.15144126 27.83534407 -59.05859375 14.65625 C-54.20648818 5.48200184 -46.74416638 -1.85250404 -36.79296875 -5.1875 C-23.70583655 -8.73878211 -11.59938954 -7.59638994 0 0 Z " fill="#F7F6F7" transform="translate(853.68359375,244.21875)"/>
<path d="M0 0 C5.29795459 4.38565121 9.77790317 9.31939155 11.5625 16.125 C11.97061606 20.87324114 11.91244908 25.61006591 11.85546875 30.37109375 C11.84986543 31.75113969 11.84559881 33.13119165 11.84260559 34.51124573 C11.83121456 38.12316702 11.80179805 41.73471975 11.76849365 45.34649658 C11.73766793 49.04019181 11.72407369 52.73394727 11.70898438 56.42773438 C11.67692172 63.66034281 11.62420203 70.89257256 11.5625 78.125 C5.2925 78.125 -0.9775 78.125 -7.4375 78.125 C-7.4375 75.155 -7.4375 72.185 -7.4375 69.125 C-8.03175781 69.66769531 -8.62601563 70.21039063 -9.23828125 70.76953125 C-18.2523148 78.54991791 -26.5106819 80.79554718 -38.359375 80.47265625 C-46.75038934 79.52494016 -53.51931956 74.98215268 -58.7578125 68.48828125 C-62.73184318 62.08258845 -62.44204398 54.36706125 -61.4375 47.125 C-58.44517743 39.15300099 -51.77738345 34.60527374 -44.29296875 31.12890625 C-36.42075569 27.98303143 -28.90095037 27.99575132 -20.5625 28.0625 C-18.95761719 28.06926758 -18.95761719 28.06926758 -17.3203125 28.07617188 C-14.69265014 28.08790251 -12.06510462 28.10431772 -9.4375 28.125 C-9.72518685 26.50899289 -10.02262623 24.89471975 -10.32421875 23.28125 C-10.48881592 22.38212891 -10.65341309 21.48300781 -10.82299805 20.55664062 C-11.62726733 17.37407326 -12.73910319 15.97532924 -15.4375 14.125 C-20.03463139 11.42080507 -25.25895505 11.55328864 -30.4375 12.125 C-33.83991824 13.4898868 -33.83991824 13.4898868 -36.4375 15.125 C-37.0975 15.125 -37.7575 15.125 -38.4375 15.125 C-38.705625 15.723125 -38.97375 16.32125 -39.25 16.9375 C-40.4375 19.125 -40.4375 19.125 -43.4375 22.125 C-48.3875 19.485 -53.3375 16.845 -58.4375 14.125 C-54.61244819 4.56237049 -47.93112677 -0.78279678 -38.8125 -5.125 C-25.90349632 -9.20152748 -11.12933069 -7.90494516 0 0 Z " fill="#F7F7F8" transform="translate(726.4375,243.875)"/>
<path d="M0 0 C9.22146888 5.54211819 15.30951899 14.13681608 18.33984375 24.40625 C19.89792249 31.48842609 19.33984375 37.91711944 19.33984375 45.40625 C0.52984375 45.40625 -18.28015625 45.40625 -37.66015625 45.40625 C-34.69283092 54.30822598 -32.80619645 58.29290297 -24.66015625 62.40625 C-16.81135334 63.44713067 -9.15460464 63.30181135 -2.66015625 58.40625 C-1.91765625 57.643125 -1.17515625 56.88 -0.41015625 56.09375 C0.16734375 55.536875 0.74484375 54.98 1.33984375 54.40625 C5.30703187 54.7250419 7.99495645 57.14758453 11.08984375 59.46875 C12.0746875 60.20222656 13.05953125 60.93570313 14.07421875 61.69140625 C14.821875 62.25730469 15.56953125 62.82320313 16.33984375 63.40625 C12.78479858 72.61565581 6.80792873 76.11072381 -1.71484375 80.453125 C-10.87469361 84.23111755 -24.10878351 83.89991137 -33.33203125 80.49609375 C-43.93153529 75.53424538 -51.35087165 69.19846083 -56.00390625 58.2421875 C-60.72924321 44.63996752 -61.08724473 31.81661563 -55.37109375 18.375 C-50.07963525 8.0750487 -42.8274625 1.06074358 -31.81591797 -2.99755859 C-21.51309856 -5.84687739 -9.48838018 -4.79076699 0 0 Z " fill="#6515DE" transform="translate(1426.66015625,241.59375)"/>
<path d="M0 0 C23.76 0 47.52 0 72 0 C72 7.26 72 14.52 72 22 C55.5 22 39 22 22 22 C22 31.9 22 41.8 22 52 C36.52 52 51.04 52 66 52 C66 58.6 66 65.2 66 72 C51.48 72 36.96 72 22 72 C22 87.18 22 102.36 22 118 C14.74 118 7.48 118 0 118 C0 79.06 0 40.12 0 0 Z " fill="#2F4DF3" transform="translate(1053,204)"/>
<path d="M0 0 C29.37 0 58.74 0 89 0 C89 7.26 89 14.52 89 22 C78.44 22 67.88 22 57 22 C57 53.68 57 85.36 57 118 C49.41 118 41.82 118 34 118 C34 85.99 34 53.98 34 21 C22.78 21 11.56 21 0 21 C0 14.07 0 7.14 0 0 Z " fill="#F5F5F6" transform="translate(581,204)"/>
<path d="M0 0 C6.72812853 4.99803833 10.65147533 13.69579194 11.96484375 21.8203125 C12.04903411 23.78282058 12.08264868 25.74784976 12.07836914 27.7121582 C12.07825584 29.45339714 12.07825584 29.45339714 12.07814026 31.22981262 C12.07297897 32.47268539 12.06781769 33.71555817 12.0625 34.99609375 C12.06108505 36.27638962 12.0596701 37.55668549 12.05821228 38.8757782 C12.05440772 42.2672829 12.04459518 45.65874427 12.0335083 49.05023193 C12.02324972 52.51590387 12.01870516 55.98158286 12.01367188 59.44726562 C12.0026513 66.2383024 11.98539097 73.02929813 11.96484375 79.8203125 C4.70484375 79.8203125 -2.55515625 79.8203125 -10.03515625 79.8203125 C-10.04973877 78.1803833 -10.06432129 76.5404541 -10.0793457 74.85083008 C-10.13732248 68.76581021 -10.21455633 62.68116061 -10.29760742 56.59643555 C-10.3308595 53.96303314 -10.35889049 51.32955941 -10.3815918 48.69604492 C-10.41513154 44.91033539 -10.46744945 41.12527961 -10.5234375 37.33984375 C-10.52982742 36.16259232 -10.53621735 34.98534088 -10.5428009 33.77241516 C-10.57249214 32.12126961 -10.57249214 32.12126961 -10.6027832 30.43676758 C-10.61943779 28.98781853 -10.61943779 28.98781853 -10.63642883 27.50959778 C-11.10339359 24.36007407 -12.31919404 22.46940348 -14.03515625 19.8203125 C-14.03515625 19.1603125 -14.03515625 18.5003125 -14.03515625 17.8203125 C-19.59464448 15.41620948 -25.07839871 15.11011786 -31.03515625 15.8203125 C-35.6685968 18.01066621 -39.04743796 21.04935555 -41.03515625 25.8203125 C-41.64341048 29.95019534 -41.64007797 34.04971087 -41.64453125 38.21875 C-41.6610675 39.40884674 -41.67760376 40.59894348 -41.69464111 41.82510376 C-41.74311157 45.6152259 -41.76449114 49.40494678 -41.78515625 53.1953125 C-41.81331654 55.76955143 -41.84324404 58.34377167 -41.875 60.91796875 C-41.94887109 67.21871698 -41.99845222 73.51924256 -42.03515625 79.8203125 C-49.29515625 79.8203125 -56.55515625 79.8203125 -64.03515625 79.8203125 C-64.03515625 52.4303125 -64.03515625 25.0403125 -64.03515625 -3.1796875 C-57.10515625 -3.1796875 -50.17515625 -3.1796875 -43.03515625 -3.1796875 C-42.70515625 0.1203125 -42.37515625 3.4203125 -42.03515625 6.8203125 C-41.39578125 5.9334375 -40.75640625 5.0465625 -40.09765625 4.1328125 C-29.88390016 -8.18205913 -12.85673965 -7.45246713 0 0 Z " fill="#F7F7F8" transform="translate(946.03515625,242.1796875)"/>
<path d="M0 0 C6.93 0 13.86 0 21 0 C21 7.59 21 15.18 21 23 C27.6 23 34.2 23 41 23 C41 28.94 41 34.88 41 41 C34.4 41 27.8 41 21 41 C21.07412521 46.58750694 21.15706701 52.17344977 21.26245117 57.76025391 C21.29562793 59.65925899 21.32368231 61.55836096 21.34643555 63.45751953 C21.38011518 66.19345235 21.4324372 68.92850311 21.48828125 71.6640625 C21.49467117 72.50804596 21.5010611 73.35202942 21.50764465 74.22158813 C21.63045341 79.18736085 22.2385314 82.70268933 25 87 C28.00313748 88.50156874 30.79067522 88.09281204 34.125 88.0625 C35.40632812 88.05347656 36.68765625 88.04445313 38.0078125 88.03515625 C38.99523437 88.02355469 39.98265625 88.01195312 41 88 C41.8320582 93.72040011 42.12036664 99.22240116 42 105 C33.92868182 108.9532987 24.68590176 109.6767076 16.01953125 107.12109375 C9.75997903 104.25173774 4.76697409 100.29702056 2.10380554 93.82058716 C0.12091793 87.48461464 -0.40277868 81.79435212 -0.29296875 75.1796875 C-0.28872391 74.19501495 -0.28447906 73.21034241 -0.28010559 72.1958313 C-0.26347705 69.08859476 -0.2258555 65.98203643 -0.1875 62.875 C-0.17243268 60.75261361 -0.15874788 58.63021694 -0.14648438 56.5078125 C-0.11362557 51.33828523 -0.06195483 46.16925711 0 41 C-4.29 41 -8.58 41 -13 41 C-13 35.06 -13 29.12 -13 23 C-8.71 23 -4.42 23 0 23 C0 15.41 0 7.82 0 0 Z " fill="#F7F7F8" transform="translate(978,216)"/>
<path d="M0 0 C6.79108859 4.63028767 12.17849277 11.63801529 13.875 19.78125 C14.76560501 28.13674426 13.02570154 36.06668525 8.25 43.03125 C3.27826957 49.12562924 -3.34125634 53.43922523 -11.125 54.78125 C-20.80124935 55.5815413 -27.35685773 54.32621648 -34.875 48.09375 C-38.83382834 44.38021911 -41.20986418 40.82832065 -43.125 35.78125 C-43.5375 34.811875 -43.95 33.8425 -44.375 32.84375 C-46.39123179 24.61080353 -45.16467465 16.95153772 -40.87109375 9.6484375 C-31.09227073 -4.36698732 -15.08123408 -8.64953131 0 0 Z " fill="#0384FA" transform="translate(368.125,63.21875)"/>
<path d="M0 0 C7.26 0 14.52 0 22 0 C22 39.93 22 79.86 22 121 C14.74 121 7.48 121 0 121 C0 81.07 0 41.14 0 0 Z " fill="#F6F5F6" transform="translate(756,201)"/>
<path d="M0 0 C0 7.26 0 14.52 0 22 C-2.330625 21.9175 -4.66125 21.835 -7.0625 21.75 C-13.18507569 21.68965321 -17.31223813 21.83310056 -22 26 C-26.40542957 32.17784935 -26.60076919 38.34738144 -26.609375 45.71875 C-26.62591125 46.81723267 -26.64244751 47.91571533 -26.65948486 49.04748535 C-26.70779597 52.53171475 -26.7292991 56.01550817 -26.75 59.5 C-26.77817367 61.87241757 -26.80810304 64.24481498 -26.83984375 66.6171875 C-26.91355097 72.41142243 -26.96322913 78.20541772 -27 84 C-33.93 84 -40.86 84 -48 84 C-48 56.94 -48 29.88 -48 2 C-41.4 2 -34.8 2 -28 2 C-27.67 5.63 -27.34 9.26 -27 13 C-26.67 12.319375 -26.34 11.63875 -26 10.9375 C-18.89180013 0.49733144 -11.99686341 -0.11878083 0 0 Z " fill="#4B2DF1" transform="translate(1272,238)"/>
<path d="M0 0 C-0.27714844 0.6909375 -0.55429687 1.381875 -0.83984375 2.09375 C-2.09007402 5.22563998 -3.33352638 8.35969726 -4.5625 11.5 C-4.99691406 12.6034375 -5.43132812 13.706875 -5.87890625 14.84375 C-8.52402951 22.29064754 -8.41545775 28.81640857 -9 37 C-25.5 37 -42 37 -59 37 C-59 22.36305582 -57.60470556 13.56115475 -47.32421875 3.09375 C-33.75278545 -9.13194454 -15.67811462 -8.38684686 0 0 Z " fill="#6319E5" transform="translate(300,145)"/>
<path d="M0 0 C1.38179443 -0.02126953 1.38179443 -0.02126953 2.79150391 -0.04296875 C12.36924771 0.0933935 20.22572451 3.04146421 27.1875 9.65234375 C36.2001879 19.48985354 36.9375 29.22244713 36.9375 42.5625 C20.4375 42.5625 3.9375 42.5625 -13.0625 42.5625 C-13.3925 37.2825 -13.7225 32.0025 -14.0625 26.5625 C-15.55099561 20.08754411 -17.64537826 15.03916129 -21.07421875 9.375 C-22.0625 7.5625 -22.0625 7.5625 -22.0625 5.5625 C-14.93373673 0.78725187 -8.39620827 0.04510302 0 0 Z " fill="#6914DF" transform="translate(427.0625,139.4375)"/>
<path d="M0 0 C5.63574808 2.13294218 9.70324817 6.05487225 13 11 C16.10290165 19.8654333 16.06871983 28.19713725 12.1875 36.80859375 C8.79916949 43.06140104 3.56427418 45.87993217 -3 48 C-8.90905633 48.82934124 -13.16311085 47.28908462 -18 44 C-24.38364861 37.61635139 -26.17516628 32.37691294 -26.4375 23.5625 C-26.25242939 16.04863309 -25.33621797 11.36918455 -20.0234375 6.00390625 C-13.45808688 0.07121669 -8.91272903 -0.98409053 0 0 Z " fill="#0D0D30" transform="translate(1176,257)"/>
<path d="M0 0 C5.48343829 2.75395896 9.64824736 8.04914908 11.75 13.75390625 C11.79125 14.62015625 11.8325 15.48640625 11.875 16.37890625 C11.92398437 17.10851562 11.97296875 17.838125 12.0234375 18.58984375 C12.30012467 25.50702288 11.83260346 32.0884939 7.03515625 37.42578125 C1.38001753 42.52277779 -2.83435678 44.92049033 -10.5234375 44.76171875 C-16.01563152 43.95355807 -19.72122161 40.81962618 -23.5 36.94140625 C-26.78550583 31.76041629 -27.41899971 26.94700018 -27.4375 20.87890625 C-27.46263672 18.97625 -27.46263672 18.97625 -27.48828125 17.03515625 C-26.84192945 10.52993818 -23.9431542 6.62347066 -19.125 2.37890625 C-13.34849047 -1.68822801 -6.75359662 -1.97393725 0 0 Z " fill="#0D0C30" transform="translate(1324.125,257.62109375)"/>
<path d="M0 0 C4.01617794 2.85867687 6.92875965 6.70872964 8.7890625 11.2734375 C9.5334364 18.1274777 9.46131818 24.35044447 5.7890625 30.2734375 C0.80064524 35.70275023 -4.18176984 38.24272968 -11.5859375 38.6484375 C-17.46675815 38.47053032 -21.94574326 36.67651313 -26.0078125 32.3671875 C-30.57272938 26.54148405 -31.91827922 21.7413337 -31.2109375 14.2734375 C-29.868481 7.22554087 -25.92112593 3.35537418 -20.2109375 -0.7265625 C-13.80868361 -4.50225069 -6.273114 -3.52394054 0 0 Z " fill="#5922EE" transform="translate(288.2109375,96.7265625)"/>
<path d="M0 0 C4.71216147 3.5628538 9.16167162 8.05402081 10.5625 13.9375 C11.40864607 20.68022647 10.1896081 26.17218928 6.5625 31.9375 C2.65108988 36.45320101 -1.89132947 38.49572118 -7.7578125 39.2265625 C-14.29349075 39.60631139 -18.44525774 38.15548246 -23.4375 33.9375 C-28.85154792 28.23850219 -30.02095486 22.7051895 -29.87890625 15.015625 C-28.94312162 8.4899764 -25.29177795 4.48903869 -20.375 0.375 C-14.24613227 -2.60735082 -6.32982611 -1.95649171 0 0 Z " fill="#6A17E5" transform="translate(437.4375,96.0625)"/>
<path d="M0 0 C2.701875 -0.0825 5.40375 -0.165 8.1875 -0.25 C9.02949951 -0.28641602 9.87149902 -0.32283203 10.73901367 -0.36035156 C14.61908805 -0.41754034 16.60042466 -0.23726401 20.01953125 1.79296875 C22 4 22 4 22.5 7.5625 C22 11 22 11 20.5 12.9375 C20.005 13.288125 19.51 13.63875 19 14 C19.66 14.495 20.32 14.99 21 15.5 C23.44202682 18.55253353 23.47217273 20.21905488 23.53125 24 C22.69992688 27.12968704 21.68833688 28.15889656 19 30 C15.73210562 30.48715833 12.54447022 30.37555654 9.25 30.25 C4.67125 30.12625 4.67125 30.12625 0 30 C0 20.1 0 10.2 0 0 Z " fill="#B5B5C5" transform="translate(1001,363)"/>
<path d="M0 0 C0.93779297 0.00322266 1.87558594 0.00644531 2.84179688 0.00976562 C4.30649414 0.02233398 4.30649414 0.02233398 5.80078125 0.03515625 C6.78884766 0.03966797 7.77691406 0.04417969 8.79492188 0.04882812 C11.23443599 0.06061322 13.67382814 0.07706614 16.11328125 0.09765625 C16.63659104 9.99065477 16.63659104 9.99065477 14.48828125 14.53515625 C10.57791867 18.75423166 6.44692594 21.82931333 0.58984375 22.30078125 C-9.16290557 22.46110042 -9.16290557 22.46110042 -12.88671875 19.09765625 C-15.16460601 16.16894406 -15.47883352 12.80704662 -15.41015625 9.1328125 C-14.40862207 5.23878781 -11.18107615 3.13634852 -7.88671875 1.09765625 C-4.94539984 0.11721661 -3.0617021 -0.01855577 0 0 Z " fill="#101130" transform="translate(700.88671875,285.90234375)"/>
<path d="M0 0 C1.32 0 2.64 0 4 0 C4 10.56 4 21.12 4 32 C3.01 32 2.02 32 1 32 C1 31.01 1 30.02 1 29 C0.34 29 -0.32 29 -1 29 C-1 29.66 -1 30.32 -1 31 C-4.66244303 33.34396354 -7.72394153 33.52512999 -12 33 C-15.16639117 30.46688706 -17.73880431 27.89824124 -19 24 C-19.480151 19.67864101 -19.29173086 17.5331633 -17.1875 13.6875 C-15 11 -15 11 -12 9 C-7.33888024 8.66100947 -5.25786569 8.87106715 -1 11 C-0.67 7.37 -0.34 3.74 0 0 Z " fill="#9F9FB4" transform="translate(1104,361)"/>
<path d="M0 0 C1.32 0 2.64 0 4 0 C4 10.56 4 21.12 4 32 C2.35 31.67 0.7 31.34 -1 31 C-1.99 31.66 -2.98 32.32 -4 33 C-7.30571478 33.43660384 -9.81419387 33.71042728 -12.75390625 31.94921875 C-15.87673614 29.3982806 -17.81679383 27.62530041 -18.2734375 23.57421875 C-18.54965625 15.72323191 -18.54965625 15.72323191 -15.625 11.875 C-11.48406541 8.91718958 -9.1152848 8.73077448 -4 9 C-3.01 9.66 -2.02 10.32 -1 11 C-0.67 7.37 -0.34 3.74 0 0 Z " fill="#B0B0C2" transform="translate(807,361)"/>
<path d="M0 0 C4.43008391 2.5800676 7.42060335 5.41374486 9.7109375 10.08984375 C9.7109375 12.06984375 9.7109375 14.04984375 9.7109375 16.08984375 C-2.1690625 16.08984375 -14.0490625 16.08984375 -26.2890625 16.08984375 C-24.89835732 9.13631787 -22.07617318 5.14082123 -16.2890625 1.08984375 C-11.22148939 -1.85914313 -5.46984155 -2.17486874 0 0 Z " fill="#141433" transform="translate(838.2890625,255.91015625)"/>
<path d="M0 0 C5.05817297 4.45600952 6.50647593 7.6013556 7.625 14.3125 C-4.255 14.3125 -16.135 14.3125 -28.375 14.3125 C-27.22489696 7.41188174 -25.39020017 4.87542761 -20.375 0.3125 C-13.69120718 -3.84910685 -6.90103012 -3.45051506 0 0 Z " fill="#0F0C34" transform="translate(1417.375,257.6875)"/>
<path d="M0 0 C3.62760073 1.64890942 6.08652985 3.47518657 8 7 C8 8.98 8 10.96 8 13 C2.06 13 -3.88 13 -10 13 C-8.23148964 16.18074165 -8.23148964 16.18074165 -6 19 C0.08468557 19.23376923 0.08468557 19.23376923 6 18 C6 18.99 6 19.98 6 21 C3.17412917 23.31207614 1.19458512 23.97523462 -2.4375 24.4375 C-6.68345227 23.91606726 -8.73817577 22.73082959 -12 20 C-14.54993405 15.82579288 -14.83355164 11.77022624 -14 7 C-10.55496154 0.8271058 -6.83442645 -0.46335095 0 0 Z " fill="#A2A2B5" transform="translate(1266,370)"/>
<path d="M0 0 C5.53846154 3.07692308 5.53846154 3.07692308 7 6 C7 8.31 7 10.62 7 13 C1.39 13 -4.22 13 -10 13 C-8.54711014 17.5841963 -8.54711014 17.5841963 -7 19 C-0.91531443 19.23376923 -0.91531443 19.23376923 5 18 C5.33 18.99 5.66 19.98 6 21 C1.47355803 23.64962457 -1.75383373 24.74945232 -7 24 C-9.96798207 22.20323955 -12.42401242 20.15197515 -14 17 C-14.51512617 12.90842645 -14.94367269 8.76410454 -12.953125 5.04296875 C-8.93471375 0.18541868 -6.18985013 -0.51582084 0 0 Z " fill="#ADACBC" transform="translate(912,370)"/>
<path d="M0 0 C4.56944444 2.13888889 4.56944444 2.13888889 6 5 C6.08308638 6.37548156 6.10736016 7.75485796 6.09765625 9.1328125 C6.09443359 9.93847656 6.09121094 10.74414062 6.08789062 11.57421875 C6.07951172 12.41597656 6.07113281 13.25773437 6.0625 14.125 C6.05798828 14.97449219 6.05347656 15.82398438 6.04882812 16.69921875 C6.03702874 18.79950909 6.01909306 20.8997633 6 23 C5.01 23 4.02 23 3 23 C3 22.34 3 21.68 3 21 C2.319375 21.495 1.63875 21.99 0.9375 22.5 C-2.70766131 24.36135897 -4.9540572 24.51493817 -9 24 C-11.4375 22.375 -11.4375 22.375 -13 20 C-13.58338557 16.49968658 -13.40455522 14.73205231 -11.6875 11.625 C-7.38906162 9.02594424 -2.89867185 9.69594451 2 10 C1.34 8.35 0.68 6.7 0 5 C-1.8871875 4.9690625 -1.8871875 4.9690625 -3.8125 4.9375 C-4.52019531 4.92589844 -5.22789062 4.91429687 -5.95703125 4.90234375 C-8.20305461 4.91736783 -8.20305461 4.91736783 -11 6 C-11.33 5.01 -11.66 4.02 -12 3 C-8.47558824 -0.52441176 -4.7367187 -0.7142671 0 0 Z " fill="#B1B0C0" transform="translate(871,370)"/>
<path d="M0 0 C0.495 0.99 0.495 0.99 1 2 C0.59910156 2.53625 0.19820312 3.0725 -0.21484375 3.625 C-4.08495343 8.96066142 -7.51760397 14.45107895 -10.75 20.1875 C-11.12632568 20.85201172 -11.50265137 21.51652344 -11.89038086 22.20117188 C-14.21323463 26.37722855 -16.1602071 30.59084115 -18 35 C-18.65163002 36.32002993 -19.31554683 37.63418709 -20 38.9375 C-23.27853496 45.43200246 -25.2939095 51.94815929 -27 59 C-27.495 60.4540625 -27.495 60.4540625 -28 61.9375 C-29.01551736 65.04752191 -29.76534715 68.10816047 -30.4296875 71.30859375 C-30.83589254 73.22554768 -31.28313506 75.1339997 -31.7578125 77.03515625 C-36.85139623 98.96723763 -36.23273623 122.96387761 -31.62109375 144.9375 C-31 148 -31 148 -31 150 C-31.66 150 -32.32 150 -33 150 C-39.27502174 122.38406324 -40.06034871 92.29387828 -32 65 C-31.70528809 63.98631348 -31.41057617 62.97262695 -31.10693359 61.92822266 C-27.25035816 48.95464674 -22.4975232 36.86207492 -16 25 C-15.51015625 24.03449219 -15.0203125 23.06898438 -14.515625 22.07421875 C-10.44584516 14.17473035 -5.26640435 7.12942091 0 0 Z " fill="#1568EC" transform="translate(171,175)"/>
<path d="M0 0 C1.89492188 0.01353516 1.89492188 0.01353516 3.828125 0.02734375 C4.79234375 0.03894531 5.7565625 0.05054688 6.75 0.0625 C7.38558371 34.02874509 7.38558371 34.02874509 3.75 50.0625 C3.48316406 51.28582031 3.21632813 52.50914062 2.94140625 53.76953125 C-1.4434616 71.75723359 -8.55872476 88.76635892 -17.25 105.0625 C-18.39306641 101.38574219 -18.39306641 101.38574219 -17.10546875 98.4765625 C-16.55503906 97.55617188 -16.00460937 96.63578125 -15.4375 95.6875 C-13.21926674 91.83746296 -11.57200506 88.31180197 -10.25 84.0625 C-9.64542969 82.92296875 -9.04085938 81.7834375 -8.41796875 80.609375 C-5.80597704 75.44475502 -4.25912491 70.05383605 -2.6875 64.5 C-2.38376465 63.4387793 -2.0800293 62.37755859 -1.76708984 61.28417969 C2.88485077 44.76237655 4.9492471 29.06207281 4.71362305 11.9152832 C4.70500244 11.08730225 4.69638184 10.25932129 4.6875 9.40625 C4.67589844 8.66568359 4.66429687 7.92511719 4.65234375 7.16210938 C4.75262125 5.00614306 5.15590732 3.13246858 5.75 1.0625 C2.95763552 1.53785969 0.16615009 2.0176067 -2.625 2.5 C-3.4190625 2.63470703 -4.213125 2.76941406 -5.03125 2.90820312 C-9.26394983 3.57667589 -9.26394983 3.57667589 -13.25 5.0625 C-13.28738281 6.30902344 -13.32476562 7.55554688 -13.36328125 8.83984375 C-13.77534697 20.15434202 -14.96638952 30.97478118 -17.25 42.0625 C-17.58 42.0625 -17.91 42.0625 -18.25 42.0625 C-18.0876473 36.70410047 -17.89364265 31.34814254 -17.67016602 25.99194336 C-17.59861221 24.16967401 -17.53573073 22.34704267 -17.48168945 20.52416992 C-17.40250654 17.90400007 -17.29223034 15.2867141 -17.17578125 12.66796875 C-17.15784012 11.85224899 -17.13989899 11.03652924 -17.12141418 10.1960907 C-17.0012207 7.89135742 -17.0012207 7.89135742 -16.25 4.0625 C-11.34246087 -0.13795478 -6.22429509 -0.05763236 0 0 Z " fill="#681ADD" transform="translate(514.25,268.9375)"/>
<path d="M0 0 C1.32 0 2.64 0 4 0 C4.06058594 1.28777344 4.12117188 2.57554687 4.18359375 3.90234375 C4.26798247 5.58074159 4.3526313 7.25912636 4.4375 8.9375 C4.47681641 9.78763672 4.51613281 10.63777344 4.55664062 11.51367188 C4.59853516 12.32255859 4.64042969 13.13144531 4.68359375 13.96484375 C4.72025146 14.7137085 4.75690918 15.46257324 4.79467773 16.23413086 C4.81771063 18.02461326 4.81771063 18.02461326 6 19 C9.45812169 19.33338596 9.45812169 19.33338596 13 19 C15.48044315 15.27933528 15.44381173 12.13459526 15.625 7.8125 C15.68300781 6.68811523 15.68300781 6.68811523 15.7421875 5.54101562 C15.83628216 3.69440801 15.91922319 1.8472381 16 0 C17.32 0 18.64 0 20 0 C20 7.92 20 15.84 20 24 C18.68 24 17.36 24 16 24 C15.67 23.34 15.34 22.68 15 22 C14.01 22.66 13.02 23.32 12 24 C7.81196372 24.54289359 5.78141189 24.55251346 2.29296875 22.0859375 C-0.9211978 17.76022784 -0.56614146 14.42031848 -0.3125 9.1875 C-0.28994141 8.30384766 -0.26738281 7.42019531 -0.24414062 6.50976562 C-0.18547428 4.3391109 -0.09579979 2.1693331 0 0 Z " fill="#9F9FB0" transform="translate(1206,370)"/>
<path d="M0 0 C1.32 0 2.64 0 4 0 C4 0.66 4 1.32 4 2 C4.515625 1.67 5.03125 1.34 5.5625 1 C8.96121795 -0.39434583 11.35594448 -0.44751559 15 0 C17.88663574 2.04400507 19.74672208 3.6073592 20.39868164 7.19213867 C20.49212614 9.74976797 20.4364011 12.25632504 20.3125 14.8125 C20.28994141 15.69615234 20.26738281 16.57980469 20.24414062 17.49023438 C20.18547428 19.6608891 20.09579979 21.8306669 20 24 C18.68 24 17.36 24 16 24 C15.93941406 22.71222656 15.87882813 21.42445313 15.81640625 20.09765625 C15.73201753 18.41925841 15.6473687 16.74087364 15.5625 15.0625 C15.52318359 14.21236328 15.48386719 13.36222656 15.44335938 12.48632812 C15.38051758 11.27299805 15.38051758 11.27299805 15.31640625 10.03515625 C15.27974854 9.2862915 15.24309082 8.53742676 15.20532227 7.76586914 C15.18228937 5.97538674 15.18228937 5.97538674 14 5 C10.54178598 4.74996036 10.54178598 4.74996036 7 5 C3.97906785 8.02093215 4.53323166 11.56372072 4.375 15.625 C4.33632813 16.42679687 4.29765625 17.22859375 4.2578125 18.0546875 C4.16346069 20.03607556 4.08063785 22.01800645 4 24 C2.68 24 1.36 24 0 24 C0 16.08 0 8.16 0 0 Z " fill="#A1A2B5" transform="translate(927,370)"/>
<path d="M0 0 C1.32 0 2.64 0 4 0 C4.33 0.66 4.66 1.32 5 2 C5.99 1.34 6.98 0.68 8 0 C12.18803628 -0.54289359 14.21858811 -0.55251346 17.70703125 1.9140625 C20.9211978 6.23977216 20.56614146 9.57968152 20.3125 14.8125 C20.28994141 15.69615234 20.26738281 16.57980469 20.24414062 17.49023438 C20.18547428 19.6608891 20.09579979 21.8306669 20 24 C18.68 24 17.36 24 16 24 C15.93941406 22.71222656 15.87882813 21.42445313 15.81640625 20.09765625 C15.73201753 18.41925841 15.6473687 16.74087364 15.5625 15.0625 C15.52318359 14.21236328 15.48386719 13.36222656 15.44335938 12.48632812 C15.38051758 11.27299805 15.38051758 11.27299805 15.31640625 10.03515625 C15.27974854 9.2862915 15.24309082 8.53742676 15.20532227 7.76586914 C15.18228937 5.97538674 15.18228937 5.97538674 14 5 C10.54178598 4.74996036 10.54178598 4.74996036 7 5 C3.97906785 8.02093215 4.53323166 11.56372072 4.375 15.625 C4.33632813 16.42679687 4.29765625 17.22859375 4.2578125 18.0546875 C4.16346069 20.03607556 4.08063785 22.01800645 4 24 C2.68 24 1.36 24 0 24 C0 16.08 0 8.16 0 0 Z " fill="#A7A7BA" transform="translate(761,370)"/>
<path d="M0 0 C1.32 0 2.64 0 4 0 C4.33 5.94 4.66 11.88 5 18 C7.78863007 19.39431504 9.92078868 19.25660094 13 19 C15.48044315 15.27933528 15.44381173 12.13459526 15.625 7.8125 C15.68300781 6.68811523 15.68300781 6.68811523 15.7421875 5.54101562 C15.83628216 3.69440801 15.91922319 1.8472381 16 0 C17.32 0 18.64 0 20 0 C20 7.59 20 15.18 20 23 C18.35 22.67 16.7 22.34 15 22 C14.01 22.66 13.02 23.32 12 24 C7.81196372 24.54289359 5.78141189 24.55251346 2.29296875 22.0859375 C-0.9211978 17.76022784 -0.56614146 14.42031848 -0.3125 9.1875 C-0.28994141 8.30384766 -0.26738281 7.42019531 -0.24414062 6.50976562 C-0.18547428 4.3391109 -0.09579979 2.1693331 0 0 Z " fill="#A3A3B5" transform="translate(1032,370)"/>
<path d="M0 0 C25.08 0 50.16 0 76 0 C76 0.99 76 1.98 76 3 C50.92 3 25.84 3 0 3 C0 2.01 0 1.02 0 0 Z " fill="#9F9FAF" transform="translate(614,378)"/>
<path d="M0 0 C24.42 0 48.84 0 74 0 C74 0.99 74 1.98 74 3 C49.58 3 25.16 3 0 3 C0 2.01 0 1.02 0 0 Z " fill="#9F9FAF" transform="translate(1306,378)"/>
<path d="M0 0 C6.6 0 13.2 0 20 0 C20 0.99 20 1.98 20 3 C14.72 3 9.44 3 4 3 C4 6.63 4 10.26 4 14 C8.62 14 13.24 14 18 14 C18 14.99 18 15.98 18 17 C13.38 17 8.76 17 4 17 C4 21.62 4 26.24 4 31 C2.68 31 1.36 31 0 31 C0 20.77 0 10.54 0 0 Z " fill="#A7A8BA" transform="translate(721,363)"/>
<path d="M0 0 C1.32 0 2.64 0 4 0 C4.06058594 1.28777344 4.12117188 2.57554687 4.18359375 3.90234375 C4.26798247 5.58074159 4.3526313 7.25912636 4.4375 8.9375 C4.47681641 9.78763672 4.51613281 10.63777344 4.55664062 11.51367188 C4.59853516 12.32255859 4.64042969 13.13144531 4.68359375 13.96484375 C4.72025146 14.7137085 4.75690918 15.46257324 4.79467773 16.23413086 C4.81771063 18.02461326 4.81771063 18.02461326 6 19 C9.41600593 19.41692853 9.41600593 19.41692853 13 19 C16.5092279 15.7350339 16.47383026 12.36526637 16.6875 7.75 C16.75324219 6.48671875 16.81898437 5.2234375 16.88671875 3.921875 C16.92410156 2.95765625 16.96148438 1.9934375 17 1 C17.99 1 18.98 1 20 1 C20 8.26 20 15.52 20 23 C19.01 23 18.02 23 17 23 C17 22.34 17 21.68 17 21 C16.505 21.495 16.01 21.99 15.5 22.5 C12.67181044 24.19691373 10.36622511 24.43779443 7.09765625 24.59375 C3.5455804 23.58832071 2.17183059 21.95443851 0 19 C-0.59667889 15.70339503 -0.47420747 12.52364953 -0.3125 9.1875 C-0.28994141 8.30384766 -0.26738281 7.42019531 -0.24414062 6.50976562 C-0.18547428 4.3391109 -0.09579979 2.1693331 0 0 Z " fill="#A4A5B5" transform="translate(1158,370)"/>
<path d="M0 0 C2.4375 1.5 2.4375 1.5 4 4 C4.80414661 8.04560357 4.63828902 10.97873756 2.4375 14.5 C-0.97532932 16.60020266 -3.06688873 16.63210717 -7 16 C-10.22456813 13.27151928 -10.91290117 11.62057913 -11.5 7.4375 C-11 4 -11 4 -9.4375 1.5625 C-6.05782196 -0.60396028 -3.94016013 -0.56288002 0 0 Z " fill="#111132" transform="translate(1100,374)"/>
<path d="M0 0 C6.6 0 13.2 0 20 0 C20 0.99 20 1.98 20 3 C14.72 3 9.44 3 4 3 C4 6.63 4 10.26 4 14 C8.62 14 13.24 14 18 14 C18 14.99 18 15.98 18 17 C13.05 17 8.1 17 3 17 C3 21.29 3 25.58 3 30 C2.01 30 1.02 30 0 30 C0 20.1 0 10.2 0 0 Z " fill="#B7B8C6" transform="translate(1132,363)"/>
<path d="M0 0 C1.875 0.33984375 1.875 0.33984375 3.875 1.83984375 C5.64711785 6.27013838 5.68215523 10.44065498 3.8125 14.83984375 C0.81465306 17.16075751 -1.45144233 16.79098241 -5.125 16.33984375 C-7.3203125 15.125 -7.3203125 15.125 -9.125 13.33984375 C-9.62109375 10.96484375 -9.62109375 10.96484375 -9.5625 8.33984375 C-9.56121094 7.47359375 -9.55992187 6.60734375 -9.55859375 5.71484375 C-8.54483616 0.16200939 -4.95776385 -0.22783841 0 0 Z " fill="#101030" transform="translate(802.125,373.66015625)"/>
<path d="M0 0 C1.32 0 2.64 0 4 0 C4 1.98 4 3.96 4 6 C6.31 6 8.62 6 11 6 C11 7.32 11 8.64 11 10 C8.69 10 6.38 10 4 10 C4.33 14.95 4.66 19.9 5 25 C6.98 25.33 8.96 25.66 11 26 C11 26.99 11 27.98 11 29 C7.75 29.75 7.75 29.75 4 30 C1.78125 28.53125 1.78125 28.53125 0 26 C-0.2906124 23.10550051 -0.38186045 20.62050065 -0.25 17.75 C-0.23195313 17.00492187 -0.21390625 16.25984375 -0.1953125 15.4921875 C-0.14835649 13.66090299 -0.07661652 11.83028351 0 10 C-1.32 10 -2.64 10 -4 10 C-4 8.68 -4 7.36 -4 6 C-2.68 6 -1.36 6 0 6 C0 4.02 0 2.04 0 0 Z " fill="#9999AC" transform="translate(957,364)"/>
<path d="M0 0 C7.59 0 15.18 0 23 0 C23 0.99 23 1.98 23 3 C19.7 3 16.4 3 13 3 C13 12.24 13 21.48 13 31 C11.68 31 10.36 31 9 31 C9 21.76 9 12.52 9 3 C6.03 3 3.06 3 0 3 C0 2.01 0 1.02 0 0 Z " fill="#A6A6B7" transform="translate(832,363)"/>
<path d="M0 0 C2.10353495 -0.0810206 4.20795952 -0.13919907 6.3125 -0.1875 C7.48425781 -0.22230469 8.65601563 -0.25710938 9.86328125 -0.29296875 C13 0 13 0 14.89453125 1.3203125 C16.6120315 3.92994185 16.38701462 5.96838548 16 9 C12.36804504 11.42130331 10.61650652 11.21022785 6.3125 11.125 C5.13300781 11.10695313 3.95351563 11.08890625 2.73828125 11.0703125 C1.83464844 11.04710937 0.93101562 11.02390625 0 11 C0 7.37 0 3.74 0 0 Z " fill="#17173A" transform="translate(1004,379)"/>
<path d="M0 0 C1.32 0 2.64 0 4 0 C4 1.98 4 3.96 4 6 C5.98 6 7.96 6 10 6 C10 6.66 10 7.32 10 8 C8.02 8 6.04 8 4 8 C4.33 13.28 4.66 18.56 5 24 C6.98 24.33 8.96 24.66 11 25 C11 26.32 11 27.64 11 29 C7.75 29.3125 7.75 29.3125 4 29 C0.85324456 26.11916756 0.05261234 24.50770908 -0.390625 20.23046875 C-0.36431837 18.88225415 -0.31701804 17.53430482 -0.25 16.1875 C-0.23195313 15.49462891 -0.21390625 14.80175781 -0.1953125 14.08789062 C-0.14851064 12.39132336 -0.07677624 10.69547524 0 9 C-0.99 9 -1.98 9 -3 9 C-3 7.68 -3 6.36 -3 5 C-2.01 5 -1.02 5 0 5 C0 3.35 0 1.7 0 0 Z " fill="#B1B2C3" transform="translate(1188,365)"/>
<path d="M0 0 C2.12472576 -0.05386629 4.24983652 -0.09273071 6.375 -0.125 C7.55835938 -0.14820313 8.74171875 -0.17140625 9.9609375 -0.1953125 C13 0 13 0 15 2 C14.75 5.5625 14.75 5.5625 14 9 C11.23547967 10.38226016 8.9538637 10.09525387 5.875 10.0625 C4.77929688 10.05347656 3.68359375 10.04445313 2.5546875 10.03515625 C1.29011719 10.01775391 1.29011719 10.01775391 0 10 C0 6.7 0 3.4 0 0 Z " fill="#131433" transform="translate(1004,366)"/>
<path d="M0 0 C1.32 0 2.64 0 4 0 C4 10.89 4 21.78 4 33 C2.68 33 1.36 33 0 33 C0 22.11 0 11.22 0 0 Z " fill="#A6A6B6" transform="translate(886,361)"/>
<path d="M0 0 C1.32 0 2.64 0 4 0 C4 10.89 4 21.78 4 33 C2.68 33 1.36 33 0 33 C0 22.11 0 11.22 0 0 Z " fill="#ABACBB" transform="translate(1074,361)"/>
<path d="M0 0 C1.32 0 2.64 0 4 0 C4.33 0.66 4.66 1.32 5 2 C5.99 1.34 6.98 0.68 8 0 C9.32 0 10.64 0 12 0 C12 1.32 12 2.64 12 4 C10.02 4.33 8.04 4.66 6 5 C4.81304447 8.56086658 4.64904582 11.97331024 4.4375 15.6875 C4.37272461 16.7403418 4.37272461 16.7403418 4.30664062 17.81445312 C4.2008264 19.54275206 4.09993419 21.2713511 4 23 C2.68 23 1.36 23 0 23 C0 15.41 0 7.82 0 0 Z " fill="#A6A5B7" transform="translate(1235,370)"/>
<path d="M0 0 C6.93 0 13.86 0 21 0 C21 0.33 21 0.66 21 1 C15.72 1 10.44 1 5 1 C5 1.66 5 2.32 5 3 C3.68 3 2.36 3 1 3 C1 29.4 1 55.8 1 83 C0.67 83 0.34 83 0 83 C0 55.61 0 28.22 0 0 Z " fill="#E7E7EA" transform="translate(882,239)"/>
<path d="M0 0 C23.43 0 46.86 0 71 0 C71 2.97 71 5.94 71 9 C70.67 9 70.34 9 70 9 C69.505 5.535 69.505 5.535 69 2 C47.22 2 25.44 2 3 2 C2.67 4.97 2.34 7.94 2 11 C1.01 11.495 1.01 11.495 0 12 C0 8.04 0 4.08 0 0 Z " fill="#1D6BF9" transform="translate(1053,205)"/>
<path d="M0 0 C1.32 0 2.64 0 4 0 C4 7.92 4 15.84 4 24 C2.68 24 1.36 24 0 24 C0 16.08 0 8.16 0 0 Z " fill="#A7A8BA" transform="translate(1061,370)"/>
<path d="M0 0 C1.32 0 2.64 0 4 0 C4 7.92 4 15.84 4 24 C2.68 24 1.36 24 0 24 C0 16.08 0 8.16 0 0 Z " fill="#A4A5B6" transform="translate(748,370)"/>
<path d="M0 0 C2 2 2 2 2.125 5.625 C2.08375 6.73875 2.0425 7.8525 2 9 C0.35 9 -1.3 9 -3 9 C-2.979375 8.030625 -2.95875 7.06125 -2.9375 6.0625 C-2.64381501 3.12534105 -2.64381501 3.12534105 -4 2 C-6.34987262 1.76472227 -8.70556039 1.58613583 -11.0625 1.4375 C-13.351875 1.293125 -15.64125 1.14875 -18 1 C-18 7.6 -18 14.2 -18 21 C-18.33 21 -18.66 21 -19 21 C-19 13.74 -19 6.48 -19 -1 C-4.45403696 -2.3594358 -4.45403696 -2.3594358 0 0 Z " fill="#A1A2B4" transform="translate(1021,365)"/>
<path d="M0 0 C0.99 0 1.98 0 3 0 C4.23402862 4.77092956 4.11265112 9.42469446 4.0625 14.3125 C4.05798828 15.14845703 4.05347656 15.98441406 4.04882812 16.84570312 C4.03710548 18.89716649 4.01917203 20.94859273 4 23 C2.68 23 1.36 23 0 23 C0 15.41 0 7.82 0 0 Z " fill="#AEAFBF" transform="translate(761,371)"/>
<path d="M0 0 C0.99 0 1.98 0 3 0 C3 7.26 3 14.52 3 22 C2.01 22 1.02 22 0 22 C0 21.34 0 20.68 0 20 C-1.32 20.33 -2.64 20.66 -4 21 C-4 18 -4 18 -2.54296875 16.265625 C-0.39792961 13.11594728 -0.48721431 10.52382905 -0.3125 6.75 C-0.24675781 5.48671875 -0.18101563 4.2234375 -0.11328125 2.921875 C-0.07589844 1.95765625 -0.03851562 0.9934375 0 0 Z " fill="#B5B5C3" transform="translate(1175,371)"/>
<path d="M0 0 C5.70035501 -0.4560284 8.54784247 0.39587248 13 4 C14 6 14 6 14 13 C8.39 13 2.78 13 -3 13 C-2.67 12.34 -2.34 11.68 -2 11 C-0.06257659 10.97296619 1.87495479 10.95358875 3.8125 10.9375 C4.89144531 10.92589844 5.97039063 10.91429687 7.08203125 10.90234375 C10 11 10 11 13 12 C9.32654248 5.91583598 6.83006515 3.96798487 0 2 C0 1.34 0 0.68 0 0 Z " fill="#B5B5C4" transform="translate(905,370)"/>
<path d="M0 0 C0.33 0 0.66 0 1 0 C1.16276042 2.01822917 1.32552083 4.03645833 1.48828125 6.0546875 C1.87393036 8.39519216 1.87393036 8.39519216 5 10 C9.80207547 10.5486783 9.80207547 10.5486783 13.9375 8.5 C14.288125 8.005 14.63875 7.51 15 7 C15.33 9.31 15.66 11.62 16 14 C15.01 14 14.02 14 13 14 C12.01 14.495 12.01 14.495 11 15 C7.74909308 15.37510464 5.15611549 15.66540869 2.2421875 13.98828125 C-0.45308356 11.82034584 -1.89684396 10.30946812 -3 7 C-2.34 6.67 -1.68 6.34 -1 6 C-0.34227572 2.97065509 -0.34227572 2.97065509 0 0 Z " fill="#A1A2B5" transform="translate(792,379)"/>
<path d="M0 0 C5.94 0 11.88 0 18 0 C15.39285714 5.21428571 15.39285714 5.21428571 12 7 C9.2413414 7.47112894 6.75374594 7.51914882 4 7 C1.5 5.1875 1.5 5.1875 0 3 C0 2.01 0 1.02 0 0 Z " fill="#181939" transform="translate(1256,383)"/>
<path d="M0 0 C0.99 0.33 1.98 0.66 3 1 C3 9.58 3 18.16 3 27 C2.01 27 1.02 27 0 27 C0 18.09 0 9.18 0 0 Z " fill="#B3B3C3" transform="translate(842,366)"/>
<path d="M0 0 C0.66 0.99 1.32 1.98 2 3 C3.66666667 5.33333333 3.66666667 5.33333333 6 7 C9.10927047 7.32908167 9.10927047 7.32908167 12 6 C13.93469849 3.04928156 13.93469849 3.04928156 15 0 C17.29013653 3.4352048 17.17842973 4.985331 17 9 C15.824375 9.2165625 15.824375 9.2165625 14.625 9.4375 C12.03578982 9.87798925 12.03578982 9.87798925 10 11 C6.12575435 11.35872645 3.85066094 11.56710729 0.5625 9.375 C-1.41041808 6.37616451 -1.39152344 4.52371092 -1 1 C-0.67 0.67 -0.34 0.34 0 0 Z " fill="#AAA8BA" transform="translate(859,383)"/>
<path d="M0 0 C0.33 0 0.66 0 1 0 C0.22114212 11.48815379 -3.1372393 21.28638187 -9.1953125 31.0625 C-11.54178801 34.8818714 -13.58608316 38.83819489 -15.640625 42.8203125 C-17 45 -17 45 -20 47 C-18.75092708 43.7358896 -17.35995266 40.69953087 -15.64453125 37.65625 C-8.92056698 25.45826626 -3.92205817 13.36200411 0 0 Z " fill="#681CDA" transform="translate(492,322)"/>
<path d="M0 0 C1.07876911 3.23630734 0.92145203 4.17828157 0.125 7.375 C-0.65565857 10.57460063 -1.36587341 13.7678473 -2 17 C-2.2371875 18.15113281 -2.474375 19.30226562 -2.71875 20.48828125 C-4.04384552 26.97462382 -5.327289 33.40743222 -6 40 C-6.66 40 -7.32 40 -8 40 C-8.30890165 33.0538873 -7.15100729 26.77658389 -5.6875 20 C-5.47416016 18.9584375 -5.26082031 17.916875 -5.04101562 16.84375 C-3.80219199 10.9861481 -2.27098529 5.54093771 0 0 Z " fill="#1262E3" transform="translate(142,232)"/>
<path d="M0 0 C1.21816406 0.03480469 1.21816406 0.03480469 2.4609375 0.0703125 C3.68683594 0.09738281 3.68683594 0.09738281 4.9375 0.125 C5.87722656 0.15980469 5.87722656 0.15980469 6.8359375 0.1953125 C7.0859375 2.5078125 7.0859375 2.5078125 6.8359375 5.1953125 C5.2109375 7.0703125 5.2109375 7.0703125 2.8359375 8.1953125 C-0.4140625 7.8828125 -0.4140625 7.8828125 -3.1640625 7.1953125 C-3.7890625 4.8203125 -3.7890625 4.8203125 -4.1640625 2.1953125 C-2.1640625 0.1953125 -2.1640625 0.1953125 0 0 Z " fill="#161636" transform="translate(866.1640625,382.8046875)"/>
<path d="M0 0 C0.99 0 1.98 0 3 0 C3 10.56 3 21.12 3 32 C2.01 31.67 1.02 31.34 0 31 C0.66 31 1.32 31 2 31 C1.88444496 29.29100181 1.75706997 27.58280131 1.625 25.875 C1.55539062 24.92367188 1.48578125 23.97234375 1.4140625 22.9921875 C1.10217309 19.96197947 1.10217309 19.96197947 -0.0625 17.09375 C-1.19372571 13.36070514 -0.99015059 10.49559626 -0.625 6.625 C-0.51414062 5.37976563 -0.40328125 4.13453125 -0.2890625 2.8515625 C-0.19367188 1.91054688 -0.09828125 0.96953125 0 0 Z " fill="#AFB0C3" transform="translate(1105,361)"/>
<path d="M0 0 C3.23356015 1.21258505 4.00856305 2.01284458 6 5 C6 6.98 6 8.96 6 11 C0.39 11 -5.22 11 -11 11 C-11 10.34 -11 9.68 -11 9 C-6.71 9 -2.42 9 2 9 C0.27468064 4.18884294 0.27468064 4.18884294 -2 1 C-1.34 0.67 -0.68 0.34 0 0 Z " fill="#B1B2C1" transform="translate(1268,372)"/>
<path d="M0 0 C3.81701322 0.04788368 3.81701322 0.04788368 6.125 1.5625 C7.125 3.25 7.125 3.25 7.125 6.25 C2.505 6.25 -2.115 6.25 -6.875 6.25 C-4.49089404 0.2897351 -4.49089404 0.2897351 0 0 Z " fill="#141438" transform="translate(1262.875,373.75)"/>
<path d="M0 0 C0.66 0.33 1.32 0.66 2 1 C-7.66666667 10.66666667 -17.33333333 20.33333333 -27 30 C-21.73094943 18.19952216 -10.00491189 7.89861465 0 0 Z " fill="#067FEC" transform="translate(199,145)"/>
<path d="M0 0 C0.33 0 0.66 0 1 0 C1 2.97 1 5.94 1 9 C0.01 9 -0.98 9 -2 9 C-2 8.01 -2 7.02 -2 6 C-8.08293209 6.00911192 -8.08293209 6.00911192 -12.9375 9.0625 C-13.288125 9.701875 -13.63875 10.34125 -14 11 C-14.66 11 -15.32 11 -16 11 C-15.25 5.25 -15.25 5.25 -13 3 C-10.3984375 2.8046875 -10.3984375 2.8046875 -7.375 2.875 C-5.87066406 2.90207031 -5.87066406 2.90207031 -4.3359375 2.9296875 C-3.56507813 2.95289063 -2.79421875 2.97609375 -2 3 C-1.67 2.34 -1.34 1.68 -1 1 C-0.67 0.67 -0.34 0.34 0 0 Z " fill="#A4A3B5" transform="translate(875,377)"/>
<path d="M0 0 C0.66 0.66 1.32 1.32 2 2 C0.46522984 3.90178041 -1.07738384 5.79621549 -2.625 7.6875 C-3.05167969 8.21794922 -3.47835938 8.74839844 -3.91796875 9.29492188 C-6.98169981 13.0216992 -10.23655178 15.98194388 -14 19 C-14.825 19.825 -15.65 20.65 -16.5 21.5 C-19.20634644 24.20634644 -22.03327597 26.58522463 -25 29 C-25.66 28.67 -26.32 28.34 -27 28 C-26.59273682 27.6282666 -26.18547363 27.2565332 -25.76586914 26.87353516 C-11.985592 14.2772646 -11.985592 14.2772646 0 0 Z " fill="#671BDE" transform="translate(463,380)"/>
<path d="M0 0 C0.70125 0.00515625 1.4025 0.0103125 2.125 0.015625 C2.82625 0.01046875 3.5275 0.0053125 4.25 0 C6.125 0.265625 6.125 0.265625 8.125 2.265625 C8.125 3.585625 8.125 4.905625 8.125 6.265625 C3.835 6.265625 -0.455 6.265625 -4.875 6.265625 C-3.43007559 0.48592738 -3.43007559 0.48592738 0 0 Z " fill="#111131" transform="translate(906.875,373.734375)"/>
<path d="M0 0 C0.99 0 1.98 0 3 0 C3.05423638 1.91635217 3.09289963 3.83314925 3.125 5.75 C3.14820313 6.81734375 3.17140625 7.8846875 3.1953125 8.984375 C3.00487687 11.92470106 2.52670104 13.52361878 1 16 C1.66 16 2.32 16 3 16 C3.66 16.99 4.32 17.98 5 19 C6.95385067 19.78988145 6.95385067 19.78988145 9.125 20.1875 C10.40375 20.455625 11.6825 20.72375 13 21 C12.67 21.66 12.34 22.32 12 23 C7.86831382 23.40506727 5.71978317 23.51294893 2.28125 21.0625 C-0.85180127 16.85648597 -0.57357849 13.77652227 -0.3125 8.6875 C-0.28994141 7.85154297 -0.26738281 7.01558594 -0.24414062 6.15429688 C-0.1855061 4.10208851 -0.09583215 2.05080798 0 0 Z " fill="#B3B3C4" transform="translate(1032,371)"/>
<path d="M0 0 C3.875 1.875 3.875 1.875 5 3 C5.57803468 10.05202312 5.57803468 10.05202312 3.4375 13.5625 C0.01492921 15.58093918 -2.22734431 14.87061285 -6 14 C-4.68 13.67 -3.36 13.34 -2 13 C-2 12.34 -2 11.68 -2 11 C-1.34 10.67 -0.68 10.34 0 10 C0 9.0925 0 8.185 0 7.25 C0 4.83333333 0 2.41666667 0 0 Z " fill="#A3A4B7" transform="translate(1019,378)"/>
<path d="M0 0 C-0.556875 0.226875 -1.11375 0.45375 -1.6875 0.6875 C-6.03082039 3.15262779 -8.93426287 5.98378267 -10.3125 10.8125 C-10.539375 11.864375 -10.76625 12.91625 -11 14 C-11.66 14 -12.32 14 -13 14 C-13.76697736 5.22237017 -13.76697736 5.22237017 -11 0.8125 C-6.80681905 -1.72088016 -4.70848124 -1.03746197 0 0 Z " fill="#B3B3C2" transform="translate(802,372)"/>
<path d="M0 0 C0 0.99 0 1.98 0 3 C-1.11375 3.45375 -2.2275 3.9075 -3.375 4.375 C-6.96199008 5.72465986 -6.96199008 5.72465986 -9 8 C-9.45811675 9.97235333 -9.45811675 9.97235333 -9.625 12.125 C-9.74875 13.40375 -9.8725 14.6825 -10 16 C-10.33 16 -10.66 16 -11 16 C-11 13.36 -11 10.72 -11 8 C-11.66 8 -12.32 8 -13 8 C-10.64175733 0.72875178 -7.4631798 -0.43056807 0 0 Z " fill="#A3A3B5" transform="translate(1099,370)"/>
<path d="M0 0 C0 3.89628044 -1.16377687 4.54923749 -3.8125 7.3125 C-9.82019506 13.87116533 -11.94872365 20.45301521 -14 29 C-14.66 29 -15.32 29 -16 29 C-15.63397628 19.48338326 -11.17155993 11.13701188 -5 4 C-3.36643049 2.62631655 -1.7074998 1.28062485 0 0 Z " fill="#4C32E6" transform="translate(1292,243)"/>
<path d="M0 0 C4.29 0 8.58 0 13 0 C13 0.66 13 1.32 13 2 C13.66 2.33 14.32 2.66 15 3 C11.06393081 5.62404613 7.57409061 5.36302306 3 5 C1 3.625 1 3.625 0 2 C0 1.34 0 0.68 0 0 Z " fill="#151634" transform="translate(902,385)"/>
<path d="M0 0 C5.61 0 11.22 0 17 0 C17 0.66 17 1.32 17 2 C12.38 2 7.76 2 3 2 C3 5.63 3 9.26 3 13 C2.01 13 1.02 13 0 13 C0 8.71 0 4.42 0 0 Z " fill="#9B9BAC" transform="translate(1133,364)"/>
<path d="M0 0 C1.32 0 2.64 0 4 0 C4.33 5.94 4.66 11.88 5 18 C7.64 18.99 10.28 19.98 13 21 C9.19881294 22.26706235 7.6149628 21.57172296 4 20 C3.67 19.01 3.34 18.02 3 17 C2.34 17 1.68 17 1 17 C1 12.05 1 7.1 1 2 C1.66 1.67 2.32 1.34 3 1 C2.01 0.67 1.02 0.34 0 0 Z " fill="#9899AD" transform="translate(1032,370)"/>
<path d="M0 0 C1.32 0 2.64 0 4 0 C4.33 0.66 4.66 1.32 5 2 C5.99 1.34 6.98 0.68 8 0 C11.5625 -0.25 11.5625 -0.25 15 0 C15.66 0.66 16.32 1.32 17 2 C12.64512016 4.43873271 8.00634437 6 3 6 C3 4.35 3 2.7 3 1 C2.01 0.67 1.02 0.34 0 0 Z " fill="#9E9DAF" transform="translate(761,370)"/>
<path d="M0 0 C2.97 0 5.94 0 9 0 C9 7.26 9 14.52 9 22 C8.34 22 7.68 22 7 22 C6.67 15.4 6.34 8.8 6 2 C3.03 1.505 3.03 1.505 0 1 C0 0.67 0 0.34 0 0 Z " fill="#4130CF" transform="translate(1263,238)"/>
<path d="M0 0 C0.66 0.33 1.32 0.66 2 1 C-0.1233291 3.36560745 -1.82969889 4.52688204 -4.8359375 5.53515625 C-5.57070313 5.78716797 -6.30546875 6.03917969 -7.0625 6.29882812 C-7.825625 6.55083984 -8.58875 6.80285156 -9.375 7.0625 C-10.88310646 7.57335176 -12.39092655 8.08504982 -13.8984375 8.59765625 C-14.60967773 8.83500488 -15.32091797 9.07235352 -16.05371094 9.31689453 C-17.68017058 9.88774677 -19.27205731 10.55587162 -20.8515625 11.24609375 C-23 12 -23 12 -26 11 C-19.7538797 8.1508925 -13.43762575 5.54127309 -7.05444336 3.01904297 C-3.4823991 1.61171056 -3.4823991 1.61171056 0 0 Z " fill="#5920E0" transform="translate(402,429)"/>
<path d="M0 0 C4.29 0 8.58 0 13 0 C13 1.32 13 2.64 13 4 C12.24074219 4.06058594 11.48148437 4.12117187 10.69921875 4.18359375 C9.70535156 4.26738281 8.71148437 4.35117188 7.6875 4.4375 C6.70136719 4.51871094 5.71523438 4.59992188 4.69921875 4.68359375 C1.90624401 4.91812559 1.90624401 4.91812559 -1 6 C-1.33 5.34 -1.66 4.68 -2 4 C-1.34 2.68 -0.68 1.36 0 0 Z " fill="#111138" transform="translate(270,134)"/>
<path d="M0 0 C4.29 0 8.58 0 13 0 C13 0.33 13 0.66 13 1 C10.69 1 8.38 1 6 1 C6 1.66 6 2.32 6 3 C5.01 3.66 4.02 4.32 3 5 C3 6.32 3 7.64 3 9 C2.34 9 1.68 9 1 9 C1 11.97 1 14.94 1 18 C0.67 18 0.34 18 0 18 C0 12.06 0 6.12 0 0 Z " fill="#CAC9D1" transform="translate(965,239)"/>
<path d="M0 0 C0.33 0.66 0.66 1.32 1 2 C3.01669827 3.13350534 3.01669827 3.13350534 5 4 C5 4.66 5 5.32 5 6 C5.99 6.33 6.98 6.66 8 7 C10.6875 9.4375 10.6875 9.4375 13 12 C13 12.66 13 13.32 13 14 C13.99 14.33 14.98 14.66 16 15 C17.6875 17.5625 17.6875 17.5625 19 20 C15.7413364 18.5735422 13.5975146 16.83295838 11.109375 14.3046875 C10.40039062 13.58925781 9.69140625 12.87382812 8.9609375 12.13671875 C8.23132813 11.39035156 7.50171875 10.64398438 6.75 9.875 C5.63238281 8.74384766 5.63238281 8.74384766 4.4921875 7.58984375 C2.6568658 5.73099228 0.8263809 3.86762995 -1 2 C-0.67 1.34 -0.34 0.68 0 0 Z " fill="#6214C9" transform="translate(497,455)"/>
<path d="M0 0 C4.60736045 4.489223 6.15336445 6.26928887 6.25 12.6875 C6.22470988 17.94152198 5.50201908 21.41296501 3 26 C1.875 22.25 1.875 22.25 3 20 C3.14901491 17.89946284 3.22138453 15.79312175 3.25 13.6875 C3.27578125 12.55699219 3.3015625 11.42648437 3.328125 10.26171875 C2.96983683 6.70016377 1.97097711 4.93053175 0 2 C0 1.34 0 0.68 0 0 Z " fill="#6010D1" transform="translate(550,452)"/>
<path d="M0 0 C2.88461151 1.29310171 5.12852073 2.41557624 7 5 C7.061875 6.546875 7.061875 6.546875 7.125 8.125 C8.45792165 14.02793873 12.58879199 17.07001468 17 21 C16.67 21.66 16.34 22.32 16 23 C14.14702315 21.30945944 12.31966656 19.60077713 10.5 17.875 C9.97535156 17.400625 9.45070313 16.92625 8.91015625 16.4375 C6.25161917 13.88254229 5.03513645 12.59146349 4.8125 8.84375 C4.874375 7.9053125 4.93625 6.966875 5 6 C3.98843307 4.07152146 3.98843307 4.07152146 2.5 2.625 C1.675 1.75875 0.85 0.8925 0 0 Z " fill="#6017C7" transform="translate(465,420)"/>
<path d="M0 0 C0.33 0 0.66 0 1 0 C1.05418326 2.08304538 1.09287551 4.16649768 1.125 6.25 C1.14820313 7.41015625 1.17140625 8.5703125 1.1953125 9.765625 C1.0103949 12.82786046 0.60823023 14.44202751 -1 17 C-1.66 16.01 -2.32 15.02 -3 14 C-6.06556598 13.26656572 -6.06556598 13.26656572 -9 13 C-9 12.34 -9 11.68 -9 11 C-9.66 10.34 -10.32 9.68 -11 9 C-4.375 8.75 -4.375 8.75 -1 11 C-0.67 7.37 -0.34 3.74 0 0 Z " fill="#8B8A9F" transform="translate(807,361)"/>
<path d="M0 0 C2.0625 0.4375 2.0625 0.4375 4 1 C-0.81900452 5.97963801 -0.81900452 5.97963801 -5.625 6.0625 C-6.73875 6.041875 -7.8525 6.02125 -9 6 C-9.33 5.01 -9.66 4.02 -10 3 C-9.04287109 2.80083984 -9.04287109 2.80083984 -8.06640625 2.59765625 C-7.24011719 2.42105469 -6.41382813 2.24445313 -5.5625 2.0625 C-4.73878906 1.88847656 -3.91507813 1.71445312 -3.06640625 1.53515625 C-1.02338796 1.19247006 -1.02338796 1.19247006 0 0 Z " fill="#9C9DB0" transform="translate(1269,388)"/>
<path d="M0 0 C0.33 0.66 0.66 1.32 1 2 C0.5875 2.55945313 0.175 3.11890625 -0.25 3.6953125 C-5.39601277 10.83999987 -9.73538887 18.31262305 -14 26 C-14.66 25.67 -15.32 25.34 -16 25 C-11.49161877 16.01989105 -5.95037145 8.05534475 0 0 Z " fill="#077DEE" transform="translate(171,175)"/>
<path d="M0 0 C6.93 0 13.86 0 21 0 C21 0.33 21 0.66 21 1 C15.72 1 10.44 1 5 1 C5 1.66 5 2.32 5 3 C3.68 3 2.36 3 1 3 C1 7.29 1 11.58 1 16 C0.67 16 0.34 16 0 16 C0 10.72 0 5.44 0 0 Z " fill="#D4D3DB" transform="translate(882,239)"/>
<path d="M0 0 C0 5.28 0 10.56 0 16 C-0.99 16 -1.98 16 -3 16 C-3 11.05 -3 6.1 -3 1 C-1 0 -1 0 0 0 Z " fill="#B6B7CA" transform="translate(947,377)"/>
<path d="M0 0 C0.33 0 0.66 0 1 0 C2.50563857 8.03007236 1.63782601 15.91432876 1 24 C0.67 24 0.34 24 0 24 C0 19.05 0 14.1 0 9 C-0.99 9 -1.98 9 -3 9 C-3 7.68 -3 6.36 -3 5 C-2.01 5 -1.02 5 0 5 C0 3.35 0 1.7 0 0 Z " fill="#838295" transform="translate(1188,365)"/>
<path d="M0 0 C0.66 0.33 1.32 0.66 2 1 C-8.37357631 11.55808656 -8.37357631 11.55808656 -14 16 C-14.66 15.67 -15.32 15.34 -16 15 C-5.62642369 4.44191344 -5.62642369 4.44191344 0 0 Z " fill="#08143A" transform="translate(214,163)"/>
<path d="M0 0 C0.33 0 0.66 0 1 0 C1 5.61 1 11.22 1 17 C-0.32 17 -1.64 17 -3 17 C-3 16.34 -3 15.68 -3 15 C-2.34 15 -1.68 15 -1 15 C-1.01160156 14.00097656 -1.02320313 13.00195312 -1.03515625 11.97265625 C-1.04417969 10.68230469 -1.05320312 9.39195312 -1.0625 8.0625 C-1.07410156 6.77472656 -1.08570313 5.48695313 -1.09765625 4.16015625 C-1 1 -1 1 0 0 Z " fill="#999BAE" transform="translate(930,377)"/>
<path d="M0 0 C0.33 0 0.66 0 1 0 C0.47458553 7.7498635 -1.55591476 14.6450086 -4 22 C-4.99 22 -5.98 22 -7 22 C-4.69 14.74 -2.38 7.48 0 0 Z " fill="#6219D1" transform="translate(492,322)"/>
<path d="M0 0 C-1.44077046 3.36179774 -3.24750021 5.59156268 -6 8 C-6.66 8 -7.32 8 -8 8 C-8.12375 8.639375 -8.2475 9.27875 -8.375 9.9375 C-8.58125 10.618125 -8.7875 11.29875 -9 12 C-9.99 12.495 -9.99 12.495 -11 13 C-10.56572515 8.07821839 -8.30904303 5.54540325 -5 2 C-2 0 -2 0 0 0 Z " fill="#1C64EE" transform="translate(320,135)"/>
<path d="M0 0 C0 0.66 0 1.32 0 2 C-4.55426184 4.66590937 -7.73946963 5.31563182 -13 5 C-11.68 4.34 -10.36 3.68 -9 3 C-9.66 2.34 -10.32 1.68 -11 1 C-3.375 -1.125 -3.375 -1.125 0 0 Z " fill="#999AAE" transform="translate(918,389)"/>
<path d="M0 0 C0.66 0.99 1.32 1.98 2 3 C4.46648446 5.71313291 6.62141995 7.55203712 10 9 C2.62203024 10.33045356 2.62203024 10.33045356 0 8.9375 C-1.41054216 6.20457456 -1.26305462 4.02512811 -1 1 C-0.67 0.67 -0.34 0.34 0 0 Z " fill="#BBBBCA" transform="translate(859,383)"/>
<path d="M0 0 C5.57142857 5.14285714 5.57142857 5.14285714 6 9 C2.88045262 8.66275164 1.3790035 8.3790035 -0.875 6.125 C-1.24625 5.42375 -1.6175 4.7225 -2 4 C-1 1 -1 1 0 0 Z " fill="#B0AFC1" transform="translate(1255,384)"/>
<path d="M0 0 C0.99 0 1.98 0 3 0 C3.05447047 1.41623216 3.09300508 2.83308191 3.125 4.25 C3.14820313 5.03890625 3.17140625 5.8278125 3.1953125 6.640625 C2.9828378 9.20731941 2.28654105 10.7916067 1 13 C0.67 13 0.34 13 0 13 C0 8.71 0 4.42 0 0 Z " fill="#B6B5C4" transform="translate(1223,371)"/>
<path d="M0 0 C0.9075 0.61875 1.815 1.2375 2.75 1.875 C5.14948817 3.44389611 7.40961612 4.80443821 10 6 C7.20129973 7.39935013 5.09501208 7.25265405 2 7 C0.0625 5.75 0.0625 5.75 -1 4 C-0.6875 1.8125 -0.6875 1.8125 0 0 Z " fill="#B3B3C3" transform="translate(901,386)"/>
<path d="M0 0 C0.33 0 0.66 0 1 0 C1 4.29 1 8.58 1 13 C-3.34944269 13.86988854 -4.97128525 14.03595522 -9 13 C-5.91190305 11.23537317 -4.76687864 11 -1 11 C-0.67 7.37 -0.34 3.74 0 0 Z " fill="#87869C" transform="translate(1104,361)"/>
<path d="M0 0 C0.33 1.65 0.66 3.3 1 5 C0.01 4.34 -0.98 3.68 -2 3 C-4.04869074 2.55570562 -6.11454293 2.18705805 -8.1875 1.875 C-9.81751953 1.62363281 -9.81751953 1.62363281 -11.48046875 1.3671875 C-12.72763672 1.18542969 -12.72763672 1.18542969 -14 1 C-14 0.67 -14 0.34 -14 0 C-12.2300132 -0.19532961 -10.45895721 -0.38098882 -8.6875 -0.5625 C-7.70136719 -0.66691406 -6.71523438 -0.77132813 -5.69921875 -0.87890625 C-3 -1 -3 -1 0 0 Z " fill="#AEAFBE" transform="translate(1019,364)"/>
<path d="M0 0 C1.0625 1.8125 1.0625 1.8125 2 4 C1.67 4.99 1.34 5.98 1 7 C0.319375 6.835 -0.36125 6.67 -1.0625 6.5 C-4.4164822 5.92910941 -7.60389805 5.93340977 -11 6 C-8 4 -8 4 -4.375 3 C-3.26125 2.67 -2.1475 2.34 -1 2 C-0.67 1.34 -0.34 0.68 0 0 Z " fill="#9A9BAD" transform="translate(806,386)"/>
<path d="M0 0 C0.33 0 0.66 0 1 0 C0.97679687 1.04800781 0.95359375 2.09601563 0.9296875 3.17578125 C0.91092697 4.55468037 0.89272707 5.9335872 0.875 7.3125 C0.85824219 8.00279297 0.84148437 8.69308594 0.82421875 9.40429688 C0.78782206 13.17135396 0.85621136 14.78431704 3 18 C2.34 18.66 1.68 19.32 1 20 C-1.08229108 16.87656337 -1.23770457 16.46147078 -0.9765625 12.98828125 C-0.925 12.23095703 -0.8734375 11.47363281 -0.8203125 10.69335938 C-0.75585938 9.90767578 -0.69140625 9.12199219 -0.625 8.3125 C-0.56828125 7.51521484 -0.5115625 6.71792969 -0.453125 5.89648438 C-0.31183972 3.93026419 -0.15720094 1.96501176 0 0 Z " fill="#A3A4B5" transform="translate(1159,372)"/>
<path d="M0 0 C1.85776765 3.13498292 2.20140476 5.37471432 2 9 C0.02 9.99 0.02 9.99 -2 11 C-1.125 3.375 -1.125 3.375 0 0 Z " fill="#5F17CE" transform="translate(495,311)"/>
<path d="M0 0 C1.06615385 3.19846156 0.95342597 4.30260922 0.25 7.5 C0.09015625 8.2734375 -0.0696875 9.046875 -0.234375 9.84375 C-1.0837789 12.23594873 -2.09135294 13.36401681 -4 15 C-3.43179252 9.54520815 -2.05362055 5.08940744 0 0 Z " fill="#0A67DD" transform="translate(142,232)"/>
<path d="M0 0 C0.58265625 0.22171875 1.1653125 0.4434375 1.765625 0.671875 C0.26356419 3.67599663 -2.26906565 4.21829199 -5.234375 5.671875 C-6.59300901 6.63722022 -7.93780637 7.62464649 -9.234375 8.671875 C-9.234375 5.671875 -9.234375 5.671875 -7.84375 4.03125 C-7.23015625 3.50015625 -6.6165625 2.9690625 -5.984375 2.421875 C-5.07945313 1.60976563 -5.07945313 1.60976563 -4.15625 0.78125 C-2.234375 -0.328125 -2.234375 -0.328125 0 0 Z " fill="#621DCD" transform="translate(1430.234375,296.328125)"/>
<path d="M0 0 C0.66 0.66 1.32 1.32 2 2 C0.76446724 3.20254524 -0.48902339 4.38666232 -1.75 5.5625 C-2.79414063 6.55443359 -2.79414063 6.55443359 -3.859375 7.56640625 C-6 9 -6 9 -8.265625 8.71484375 C-8.83796875 8.47894531 -9.4103125 8.24304688 -10 8 C-9.44570313 7.59007812 -8.89140625 7.18015625 -8.3203125 6.7578125 C-7.59585937 6.21898437 -6.87140625 5.68015625 -6.125 5.125 C-5.04605469 4.32449219 -5.04605469 4.32449219 -3.9453125 3.5078125 C-1.91747368 2.00126838 -1.91747368 2.00126838 0 0 Z " fill="#1F203C" transform="translate(501,234)"/>
<path d="M0 0 C6.625 -0.25 6.625 -0.25 10 2 C9 3 9 3 7.15234375 3.09765625 C5.1015625 3.06510417 3.05078125 3.03255208 1 3 C0.67 2.01 0.34 1.02 0 0 Z " fill="#A7A7B9" transform="translate(1259,370)"/>
<path d="M0 0 C0.66 0.33 1.32 0.66 2 1 C-0.37115444 3.74554724 -2.53079925 4.95117186 -6 6 C-9.3125 6.125 -9.3125 6.125 -12 6 C-9.48617788 4.32411859 -7.17052712 3.05969689 -4.4375 1.8125 C-3.65246094 1.44769531 -2.86742187 1.08289063 -2.05859375 0.70703125 C-1.37925781 0.47371094 -0.69992187 0.24039062 0 0 Z " fill="#501BD0" transform="translate(402,429)"/>
<path d="M0 0 C1.32 0.33 2.64 0.66 4 1 C0.04 4.465 0.04 4.465 -4 8 C-4.66 7.34 -5.32 6.68 -6 6 C-4 4 -2 2 0 0 Z " fill="#6115D9" transform="translate(459,417)"/>
<path d="M0 0 C0 2.97 0 5.94 0 9 C-0.33 9 -0.66 9 -1 9 C-1.33 7.02 -1.66 5.04 -2 3 C-2.680625 3.99 -2.680625 3.99 -3.375 5 C-3.91125 5.66 -4.4475 6.32 -5 7 C-5.66 7 -6.32 7 -7 7 C-3.86206897 0 -3.86206897 0 0 0 Z " fill="#3D3D53" transform="translate(719,313)"/>
<path d="M0 0 C1.65 0 3.3 0 5 0 C4.67 1.65 4.34 3.3 4 5 C2.68 4.67 1.36 4.34 0 4 C0 2.68 0 1.36 0 0 Z " fill="#A1A2B6" transform="translate(1280,389)"/>
<path d="M0 0 C2.1640625 0.2421875 2.1640625 0.2421875 4.625 0.875 C5.44226563 1.07867187 6.25953125 1.28234375 7.1015625 1.4921875 C8.04128906 1.74355469 8.04128906 1.74355469 9 2 C9 2.33 9 2.66 9 3 C7.3603125 3.2165625 7.3603125 3.2165625 5.6875 3.4375 C2.06877013 3.88288104 2.06877013 3.88288104 -1 5 C-1.33 4.01 -1.66 3.02 -2 2 C-1.34 1.34 -0.68 0.68 0 0 Z " fill="#9797A8" transform="translate(861,371)"/>
<path d="M0 0 C0.66 0.66 1.32 1.32 2 2 C1.7578125 4.3828125 1.7578125 4.3828125 1.125 7.125 C0.92132813 8.03507813 0.71765625 8.94515625 0.5078125 9.8828125 C0.34023437 10.58148438 0.17265625 11.28015625 0 12 C-2 10 -2 10 -2.01171875 8.125 C-1.90472656 7.42375 -1.79773438 6.7225 -1.6875 6 C-1.58824219 5.29875 -1.48898438 4.5975 -1.38671875 3.875 C-1 2 -1 2 0 0 Z " fill="#0E68EE" transform="translate(138,247)"/>
<path d="M0 0 C0.99 0 1.98 0 3 0 C3 1.32 3 2.64 3 4 C-1.95 3.67 -6.9 3.34 -12 3 C-12 2.67 -12 2.34 -12 2 C-8.04 2 -4.08 2 0 2 C0 1.34 0 0.68 0 0 Z " fill="#9C9CAD" transform="translate(915,378)"/>
<path d="M0 0 C4.455 0.99 4.455 0.99 9 2 C9 2.33 9 2.66 9 3 C7.39125 3.12375 7.39125 3.12375 5.75 3.25 C1.7261549 4.05476902 0.51830747 4.87729874 -2 8 C-1.34 5.36 -0.68 2.72 0 0 Z " fill="#9A99AD" transform="translate(1257,371)"/>
<path d="M0 0 C0.66 0.33 1.32 0.66 2 1 C1.50628906 1.55429688 1.01257813 2.10859375 0.50390625 2.6796875 C-0.13675781 3.40414062 -0.77742188 4.12859375 -1.4375 4.875 C-2.07558594 5.59429687 -2.71367187 6.31359375 -3.37109375 7.0546875 C-5.05014465 8.90750491 -5.05014465 8.90750491 -6 11 C-6.66 10.67 -7.32 10.34 -8 10 C-5.61820737 6.25718301 -3.25524265 3.02272532 0 0 Z " fill="#5B2BE6" transform="translate(266,97)"/>
<path d="M0 0 C0.99 0 1.98 0 3 0 C3 2.64 3 5.28 3 8 C2.34 8 1.68 8 1 8 C0.67 5.36 0.34 2.72 0 0 Z " fill="#B1B0C2" transform="translate(807,385)"/>
<path d="M0 0 C1.32 0 2.64 0 4 0 C3.34 3.63 2.68 7.26 2 11 C1.67 11 1.34 11 1 11 C1 8.36 1 5.72 1 3 C0.34 3 -0.32 3 -1 3 C-0.67 2.01 -0.34 1.02 0 0 Z " fill="#B6B5C6" transform="translate(1087,375)"/>
<path d="M0 0 C1.32 0 2.64 0 4 0 C4 0.66 4 1.32 4 2 C4.99 1.67 5.98 1.34 7 1 C10.1875 1.9375 10.1875 1.9375 13 3 C13 3.33 13 3.66 13 4 C10.36 4.33 7.72 4.66 5 5 C5 4.34 5 3.68 5 3 C4.34 3 3.68 3 3 3 C3 2.34 3 1.68 3 1 C2.01 0.67 1.02 0.34 0 0 Z " fill="#8E8EA3" transform="translate(927,370)"/>
<path d="M0 0 C1.98 0.495 1.98 0.495 4 1 C3.67 2.32 3.34 3.64 3 5 C1.68 4.67 0.36 4.34 -1 4 C-0.67 2.68 -0.34 1.36 0 0 Z " fill="#9B9FB4" transform="translate(748,361)"/>
<path d="M0 0 C0 4.31618166 -2.13270348 5.92789659 -5 9 C-5.66 9 -6.32 9 -7 9 C-5.44499019 5.18315774 -2.96404505 2.80804268 0 0 Z " fill="#100C3D" transform="translate(1306,259)"/>
<path d="M0 0 C1.65 0.33 3.3 0.66 5 1 C5 1.99 5 2.98 5 4 C2.36 4 -0.28 4 -3 4 C-1.68 3.34 -0.36 2.68 1 2 C0.67 1.34 0.34 0.68 0 0 Z " fill="#8D8DA1" transform="translate(1166,390)"/>
<path d="M0 0 C0.66 0 1.32 0 2 0 C2.98120464 3.05263664 2.98120464 4.94736336 2 8 C2.66 8 3.32 8 4 8 C4 8.66 4 9.32 4 10 C3.01 9.67 2.02 9.34 1 9 C0.234375 7.1875 0.234375 7.1875 -0.25 5 C-0.42015625 4.278125 -0.5903125 3.55625 -0.765625 2.8125 C-0.84296875 2.214375 -0.9203125 1.61625 -1 1 C-0.67 0.67 -0.34 0.34 0 0 Z " fill="#9B9CAE" transform="translate(1019,378)"/>
<path d="M0 0 C1.32 0 2.64 0 4 0 C4 1.65 4 3.3 4 5 C3.01 5.495 3.01 5.495 2 6 C1.34 5.67 0.68 5.34 0 5 C0 3.35 0 1.7 0 0 Z " fill="#A3A2B5" transform="translate(1237,372)"/>
<path d="M0 0 C1.56633048 2.48770135 2.04100928 3.65552204 1.6875 6.625 C1 9 1 9 0 11 C-0.66 11 -1.32 11 -2 11 C-1.125 3.375 -1.125 3.375 0 0 Z " fill="#4329D0" transform="translate(1278,261)"/>
<path d="M0 0 C1.485 0.99 1.485 0.99 3 2 C3.1875 5.625 3.1875 5.625 3 9 C2.67 8.34 2.34 7.68 2 7 C1.34 7 0.68 7 0 7 C0 4.69 0 2.38 0 0 Z " fill="#B5B6C6" transform="translate(1021,379)"/>
<path d="M0 0 C0 3.90838866 -1.50567876 5.11594107 -4 8 C-4.99 7.67 -5.98 7.34 -7 7 C-4.78071806 4.09197539 -3.07030857 2.04687238 0 0 Z " fill="#191A34" transform="translate(337,256)"/>
<path d="M0 0 C0.66 0.66 1.32 1.32 2 2 C-0.31 4.64 -2.62 7.28 -5 10 C-5 6.60406522 -4.47834052 5.93380119 -2.5 3.3125 C-2.0359375 2.68988281 -1.571875 2.06726563 -1.09375 1.42578125 C-0.7328125 0.95527344 -0.371875 0.48476563 0 0 Z " fill="#6A1ADC" transform="translate(471,369)"/>
<path d="M0 0 C0.99 0.33 1.98 0.66 3 1 C3 2.32 3 3.64 3 5 C1.68 5 0.36 5 -1 5 C-0.67 3.35 -0.34 1.7 0 0 Z " fill="#ACACBD" transform="translate(1062,361)"/>
<path d="M0 0 C-0.33 0.66 -0.66 1.32 -1 2 C-3.31 2 -5.62 2 -8 2 C-8 1.34 -8 0.68 -8 0 C-4.71023192 -1.09658936 -3.28696233 -0.79953138 0 0 Z " fill="#9899AF" transform="translate(1045,392)"/>
<path d="M0 0 C0.33 0 0.66 0 1 0 C1 2.64 1 5.28 1 8 C0.01 8 -0.98 8 -2 8 C-1.47731534 5.23723823 -0.89130413 2.6739124 0 0 Z " fill="#BEBDCA" transform="translate(1051,385)"/>
</svg>
